<svg width="40" height="40" viewBox="0 0 40 40" fill="none" xmlns="http://www.w3.org/2000/svg">
<g clip-path="url(#clip0_3517_126096)">
<path fill-rule="evenodd" clip-rule="evenodd" d="M7.60031 20.7005L6.51206 21.0007C3.48474 21.8358 1.42857 24.3374 1.42857 27.1429C1.42857 30.5674 4.52899 33.5715 8.64865 33.5715H35.1351C37.045 33.5715 38.5714 32.0404 38.5714 30.1786C38.5714 28.805 37.743 27.6117 36.5348 27.0787L35.7177 26.7182L35.6839 25.8257C35.5542 22.4011 32.7069 19.6429 29.1892 19.6429C28.7697 19.6429 28.3607 19.682 27.9655 19.7564L26.4349 20.0445L26.2798 18.4947C25.8522 14.2207 21.9179 10.7143 16.9369 10.7143C11.6484 10.7143 7.55469 14.6547 7.55469 19.2858C7.55469 19.3817 7.55642 19.4772 7.55983 19.5723L7.60031 20.7005ZM27.4502 16.9461C26.3115 12.5519 22.0366 9.28577 16.9369 9.28577C10.9663 9.28577 6.12612 13.7629 6.12612 19.2858C6.12612 19.3988 6.12815 19.5114 6.13218 19.6235C2.58305 20.6026 0 23.5987 0 27.1429C0 31.4823 3.87213 35 8.64865 35H35.1351C37.8219 35 40 32.8414 40 30.1786C40 28.2132 38.8134 26.5224 37.1114 25.7716C36.9524 21.5712 33.4664 18.2143 29.1892 18.2143C29.1507 18.2143 29.1123 18.2146 29.0739 18.2151C28.6054 18.2218 28.1468 18.2687 27.7013 18.3525C27.6533 17.8731 27.5688 17.4035 27.4502 16.9461Z" fill="black"/>
<path fill-rule="evenodd" clip-rule="evenodd" d="M10.3574 20.7142H16.0717V22.1428H11.786V24.6428H13.5717C15.1497 24.6428 16.4288 25.922 16.4288 27.4999V28.5714C16.4288 30.1493 15.1497 31.4285 13.5717 31.4285H10.3574V29.9999H13.5717C14.3607 29.9999 15.0003 29.3604 15.0003 28.5714V27.4999C15.0003 26.711 14.3607 26.0714 13.5717 26.0714H10.3574V20.7142ZM17.8574 23.5714C17.8574 21.9934 19.1366 20.7142 20.7146 20.7142H24.286V22.1428H20.7146C19.9256 22.1428 19.286 22.7824 19.286 23.5714V28.5714C19.286 29.3604 19.9256 29.9999 20.7146 29.9999H23.2146V26.7857H21.4288V25.3571H24.6431V31.4285H20.7146C19.1366 31.4285 17.8574 30.1493 17.8574 28.5714V23.5714Z" fill="black"/>
<path fill-rule="evenodd" clip-rule="evenodd" d="M32.3981 7.18978C31.1849 6.68723 29.8845 6.42857 28.5713 6.42857V5C30.0721 5 31.5582 5.29561 32.9448 5.86995C34.3314 6.44429 35.5913 7.28611 36.6525 8.34735C37.7138 9.40859 38.5556 10.6685 39.1299 12.055C39.7043 13.4416 39.9999 14.9277 39.9999 16.4286H38.5713C38.5713 15.1153 38.3126 13.815 37.8101 12.6017C37.3075 11.3885 36.571 10.2861 35.6424 9.3575C34.7138 8.42892 33.6114 7.69232 32.3981 7.18978ZM30.9403 10.7093C30.1892 10.3982 29.3843 10.2381 28.5713 10.2381V8.80952C29.5719 8.80952 30.5626 9.00659 31.487 9.38948C32.4114 9.77237 33.2513 10.3336 33.9588 11.0411C34.6663 11.7486 35.2275 12.5885 35.6104 13.5129C35.9933 14.4373 36.1904 15.428 36.1904 16.4286H34.7618C34.7618 15.6156 34.6017 14.8106 34.2906 14.0596C33.9795 13.3085 33.5235 12.6261 32.9486 12.0512C32.3738 11.4764 31.6914 11.0204 30.9403 10.7093ZM29.4824 14.2289C29.1936 14.1092 28.884 14.0476 28.5713 14.0476V12.6191C29.0716 12.6191 29.5669 12.7176 30.0291 12.909C30.4913 13.1005 30.9113 13.3811 31.265 13.7348C31.6188 14.0886 31.8994 14.5085 32.0908 14.9707C32.2823 15.4329 32.3808 15.9283 32.3808 16.4286H30.9522C30.9522 16.1159 30.8907 15.8063 30.771 15.5174C30.6513 15.2286 30.476 14.9661 30.2549 14.745C30.0338 14.5239 29.7713 14.3485 29.4824 14.2289Z" fill="black"/>
</g>
<defs>
<clipPath id="clip0_3517_126096">
<rect width="40" height="40" fill="white"/>
</clipPath>
</defs>
</svg>
