<svg width="40" height="40" viewBox="0 0 40 40" fill="none" xmlns="http://www.w3.org/2000/svg">
<path fill-rule="evenodd" clip-rule="evenodd" d="M17.1679 5.57944C14.2866 6.14995 11.6432 7.57325 9.58081 9.66466C7.5184 11.7561 6.13215 14.419 5.60191 17.308C5.07168 20.197 5.42195 23.1787 6.60726 25.8662C7.79258 28.5537 9.75823 30.8229 12.2492 32.3794L11.4916 33.5917C8.75768 31.8834 6.60025 29.3928 5.29929 26.4431C3.99834 23.4934 3.6139 20.2208 4.19586 17.05C4.77782 13.8791 6.29932 10.9563 8.56294 8.6609C10.8266 6.36546 13.7278 4.8033 16.8902 4.17712L17.1679 5.57944Z" fill="black"/>
<path fill-rule="evenodd" clip-rule="evenodd" d="M20.0131 36.0355H5.00293V34.606H20.0131V36.0355Z" fill="black"/>
<path fill-rule="evenodd" clip-rule="evenodd" d="M25.6205 6.41579C23.8427 5.67942 21.9373 5.30041 20.0131 5.30041L20.0131 3.87087C22.125 3.87087 24.2163 4.28685 26.1675 5.09507C28.1187 5.90328 29.8916 7.08789 31.385 8.58127C32.8784 10.0747 34.063 11.8476 34.8712 13.7987C35.6794 15.7499 36.0954 17.8412 36.0954 19.9532C36.0954 22.0651 35.6794 24.1564 34.8712 26.1076C34.063 28.0588 32.8784 29.8317 31.385 31.3251C29.8916 32.8185 28.1187 34.0031 26.1675 34.8113C24.2163 35.6195 22.125 36.0355 20.0131 36.0355V34.606C21.9373 34.606 23.8427 34.227 25.6205 33.4906C27.3982 32.7542 29.0135 31.6749 30.3742 30.3143C31.7348 28.9536 32.8141 27.3383 33.5505 25.5606C34.2869 23.7828 34.6659 21.8774 34.6659 19.9532C34.6659 18.029 34.2869 16.1236 33.5505 14.3458C32.8141 12.5681 31.7348 10.9527 30.3742 9.59211C29.0135 8.23147 27.3982 7.15216 25.6205 6.41579Z" fill="black"/>
<path fill-rule="evenodd" clip-rule="evenodd" d="M22.0259 7.96617L23.0036 6.92327L20.7008 4.76433L23.0036 2.6054L22.0259 1.5625L18.6106 4.76433L22.0259 7.96617Z" fill="black"/>
<path fill-rule="evenodd" clip-rule="evenodd" d="M3.21646 37.1076C4.20335 37.1076 5.00339 36.3076 5.00339 35.3207C5.00339 34.3338 4.20335 33.5338 3.21646 33.5338C2.22957 33.5338 1.42954 34.3338 1.42954 35.3207C1.42954 36.3076 2.22957 37.1076 3.21646 37.1076ZM3.21646 38.5372C4.99286 38.5372 6.43292 37.0971 6.43292 35.3207C6.43292 33.5443 4.99286 32.1042 3.21646 32.1042C1.44006 32.1042 0 33.5443 0 35.3207C0 37.0971 1.44006 38.5372 3.21646 38.5372Z" fill="black"/>
<path fill-rule="evenodd" clip-rule="evenodd" d="M36.5847 38.5226L35.607 37.4797L37.9099 35.3207L35.607 33.1618L36.5847 32.1189L40 35.3207L36.5847 38.5226Z" fill="black"/>
<path fill-rule="evenodd" clip-rule="evenodd" d="M28.2334 34.606H38.2402V36.0355H28.2334V34.606Z" fill="black"/>
<path fill-rule="evenodd" clip-rule="evenodd" d="M23.461 18.0333L19.3607 23.3052L16.7021 21.3113L17.5599 20.1676L19.0947 21.3187L22.3326 17.1556L23.461 18.0333Z" fill="black"/>
<path fill-rule="evenodd" clip-rule="evenodd" d="M27.8098 20.9802L26.3923 20.7953C26.4282 20.5203 26.4468 20.2393 26.4468 19.9533C26.4468 19.6672 26.4282 19.3862 26.3923 19.1113L27.8098 18.9264C27.8537 19.2625 27.8763 19.6052 27.8763 19.9533C27.8763 20.3013 27.8537 20.6441 27.8098 20.9802ZM27.2797 16.9436L25.9592 17.4912C25.7426 16.969 25.4589 16.4809 25.1184 16.0378L26.2519 15.1667C26.6677 15.7078 27.0146 16.3044 27.2797 16.9436ZM24.8004 13.7152L23.9293 14.8487C23.4862 14.5082 22.9981 14.2245 22.4759 14.0079L23.0235 12.6874C23.6627 12.9525 24.2593 13.2994 24.8004 13.7152ZM21.0407 12.1573L20.8558 13.5748C20.5809 13.5389 20.2999 13.5204 20.0138 13.5204C19.7278 13.5204 19.4468 13.5389 19.1718 13.5748L18.9869 12.1573C19.323 12.1134 19.6658 12.0908 20.0138 12.0908C20.3619 12.0908 20.7046 12.1134 21.0407 12.1573ZM17.0042 12.6874L17.5518 14.0079C17.0296 14.2245 16.5415 14.5082 16.0983 14.8487L15.2273 13.7152C15.7683 13.2995 16.365 12.9525 17.0042 12.6874ZM13.7758 15.1667L14.9093 16.0378C14.5688 16.4809 14.285 16.969 14.0685 17.4912L12.748 16.9436C13.013 16.3044 13.36 15.7078 13.7758 15.1667ZM12.2178 18.9264C12.174 19.2625 12.1514 19.6052 12.1514 19.9533C12.1514 20.3013 12.174 20.6441 12.2178 20.9802L13.6354 20.7953C13.5995 20.5203 13.5809 20.2393 13.5809 19.9533C13.5809 19.6672 13.5995 19.3862 13.6354 19.1113L12.2178 18.9264ZM12.748 22.9629L14.0685 22.4153C14.285 22.9376 14.5688 23.4257 14.9093 23.8688L13.7758 24.7398C13.36 24.1988 13.013 23.6021 12.748 22.9629ZM15.2273 26.1914L16.0983 25.0578C16.5415 25.3984 17.0296 25.6821 17.5518 25.8986L17.0042 27.2191C16.365 26.9541 15.7683 26.6071 15.2273 26.1914ZM18.9869 27.7493L19.1718 26.3318C19.4468 26.3676 19.7278 26.3862 20.0138 26.3862C20.2999 26.3862 20.5809 26.3676 20.8558 26.3318L21.0407 27.7493C20.7046 27.7931 20.3619 27.8157 20.0138 27.8157C19.6658 27.8157 19.323 27.7931 18.9869 27.7493ZM23.0235 27.2191L22.4759 25.8986C22.9981 25.6821 23.4862 25.3984 23.9293 25.0578L24.8004 26.1914C24.2593 26.6071 23.6627 26.9541 23.0235 27.2191ZM26.2519 24.7398L25.1184 23.8688C25.4589 23.4257 25.7426 22.9376 25.9592 22.4153L27.2797 22.9629C27.0146 23.6021 26.6677 24.1988 26.2519 24.7398Z" fill="black"/>
</svg>
