<svg width="40" height="40" viewBox="0 0 40 40" fill="none" xmlns="http://www.w3.org/2000/svg">
<path fill-rule="evenodd" clip-rule="evenodd" d="M27.6755 2.41923C25.5011 1.5583 23.1467 1.25148 20.8242 1.52636C18.5017 1.80124 16.2841 2.64921 14.3707 3.99396C12.4573 5.33872 10.9082 7.13807 9.86287 9.23012C8.81753 11.3222 8.3087 13.6413 8.38216 15.9788L8.38893 16.1945L3.59005 23.9286H6.58948V29.6429C6.58948 32.0098 8.50826 33.9286 10.8752 33.9286H17.3038V40H15.8752V35.3571H10.8752C7.71928 35.3571 5.16091 32.7988 5.16091 29.6429V25.3571H2.94814C2.10708 25.3571 1.59414 24.4325 2.03881 23.7191C2.03907 23.7187 2.03932 23.7183 2.03957 23.7179L6.94897 15.8057C6.90551 13.3054 7.46626 10.8304 8.58495 8.59158C9.73615 6.28767 11.4421 4.30611 13.5492 2.82518C15.6564 1.34424 18.0987 0.410409 20.6563 0.10769C23.214 -0.195028 25.8068 0.142868 28.2014 1.09098C30.5961 2.03909 32.7174 3.56766 34.3747 5.53917C36.0319 7.51068 37.173 9.86327 37.6953 12.3853C38.2175 14.9073 38.1046 17.5196 37.3667 19.9871C36.7154 22.1647 35.5954 24.1693 34.0895 25.862V40H32.6609V25.3074L32.8502 25.1022C34.3045 23.5261 35.3821 21.6372 35.998 19.5778C36.6681 17.3371 36.7706 14.9651 36.2964 12.675C35.8221 10.3849 34.786 8.24862 33.2811 6.45839C31.7763 4.66817 29.85 3.28016 27.6755 2.41923ZM3.251 24.475L3.25223 24.473C3.25182 24.4737 3.25141 24.4743 3.251 24.475Z" fill="black"/>
<path fill-rule="evenodd" clip-rule="evenodd" d="M16.2323 29.6428V25H14.8037V31.0714H19.8037V40H21.2323V29.6428H16.2323Z" fill="black"/>
<path fill-rule="evenodd" clip-rule="evenodd" d="M15.518 24.6428C16.5042 24.6428 17.3037 23.8433 17.3037 22.8571C17.3037 21.8709 16.5042 21.0714 15.518 21.0714C14.5318 21.0714 13.7323 21.8709 13.7323 22.8571C13.7323 23.8433 14.5318 24.6428 15.518 24.6428ZM15.518 26.0714C17.2932 26.0714 18.7323 24.6323 18.7323 22.8571C18.7323 21.0819 17.2932 19.6428 15.518 19.6428C13.7428 19.6428 12.3037 21.0819 12.3037 22.8571C12.3037 24.6323 13.7428 26.0714 15.518 26.0714Z" fill="black"/>
<path fill-rule="evenodd" clip-rule="evenodd" d="M30.5184 21.0714V39.9999H29.0898V21.0714H30.5184Z" fill="black"/>
<path fill-rule="evenodd" clip-rule="evenodd" d="M29.8041 20.7142C30.7904 20.7142 31.5898 19.9147 31.5898 18.9285C31.5898 17.9423 30.7904 17.1428 29.8041 17.1428C28.8179 17.1428 28.0184 17.9423 28.0184 18.9285C28.0184 19.9147 28.8179 20.7142 29.8041 20.7142ZM29.8041 22.1428C31.5793 22.1428 33.0184 20.7037 33.0184 18.9285C33.0184 17.1533 31.5793 15.7142 29.8041 15.7142C28.0289 15.7142 26.5898 17.1533 26.5898 18.9285C26.5898 20.7037 28.0289 22.1428 29.8041 22.1428Z" fill="black"/>
<path fill-rule="evenodd" clip-rule="evenodd" d="M24.4466 32.1428V29.6428H25.8751V32.1428H24.4466Z" fill="black"/>
<path fill-rule="evenodd" clip-rule="evenodd" d="M24.4466 39.9999V37.4999H25.8751V39.9999H24.4466Z" fill="black"/>
<path fill-rule="evenodd" clip-rule="evenodd" d="M24.4466 36.0714V33.5714H25.8751V36.0714H24.4466Z" fill="black"/>
<path fill-rule="evenodd" clip-rule="evenodd" d="M22.3037 23.9285V13.2142H20.8751V25.3571H24.4466V28.2142H25.8751V23.9285H22.3037Z" fill="black"/>
<path fill-rule="evenodd" clip-rule="evenodd" d="M21.5894 12.8571C23.1674 12.8571 24.4466 11.5779 24.4466 9.99995C24.4466 8.42199 23.1674 7.1428 21.5894 7.1428C20.0115 7.1428 18.7323 8.42199 18.7323 9.99995C18.7323 11.5779 20.0115 12.8571 21.5894 12.8571ZM21.5894 14.2857C23.9564 14.2857 25.8751 12.3669 25.8751 9.99995C25.8751 7.63301 23.9564 5.71423 21.5894 5.71423C19.2225 5.71423 17.3037 7.63301 17.3037 9.99995C17.3037 12.3669 19.2225 14.2857 21.5894 14.2857Z" fill="black"/>
<circle cx="21.5897" cy="10.0001" r="1.42857" fill="black"/>
</svg>
