<svg width="40" height="40" viewBox="0 0 40 40" fill="none" xmlns="http://www.w3.org/2000/svg">
<path fill-rule="evenodd" clip-rule="evenodd" d="M11.9466 6.50344L7.90791 3.36224L3.36221 7.90793L6.50343 11.9466C5.72337 13.2511 5.12707 14.6781 4.75028 16.1919L0 16.7857V23.2143L4.75028 23.8081C5.12707 25.3219 5.72338 26.7489 6.50343 28.0534L3.36221 32.0921L7.90791 36.6378L11.9466 33.4966C13.2511 34.2766 14.6781 34.8729 16.1919 35.2497L16.7857 40H23.2143L23.8081 35.2497C25.3219 34.8729 26.7489 34.2766 28.0534 33.4966L32.0921 36.6378L36.6378 32.0921L33.4966 28.0534C34.2766 26.7489 34.8729 25.3219 35.2497 23.8081L40 23.2143V16.7857L35.2497 16.1919C34.8729 14.6781 34.2766 13.2511 33.4966 11.9466L36.6378 7.90791L32.0921 3.36222L28.0534 6.50344C26.7489 5.72338 25.3219 5.12707 23.8081 4.75028L23.2143 0H16.7857L16.1919 4.75028C14.6781 5.12708 13.2511 5.72338 11.9466 6.50344ZM18.0468 1.42857L17.4879 5.89986L16.537 6.13656C15.162 6.47878 13.8655 7.02045 12.6798 7.72952L11.841 8.2311L8.02631 5.26413L5.26411 8.02634L8.23109 11.841L7.72951 12.6798C7.02044 13.8656 6.47878 15.162 6.13655 16.537L5.89986 17.4879L1.42857 18.0468V21.9532L5.89986 22.5121L6.13656 23.463C6.47878 24.838 7.02045 26.1345 7.72951 27.3202L8.2311 28.159L5.26411 31.9737L8.02631 34.7359L11.841 31.7689L12.6798 32.2705C13.8655 32.9796 15.162 33.5212 16.537 33.8634L17.4879 34.1001L18.0468 38.5714H21.9532L22.5121 34.1001L23.463 33.8634C24.838 33.5212 26.1345 32.9796 27.3202 32.2705L28.159 31.7689L31.9737 34.7359L34.7359 31.9737L31.7689 28.159L32.2705 27.3202C32.9796 26.1345 33.5212 24.838 33.8634 23.463L34.1001 22.5121L38.5714 21.9532V18.0468L34.1001 17.4879L33.8634 16.537C33.5212 15.162 32.9796 13.8656 32.2705 12.6798L31.7689 11.841L34.7359 8.02632L31.9737 5.26412L28.159 8.2311L27.3202 7.72951C26.1345 7.02045 24.838 6.47878 23.463 6.13655L22.5121 5.89986L21.9532 1.42857H18.0468Z" fill="black"/>
<path fill-rule="evenodd" clip-rule="evenodd" d="M25.714 14.2855H14.286V25.7135H25.714V14.2855ZM12.8574 12.8569V27.1421H27.1426V12.8569H12.8574Z" fill="black"/>
<path fill-rule="evenodd" clip-rule="evenodd" d="M22.8567 17.1428H17.1424V22.8571H22.8567V17.1428ZM15.7139 15.7142V24.2857H24.2853V15.7142H15.7139Z" fill="black"/>
<path fill-rule="evenodd" clip-rule="evenodd" d="M16.429 9.28577V12.8571H15.0004V9.28577H16.429ZM20.7147 9.28577V12.8571H19.2861V9.28577H20.7147ZM25.0004 9.28577V12.8571H23.5718V9.28577H25.0004ZM9.28613 15.0001H12.8574V16.4287H9.28613V15.0001ZM30.7146 16.4287H27.1433V15.0001H30.7146V16.4287ZM9.28613 19.2858H12.8574V20.7144H9.28613V19.2858ZM30.7146 20.7144H27.1433V19.2858H30.7146V20.7144ZM9.28613 23.5715H12.8574V25.0001H9.28613V23.5715ZM30.7146 25.0001H27.1433V23.5715H30.7146V25.0001ZM15.0004 30.7142V27.143H16.429V30.7142H15.0004ZM19.2861 30.7142V27.143H20.7147V30.7142H19.2861ZM23.5718 30.7142V27.143H25.0004V30.7142H23.5718Z" fill="black"/>
</svg>
