<svg width="60" height="60" viewBox="0 0 60 60" fill="none" xmlns="http://www.w3.org/2000/svg">
<path d="M38.4138 38.8814L34.1904 31.7719L35.802 30.8147L38.3229 35.0588L38.3468 33.1294V17.5978C38.3468 15.7472 39.6645 13.8047 41.2835 13.268C45.9195 11.7694 50.809 11.7694 55.4337 13.2661C57.0588 13.8052 58.3755 15.7472 58.377 17.5974V21.9038H56.5024V17.5983C56.5015 16.5506 55.7135 15.3342 54.8501 15.0478C50.6093 13.6753 46.1177 13.6749 41.8676 15.0497C41.0248 15.3291 40.2223 16.5684 40.2223 17.5983V33.1406L40.1576 38.4141L38.4138 38.8814ZM29.6805 29.0672C27.1591 29.0672 25.1074 27.0028 25.1074 24.4655C25.1074 21.9281 27.1587 19.8638 29.6805 19.8638C32.2015 19.8638 34.2532 21.9281 34.2532 24.4655C34.2532 27.0028 32.2015 29.0672 29.6805 29.0672ZM29.6805 21.7383C28.1927 21.7383 26.9824 22.9617 26.9824 24.4655C26.9824 25.9692 28.1927 27.1927 29.6805 27.1927C31.1684 27.1927 32.3782 25.9692 32.3782 24.4655C32.3782 22.9617 31.1684 21.7383 29.6805 21.7383Z" fill="#4C009F"/>
<path d="M35.876 43.8151H23.9932V30.998H35.8764V43.8151H35.876ZM25.8677 41.9405H34.0014V32.8726H25.8677V41.9405Z" fill="#4C009F"/>
<path d="M26.1227 42.6637H27.9973V51.8891H26.1227V42.6637ZM31.8715 42.6637H33.7465V51.8891H31.8715V42.6637ZM21.4559 38.8813L19.7327 38.5958L16.0038 20.9071C15.6049 19.6696 14.5741 18.3552 13.9737 18.0815C12.4418 17.4098 11.1284 17.0933 9.85242 17.0924C8.57602 17.0933 7.26258 17.4098 5.71805 18.0871C5.12461 18.359 4.07695 19.6996 3.68648 20.9483L3.03352 23.1468L1.23633 22.6129L1.89305 20.4018C2.35617 18.921 3.65414 16.9696 4.95117 16.3762C6.75445 15.5849 8.30649 15.2188 9.84914 15.2174C11.3974 15.2188 12.9499 15.5854 14.7391 16.3701C16.0498 16.9673 17.3482 18.9196 17.8057 20.3891L17.8282 20.4749L21.071 35.8579L24.0663 30.8155L25.6784 31.7727L21.4559 38.8813ZM48.3645 13.9373C45.109 13.9373 42.4605 11.2715 42.4605 7.99491C42.4605 4.71929 45.1085 2.05444 48.3645 2.05444C51.618 2.05444 54.2651 4.71929 54.2651 7.99491C54.2651 11.2715 51.618 13.9373 48.3645 13.9373ZM48.3645 3.92897C46.1426 3.92897 44.3351 5.75288 44.3351 7.99444C44.3351 10.2374 46.1421 12.0623 48.3645 12.0623C50.584 12.0623 52.3901 10.2374 52.3901 7.99444C52.3901 5.75288 50.584 3.92897 48.3645 3.92897Z" fill="#4C009F"/>
<path d="M9.85109 16.7518C6.73672 16.7518 4.20312 14.2013 4.20312 11.0663C4.20312 7.93133 6.73672 5.38086 9.85109 5.38086C12.9655 5.38086 15.4991 7.93133 15.4991 11.0663C15.4991 14.2013 12.9655 16.7518 9.85109 16.7518ZM9.85109 7.25586C7.77031 7.25586 6.07766 8.96492 6.07766 11.0663C6.07766 13.1677 7.77031 14.8768 9.85109 14.8768C11.9314 14.8768 13.6241 13.1677 13.6241 11.0663C13.6241 8.96492 11.9314 7.25586 9.85109 7.25586Z" fill="#4C009F"/>
<path d="M11.3059 41.0667H9.4309V33.6309C9.17684 32.2148 8.18355 30.7368 6.80684 30.7363L5.6673 30.7373C5.63153 30.7419 5.59555 30.7449 5.55949 30.7462L5.4873 28.8726C5.55387 28.8665 5.60918 28.8628 5.66684 28.8628L6.80684 28.8618C9.26965 28.8628 10.9281 31.147 11.2937 33.4017L11.3059 33.5517V41.0667Z" fill="#F58A1F"/>
<path d="M23.3367 57.2235H21.4617V52.4765L21.0741 46.3968L13.1423 38.4046L12.7327 38.7965C11.8542 39.6332 11.46 41.3563 12.1622 42.3173L17.2219 47.414L15.893 48.7363L10.9355 43.7662C10.8758 43.703 10.8187 43.6375 10.7644 43.5698L7.91297 40.6973L4.85391 37.4423V29.6334C4.60078 28.2182 3.60844 26.7407 2.23078 26.7398L1.89375 26.7402L2.025 39.0876L12.0464 56.031L10.4325 56.9859L0.156094 39.6098L0 24.9365L0.884531 24.8779C0.970313 24.8704 1.02891 24.8666 1.09031 24.8666L2.22984 24.8652C4.69406 24.8671 6.35156 27.1504 6.71625 29.4046L6.72844 29.5541V36.7002L9.26109 39.3955L10.0139 40.154C10.2075 39.1134 10.7175 38.1266 11.438 37.4404C12.5053 36.4195 12.533 36.397 12.5677 36.3688L13.2267 35.8293L22.9003 45.5765L23.3367 52.447V57.2235Z" fill="#F58A1F"/>
<path d="M8.27734 56.0708H26.0312V57.9453H8.27734V56.0708Z" fill="#F58A1F"/>
<path d="M50.5796 41.0666H48.7051L48.7168 33.4016C49.0805 31.1465 50.7385 28.8623 53.2009 28.8613L54.3441 28.8623C54.4009 28.8623 54.4557 28.866 54.5106 28.8712L54.4496 30.7457C54.4131 30.7442 54.3767 30.7416 54.3404 30.7377L53.1999 30.7359C51.8241 30.7363 50.8318 32.2138 50.5787 33.6304V41.0666H50.5796Z" fill="#F58A1F"/>
<path d="M38.5454 57.2235H36.6709L36.6728 52.387L37.1092 45.576L46.7809 35.8326L47.4395 36.3665C47.4943 36.4115 47.5173 36.4298 48.5636 37.5107C49.2676 38.182 49.7701 39.156 49.9637 40.1849L50.7657 39.3768L53.2806 36.7003L53.2923 29.4051C53.6565 27.1504 55.314 24.8676 57.7778 24.8657L58.9196 24.8671C58.9811 24.8671 59.0401 24.8713 59.0992 24.8765L59.9636 24.9524L60.0006 25.8234L59.8539 39.6098L49.577 56.9859L47.9636 56.031L57.9845 39.0876L58.1153 26.7407L57.7778 26.7398C56.4006 26.7407 55.4078 28.2182 55.1551 29.6329V37.4418L52.1134 40.6785L49.262 43.551C49.1983 43.6329 49.1307 43.7118 49.0595 43.7873L44.0818 48.7804L42.6695 47.5546L42.7867 47.4135L47.8511 42.3117C48.5064 41.3638 48.1112 39.6674 47.2426 38.8406L46.8432 38.429L38.9354 46.3973L38.5459 52.477V57.2235H38.5454Z" fill="#F58A1F"/>
<path d="M33.9785 56.0708H51.7315V57.9453H33.9785V56.0708Z" fill="#F58A1F"/>
</svg>
