<svg width="56" height="48" viewBox="0 0 56 48" fill="none" xmlns="http://www.w3.org/2000/svg">
<path opacity="0.6" fill-rule="evenodd" clip-rule="evenodd" d="M41.6944 1.5272L40.0382 2.8274C39.7254 3.07294 39.2728 3.01844 39.0273 2.70566C38.7818 2.39288 38.8363 1.94027 39.149 1.69473L40.8053 0.394531L41.6944 1.5272ZM15.9631 2.82737L14.3071 1.52718L15.1963 0.394553L16.8524 1.69475C17.1651 1.94031 17.2196 2.39292 16.9741 2.70568C16.7285 3.01845 16.2759 3.07293 15.9631 2.82737ZM19.1535 4.41683C19.3991 4.10406 19.8517 4.04958 20.1645 4.29514L23.4766 6.89553C23.7893 7.14109 23.8438 7.5937 23.5983 7.90647C23.3527 8.21923 22.9001 8.27371 22.5873 8.02816L19.2752 5.42776C18.9625 5.18221 18.908 4.72959 19.1535 4.41683ZM36.8475 4.41686C37.0931 4.72964 37.0386 5.18224 36.7258 5.42779L33.4134 8.02818C33.1006 8.27372 32.648 8.21922 32.4024 7.90644C32.1569 7.59366 32.2114 7.14105 32.5242 6.89551L35.8366 4.29512C36.1494 4.04957 36.602 4.10408 36.8475 4.41686ZM25.7777 9.61761C26.0233 9.30484 26.4759 9.25036 26.7887 9.49592L28.0001 10.4471L29.2117 9.4959C29.5245 9.25035 29.9771 9.30486 30.2227 9.61764C30.4682 9.93042 30.4137 10.383 30.1009 10.6286L28.9362 11.5429L30.0216 13.4197C30.2206 13.7639 30.103 14.2043 29.7587 14.4034C29.4145 14.6025 28.9741 14.4848 28.775 14.1406L28.0001 12.8006L27.2252 14.1405C27.0261 14.4848 26.5857 14.6024 26.2414 14.4034C25.8972 14.2043 25.7795 13.7639 25.9786 13.4196L27.064 11.5429L25.8994 10.6285C25.5867 10.383 25.5322 9.93038 25.7777 9.61761ZM24.1659 17.9921C24.5102 18.1912 24.6278 18.6316 24.4288 18.9759L21.6323 23.8112C21.4333 24.1554 20.9928 24.2731 20.6486 24.074C20.3044 23.8749 20.1867 23.4345 20.3858 23.0903L23.1822 18.2549C23.3813 17.9107 23.8217 17.7931 24.1659 17.9921ZM31.8342 17.9923C32.1785 17.7932 32.6189 17.9109 32.818 18.2551L35.6143 23.0905C35.8134 23.4347 35.6957 23.8752 35.3515 24.0742C35.0073 24.2733 34.5669 24.1556 34.3678 23.8114L31.5714 18.976C31.3723 18.6318 31.49 18.1913 31.8342 17.9923ZM3.04136 25.4241L1.11523 24.5757L1.69568 23.2579L3.6218 24.1062C3.98571 24.2665 4.15078 24.6915 3.9905 25.0554C3.83021 25.4193 3.40527 25.5844 3.04136 25.4241ZM54.8853 24.5757L52.9591 25.4241C52.5952 25.5844 52.1703 25.4193 52.01 25.0554C51.8497 24.6915 52.0148 24.2666 52.3787 24.1063L54.3049 23.2579L54.8853 24.5757ZM6.52491 26.1717C6.6852 25.8078 7.11014 25.6427 7.47405 25.803L11.3263 27.4997C11.6902 27.66 11.8553 28.0849 11.695 28.4488C11.5347 28.8127 11.1098 28.9778 10.7459 28.8175L6.89361 27.1208C6.5297 26.9605 6.36463 26.5356 6.52491 26.1717ZM49.4755 26.1718C49.6358 26.5357 49.4707 26.9606 49.1068 27.1209L45.2544 28.8178C44.8905 28.978 44.4656 28.813 44.3053 28.4491C44.145 28.0852 44.3101 27.6602 44.674 27.4999L48.5263 25.8031C48.8902 25.6428 49.3152 25.8079 49.4755 26.1718ZM18.5731 27.6628C18.9173 27.8618 19.035 28.3023 18.8359 28.6465L18.0626 29.9837L19.6109 29.9837C20.0085 29.9838 20.3309 30.3061 20.3309 30.7038C20.3308 31.1014 20.0085 31.4238 19.6108 31.4237L17.4455 31.4237L17.2582 32.8402C17.2061 33.2344 16.8443 33.5118 16.45 33.4596C16.0558 33.4075 15.7785 33.0457 15.8306 32.6515L16.0299 31.1449L14.5981 30.5143C14.2342 30.354 14.0691 29.929 14.2294 29.5651C14.3897 29.2012 14.8146 29.0361 15.1786 29.1964L16.5142 29.7847L17.5894 27.9256C17.7885 27.5814 18.2289 27.4637 18.5731 27.6628ZM37.427 27.6631C37.7712 27.464 38.2117 27.5817 38.4107 27.9259L39.4859 29.7851L40.8216 29.1967C41.1855 29.0365 41.6105 29.2015 41.7707 29.5654C41.931 29.9293 41.766 30.3543 41.4021 30.5146L39.9702 31.1452L40.1693 32.6518C40.2214 33.046 39.9441 33.4079 39.5499 33.46C39.1557 33.5121 38.7938 33.2347 38.7417 32.8405L38.5545 31.4241L36.3892 31.424C35.9916 31.424 35.6692 31.1017 35.6692 30.704C35.6693 30.3064 35.9916 29.984 36.3893 29.984L37.9375 29.984L37.1642 28.6468C36.9651 28.3026 37.0828 27.8622 37.427 27.6631ZM24.4837 30.7038C24.4837 30.3062 24.806 29.9838 25.2037 29.9838L30.7965 29.9839C31.1941 29.9839 31.5165 30.3063 31.5164 30.7039C31.5164 31.1016 31.1941 31.4239 30.7964 31.4239L25.2036 31.4238C24.806 31.4238 24.4836 31.1015 24.4837 30.7038ZM16.0987 36.1163C16.493 36.1685 16.7703 36.5303 16.7181 36.9245L16.1781 41.0088C16.126 41.403 15.7641 41.6803 15.3699 41.6282C14.9757 41.5761 14.6984 41.2142 14.7505 40.82L15.2906 36.7357C15.3427 36.3415 15.7045 36.0642 16.0987 36.1163ZM39.901 36.1166C40.2952 36.0645 40.657 36.3418 40.7091 36.736L41.2489 40.8202C41.301 41.2144 41.0236 41.5762 40.6294 41.6283C40.2352 41.6805 39.8734 41.4031 39.8213 41.0089L39.2815 36.9247C39.2294 36.5305 39.5068 36.1687 39.901 36.1166ZM15.0186 44.2849C15.4128 44.337 15.6902 44.6989 15.638 45.0931L15.368 47.1352L13.9404 46.9465L14.2105 44.9043C14.2626 44.5101 14.6244 44.2328 15.0186 44.2849ZM40.9805 44.285C41.3748 44.2329 41.7366 44.5102 41.7887 44.9044L42.0586 46.9465L40.631 47.1352L40.3611 45.0931C40.309 44.6989 40.5863 44.3371 40.9805 44.285Z" fill="#4C009F"/>
<path fill-rule="evenodd" clip-rule="evenodd" d="M13.9202 0.477534C14.092 0.181899 14.4082 0 14.7501 0H41.249C41.591 0 41.9071 0.181895 42.079 0.477524L55.4241 23.4338C55.5965 23.7302 55.5976 24.096 55.4272 24.3935L42.1785 47.5172C42.0074 47.8158 41.6896 48 41.3455 48L14.6541 47.9998C14.3099 47.9998 13.9922 47.8157 13.8211 47.5171L0.572347 24.3935C0.401899 24.096 0.403046 23.7302 0.575357 23.4338L13.9202 0.477534ZM12.2694 7.13764L5.76742 18.3225L10.7371 13.4772L12.2694 7.13764ZM11.3901 15.5222L2.60805 24.0844L15.0927 45.8743L26.5869 41.9293L11.3901 15.5222ZM29.4123 41.9293L40.9069 45.8745L53.3914 24.0844L44.6087 15.5222L29.4123 41.9293ZM43.1738 13.0116L40.4934 1.92H15.5057L12.825 13.0116L43.1738 13.0116ZM13.2654 14.9316L27.9996 40.5347L42.7334 14.9316L13.2654 14.9316ZM43.7294 7.13681L50.2323 18.3232L45.2616 13.4772L43.7294 7.13681ZM35.5912 46.08L27.9996 43.4743L20.4082 46.0799L35.5912 46.08Z" fill="#4C009F"/>
</svg>
