<svg width="52" height="48" viewBox="0 0 52 48" fill="none" xmlns="http://www.w3.org/2000/svg">
<path opacity="0.6" fill-rule="evenodd" clip-rule="evenodd" d="M10.3198 7.32567C10.5455 6.99788 10.9942 6.91513 11.322 7.14083L13.3655 8.54794C13.6933 8.77364 13.776 9.22233 13.5503 9.55011C13.3246 9.8779 12.8759 9.96065 12.5481 9.73495L10.5046 8.32784C10.1768 8.10214 10.0941 7.65345 10.3198 7.32567ZM41.6991 7.32555C41.9248 7.65329 41.8422 8.102 41.5144 8.32777L39.4717 9.73487C39.144 9.96064 38.6953 9.87797 38.4695 9.55023C38.2438 9.22249 38.3264 8.77378 38.6542 8.54801L40.6969 7.14091C41.0246 6.91514 41.4733 6.99781 41.6991 7.32555ZM16.4503 11.547C16.676 11.2192 17.1247 11.1364 17.4525 11.3621L19.3115 12.6422H22.5505C22.9485 12.6422 23.2711 12.9648 23.2711 13.3628C23.2711 13.7607 22.9485 14.0834 22.5505 14.0834H19.517L17.9755 16.7438C17.776 17.0881 17.3351 17.2055 16.9908 17.006C16.6464 16.8065 16.529 16.3656 16.7285 16.0212L18.1399 13.5853L16.6352 12.5492C16.3074 12.3235 16.2246 11.8748 16.4503 11.547ZM35.571 11.5469C35.7968 11.8746 35.7141 12.3233 35.3864 12.5491L33.8924 13.5782L35.2951 16.0002C35.4945 16.3446 35.377 16.7854 35.0326 16.9849C34.6882 17.1843 34.2474 17.0668 34.0479 16.7224L32.5195 14.0834H29.4767C29.0788 14.0834 28.7561 13.7607 28.7561 13.3628C28.7561 12.9648 29.0788 12.6422 29.4767 12.6422H32.7108L34.5688 11.3622C34.8966 11.1365 35.3453 11.2191 35.571 11.5469ZM2.68421 20.4503C2.86705 20.0968 3.30183 19.9585 3.65532 20.1413L5.85814 21.2807C6.21163 21.4635 6.34998 21.8983 6.16714 22.2518C5.9843 22.6053 5.54953 22.7436 5.19604 22.5608L2.99321 21.4214C2.63972 21.2386 2.50138 20.8038 2.68421 20.4503ZM49.3389 20.4504C49.5217 20.8039 49.3833 21.2387 49.0298 21.4215L46.8261 22.5608C46.4726 22.7436 46.0378 22.6052 45.8551 22.2517C45.6723 21.8981 45.8107 21.4634 46.1642 21.2806L48.3679 20.1412C48.7214 19.9585 49.1561 20.0969 49.3389 20.4504ZM37.7835 21.7348C38.1279 21.5354 38.5688 21.6529 38.7682 21.9973L40.1531 24.3885L41.7569 23.5593C42.1104 23.3766 42.5452 23.515 42.7279 23.8685C42.9107 24.222 42.7723 24.6568 42.4188 24.8395L40.4031 25.8817L38.7772 28.7068C38.5786 29.0517 38.1381 29.1704 37.7932 28.9719C37.4482 28.7734 37.3296 28.3328 37.5281 27.9879L39.0454 25.3516L37.5211 22.7195C37.3216 22.3751 37.4391 21.9343 37.7835 21.7348ZM14.2385 21.7561C14.5828 21.9556 14.7002 22.3965 14.5007 22.7408L12.9812 25.3634L14.4917 27.9879C14.6902 28.3328 14.5715 28.7734 14.2266 28.9719C13.8817 29.1704 13.4411 29.0517 13.2426 28.7068L11.6166 25.8816L9.60168 24.8395C9.24819 24.6567 9.10985 24.2219 9.29268 23.8684C9.47552 23.5149 9.9103 23.3765 10.2638 23.5594L11.8773 24.3939L13.2537 22.0183C13.4532 21.674 13.8941 21.5566 14.2385 21.7561ZM16.9708 33.7399C17.3157 33.5414 17.7563 33.6601 17.9548 34.005L19.4922 36.6761H22.5383C22.9363 36.6761 23.2589 36.9988 23.2589 37.3967C23.2589 37.7947 22.9363 38.1173 22.5383 38.1173H19.7388L19.6232 39.864C19.5969 40.2611 19.2537 40.5617 18.8566 40.5355C18.4595 40.5092 18.1589 40.1659 18.1852 39.7688L18.3321 37.5496L16.7057 34.7239C16.5072 34.379 16.6259 33.9384 16.9708 33.7399ZM35.0489 33.7399C35.3939 33.9384 35.5126 34.379 35.314 34.7239L33.6914 37.5433L33.8371 39.7451C33.8634 40.1422 33.5628 40.4854 33.1657 40.5117C32.7685 40.538 32.4253 40.2374 32.399 39.8403L32.285 38.1173H29.4863C29.0883 38.1173 28.7657 37.7947 28.7657 37.3967C28.7657 36.9988 29.0883 36.6761 29.4863 36.6761H32.5276L34.0649 34.005C34.2635 33.6601 34.704 33.5414 35.0489 33.7399ZM33.3908 43.913C33.7879 43.8868 34.1311 44.1874 34.1574 44.5845L34.3175 47.0042C34.3438 47.4013 34.0432 47.7445 33.6461 47.7708C33.249 47.7971 32.9058 47.4965 32.8795 47.0993L32.7193 44.6797C32.6931 44.2826 32.9937 43.9393 33.3908 43.913ZM18.6315 43.9368C19.0286 43.9631 19.3292 44.3063 19.3029 44.7034L19.1428 47.1231C19.1165 47.5202 18.7733 47.8208 18.3762 47.7945C17.9791 47.7682 17.6785 47.425 17.7047 47.0279L17.8649 44.6082C17.8912 44.2111 18.2344 43.9105 18.6315 43.9368Z" fill="#4C009F"/>
<path fill-rule="evenodd" clip-rule="evenodd" d="M17.6537 0.00124218C17.4174 0.0127901 17.193 0.111202 17.0242 0.278502L10.2214 7.02126C10.1613 7.08081 10.1094 7.14803 10.0669 7.22117L2.48007 20.2863C2.4358 20.3625 2.40223 20.4445 2.38031 20.5299L0.111315 29.3684C0.0726097 29.4764 0.0535186 29.5904 0.0547429 29.7047C0.0537741 29.8729 0.0970328 30.04 0.182151 30.1883L8.47631 44.6447C8.59629 44.8539 8.79051 45.0102 9.02041 45.0828L18.1186 47.9554C18.2122 47.985 18.3098 48 18.4079 48H33.585C33.6831 48 33.7807 47.985 33.8742 47.9554L42.8764 45.1132C43.1616 45.0545 43.4168 44.8673 43.5513 44.5842L51.8107 30.1883C51.8122 30.1858 51.8136 30.1832 51.8151 30.1807C51.9768 29.9071 51.9886 29.5772 51.8637 29.2988L49.616 20.5302C49.594 20.4447 49.5604 20.3625 49.5161 20.2862L41.9259 7.22101C41.8834 7.14793 41.8315 7.08077 41.7715 7.02126L34.9687 0.278504C34.7887 0.100158 34.5457 9.60199e-05 34.2923 9.60199e-05H17.7161C17.6952 -0.000199598 17.6743 0.000188737 17.6537 0.00124218ZM49.3365 27.1785L47.7876 21.1363L40.3283 8.29641L35.5783 3.58833L36.148 8.29305L45.233 23.9628L49.3365 27.1785ZM43.38 24.5979L34.6795 9.59122H17.3364L8.62224 24.6159L17.288 39.6861H34.7031L43.38 24.5979ZM35.0055 41.6077H16.9475L11.9166 43.9821L18.556 46.0784H33.4369L40.0499 43.9905L35.0055 41.6077ZM42.289 42.9229L49.74 29.9361L44.7677 26.0395L36.6029 40.2371L42.289 42.9229ZM9.69422 42.9061L2.25624 29.942L7.2279 26.046L15.3799 40.2227L9.69422 42.9061ZM6.78698 23.9501L15.8468 8.32946L16.4195 3.58349L11.6647 8.29634L4.20852 21.1364L2.6549 27.1883L6.78698 23.9501ZM17.862 7.66962L18.5555 1.92169H33.4408L34.1369 7.66962H17.862Z" fill="#4C009F"/>
</svg>
