<svg width="46" height="48" viewBox="0 0 46 48" fill="none" xmlns="http://www.w3.org/2000/svg">
<path opacity="0.6" fill-rule="evenodd" clip-rule="evenodd" d="M4.53403 15.7427C4.66267 15.52 4.90032 15.3828 5.1575 15.3828H8.13172C8.52936 15.3828 8.85172 15.7052 8.85172 16.1028C8.85172 16.5005 8.52936 16.8228 8.13172 16.8228H6.40401L7.26829 18.3211C7.46698 18.6656 7.34881 19.1059 7.00437 19.3046C6.65992 19.5033 6.21962 19.3851 6.02093 19.0406L4.53382 16.4626C4.40532 16.2398 4.4054 15.9654 4.53403 15.7427ZM13.3602 16.1028C13.3602 15.7052 13.6825 15.3828 14.0802 15.3828H20.0286C20.4262 15.3828 20.7486 15.7052 20.7486 16.1028C20.7486 16.5005 20.4262 16.8228 20.0286 16.8228H14.0802C13.6825 16.8228 13.3602 16.5005 13.3602 16.1028ZM25.257 16.1028C25.257 15.7052 25.5794 15.3828 25.977 15.3828H31.9255C32.3231 15.3828 32.6455 15.7052 32.6455 16.1028C32.6455 16.5005 32.3231 16.8228 31.9255 16.8228H25.977C25.5794 16.8228 25.257 16.5005 25.257 16.1028ZM37.1539 16.1028C37.1539 15.7052 37.4763 15.3828 37.8739 15.3828H40.8481C41.1053 15.3828 41.343 15.52 41.4716 15.7427C41.6002 15.9654 41.6003 16.2398 41.4718 16.4626L39.9847 19.0406C39.786 19.3851 39.3457 19.5033 39.0013 19.3046C38.6568 19.1059 38.5386 18.6656 38.7373 18.3211L39.6016 16.8228H37.8739C37.4763 16.8228 37.1539 16.5005 37.1539 16.1028ZM9.25907 23.2133C9.60352 23.0147 10.0438 23.1328 10.2425 23.4773L13.2167 28.6334C13.4154 28.9779 13.2972 29.4182 12.9528 29.6168C12.6084 29.8155 12.1681 29.6974 11.9694 29.3529L8.99515 24.1968C8.79646 23.8523 8.91462 23.412 9.25907 23.2133ZM36.7465 23.2133C37.091 23.412 37.2092 23.8523 37.0105 24.1968L34.0363 29.3529C33.8376 29.6974 33.3973 29.8155 33.0528 29.6169C32.7084 29.4182 32.5902 28.9779 32.7889 28.6334L35.7631 23.4773C35.9618 23.1328 36.4021 23.0147 36.7465 23.2133ZM15.2075 33.5256C15.552 33.3269 15.9923 33.4451 16.1909 33.7896L19.1652 38.9457C19.3638 39.2901 19.2457 39.7304 18.9012 39.9291C18.5568 40.1278 18.1165 40.0097 17.9178 39.6652L14.9436 34.5091C14.7449 34.1646 14.8631 33.7243 15.2075 33.5256ZM30.7981 33.5256C31.1426 33.7243 31.2607 34.1646 31.062 34.5091L28.0878 39.6652C27.8891 40.0097 27.4488 40.1278 27.1044 39.9291C26.7599 39.7304 26.6418 39.2902 26.8405 38.9457L29.8147 33.7896C30.0134 33.4451 30.4537 33.3269 30.7981 33.5256ZM21.1559 43.8379C21.5004 43.6392 21.9407 43.7574 22.1394 44.1018L23.0028 45.5987L23.8662 44.1018C24.0649 43.7574 24.5052 43.6392 24.8497 43.8379C25.1941 44.0366 25.3123 44.4769 25.1136 44.8214L23.6265 47.3994C23.4979 47.6223 23.2601 47.7597 23.0028 47.7597C22.7455 47.7597 22.5077 47.6223 22.3791 47.3994L20.892 44.8214C20.6933 44.4769 20.8115 44.0366 21.1559 43.8379Z" fill="#4C009F"/>
<path fill-rule="evenodd" clip-rule="evenodd" d="M22.3803 0.228025C22.7386 -0.0760083 23.2643 -0.0760083 23.6225 0.228025L41.4679 15.3712C41.6398 15.5171 41.7549 15.7189 41.793 15.9412L45.5925 38.1366C45.6687 38.5817 45.4244 39.0197 45.0057 39.1888L23.3609 47.9301C23.1303 48.0233 22.8725 48.0233 22.6419 47.9301L0.997069 39.1888C0.578395 39.0197 0.334139 38.5817 0.410326 38.1366L4.20987 15.9412C4.24792 15.7189 4.36301 15.5171 4.53496 15.3712L22.3803 0.228025ZM6.04343 16.6092L3.20367 33.1981L19.381 5.29129L6.04343 16.6092ZM23.0014 2.87419L3.0227 37.3386H42.9801L23.0014 2.87419ZM39.7056 39.2586H6.29727L23.0014 46.0047L39.7056 39.2586ZM42.7992 33.1981L26.6219 5.29129L39.9594 16.6092L42.7992 33.1981Z" fill="#4C009F"/>
</svg>
