<svg width="48" height="49" viewBox="0 0 48 49" fill="none" xmlns="http://www.w3.org/2000/svg">
<path opacity="0.6" fill-rule="evenodd" clip-rule="evenodd" d="M15.7022 0.967172C15.7222 0.570022 16.0603 0.264211 16.4574 0.284123L17.4905 0.33592C17.8877 0.355832 18.1935 0.693927 18.1736 1.09108C18.1537 1.48823 17.8156 1.79404 17.4184 1.77413L16.3853 1.72233C15.9881 1.70242 15.6823 1.36432 15.7022 0.967172ZM32.2939 0.978423C32.3074 1.37144 32.0031 1.70263 31.6104 1.72233L30.5776 1.77413C30.4952 1.77826 30.4154 1.76837 30.3404 1.74656L29.8339 1.75608L30.3866 2.07402C30.7313 2.27231 30.8499 2.71247 30.6516 3.05716C30.4534 3.40184 30.0132 3.52052 29.6685 3.32224L27.5222 2.08755L27.0476 2.49198C26.745 2.74991 26.2906 2.71366 26.0326 2.41102C25.9139 2.27167 25.8575 2.10013 25.8607 1.93042H25.7208C25.3232 1.93042 25.0008 1.60806 25.0008 1.21041C25.0008 0.812767 25.3232 0.490409 25.7208 0.490409H27.4251L28.4399 0.439515C28.4419 0.439416 28.4439 0.439327 28.4458 0.439244C28.5509 0.375381 28.6738 0.337623 28.8057 0.335144L31.5608 0.283347C31.954 0.275955 32.2804 0.585403 32.2939 0.978423ZM27.4384 0.490409H27.4432V1.21041L27.4071 0.491313L27.4168 0.490824C27.424 0.490578 27.4312 0.49044 27.4384 0.490409ZM18.8016 1.12256C18.8215 0.725414 19.1596 0.419603 19.5567 0.439515L20.5651 0.49007L23.2954 0.438739C23.693 0.431264 24.0213 0.747506 24.0288 1.14508C24.0363 1.54266 23.72 1.87102 23.3225 1.8785L22.5032 1.8939C22.4318 1.91759 22.3555 1.93042 22.2761 1.93042H22.1336C22.1369 2.10002 22.0805 2.27145 21.9619 2.41076C21.7041 2.71353 21.2497 2.74999 20.9469 2.4922L20.4715 2.08742L18.3251 3.32212C17.9804 3.5204 17.5402 3.4017 17.3419 3.05701C17.1437 2.71232 17.2624 2.27216 17.607 2.07389L18.832 1.36928C18.8082 1.29155 18.7973 1.20843 18.8016 1.12256ZM22.5886 2.94436C22.8464 2.6416 23.3008 2.60514 23.6036 2.86293L23.9982 3.19888L24.3921 2.86315C24.6947 2.60522 25.1492 2.64147 25.4071 2.94411C25.665 3.24676 25.6288 3.7012 25.3261 3.95913L24.9887 4.24673L26.1488 5.74255C26.3925 6.05677 26.3354 6.50905 26.0212 6.75276C25.707 6.99646 25.2547 6.9393 25.011 6.62509L23.9985 5.31966L22.9863 6.62522C22.7426 6.93948 22.2903 6.99672 21.9761 6.75307C21.6618 6.50942 21.6046 6.05714 21.8482 5.74289L23.008 4.24706L22.67 3.95935C22.3673 3.70155 22.3308 3.24713 22.5886 2.94436ZM13.4179 5.31418C13.6162 5.65887 13.4975 6.09903 13.1528 6.2973L11.5575 7.21498L12.4838 7.85285C12.8114 8.07837 12.894 8.52669 12.6685 8.8542C12.443 9.18172 11.9947 9.2644 11.6672 9.03889L10.4413 8.19481L9.0995 10.5055C8.89981 10.8494 8.45917 10.9663 8.11529 10.7666C7.77142 10.5669 7.65453 10.1263 7.85422 9.78242L8.90236 7.97745C8.53468 7.97104 8.22577 7.68525 8.19776 7.31129C8.16807 6.91475 8.46546 6.56922 8.86199 6.53953L9.99064 6.45501L12.4348 5.04907C12.7795 4.8508 13.2197 4.96949 13.4179 5.31418ZM34.5758 5.31454C34.7741 4.96986 35.2142 4.85118 35.5589 5.04946L38.002 6.45484L39.1335 6.53952C39.5301 6.5692 39.8275 6.91472 39.7978 7.31125C39.7698 7.6849 39.4614 7.97052 39.0942 7.97743L40.1427 9.78229C40.3424 10.1261 40.2256 10.5668 39.8817 10.7665C39.5379 10.9663 39.0972 10.8495 38.8975 10.5056L37.5551 8.19485L36.3299 9.03882C36.0024 9.26439 35.5541 9.18178 35.3285 8.8543C35.1029 8.52682 35.1855 8.07849 35.513 7.85292L36.4375 7.21613L34.8409 6.29768C34.4962 6.09939 34.3775 5.65923 34.5758 5.31454ZM40.9472 7.39727C40.9769 7.00074 41.3224 6.70333 41.7189 6.73301L43.0116 6.82975C43.4082 6.85943 43.7056 7.20495 43.6759 7.60149C43.6462 7.99802 43.3007 8.29543 42.9042 8.26575L41.6115 8.16901C41.2149 8.13933 40.9175 7.79381 40.9472 7.39727ZM7.04987 7.39724C7.07956 7.79378 6.78217 8.13931 6.38564 8.169L5.09369 8.26575C4.69715 8.29544 4.35162 7.99805 4.32193 7.60152C4.29224 7.20498 4.58962 6.85945 4.98616 6.82976L6.27811 6.73301C6.67464 6.70332 7.02017 7.0007 7.04987 7.39724ZM28.3017 9.69309C28.6159 9.44939 29.0682 9.50655 29.3119 9.82076L30.4764 11.3222L31.7817 10.4231C32.1092 10.1975 32.5575 10.2801 32.7831 10.6076C33.0087 10.9351 32.9261 11.3834 32.5986 11.609L31.2804 12.517L32.5329 14.6798C32.7322 15.0239 32.6148 15.4644 32.2707 15.6637C31.9266 15.8629 31.4861 15.7455 31.2868 15.4014L30.2148 13.5505L29.2935 14.6462C29.0376 14.9506 28.5834 14.9899 28.2791 14.7339C27.9747 14.478 27.9355 14.0238 28.1914 13.7195L29.3992 12.283L28.174 10.7033C27.9303 10.3891 27.9875 9.9368 28.3017 9.69309ZM19.6961 9.69372C20.0104 9.93737 20.0676 10.3896 19.824 10.7039L18.5991 12.2837L19.8063 13.7194C20.0622 14.0237 20.0229 14.4779 19.7186 14.7338C19.4142 14.9897 18.96 14.9505 18.7041 14.6461L17.7827 13.5503L16.71 15.4015C16.5107 15.7455 16.0701 15.8628 15.7261 15.6635C15.382 15.4641 15.2647 15.0236 15.4641 14.6795L16.7175 12.5164L15.3998 11.6091C15.0723 11.3835 14.9896 10.9352 15.2151 10.6077C15.4406 10.2802 15.889 10.1975 16.2165 10.423L17.5224 11.3223L18.686 9.82156C18.9296 9.50731 19.3819 9.45007 19.6961 9.69372ZM47.0437 13.4427C47.4114 13.5939 47.5869 14.0147 47.4356 14.3825L46.9229 15.6287C46.7717 15.9964 46.3509 16.1719 45.9832 16.0206C45.6154 15.8694 45.4399 15.4486 45.5912 15.0809L46.1039 13.8346C46.2551 13.4669 46.6759 13.2914 47.0437 13.4427ZM0.951879 13.4429C1.31955 13.2915 1.74039 13.4667 1.89187 13.8344L2.40529 15.0806C2.55677 15.4483 2.3815 15.8691 2.01384 16.0206C1.64617 16.1721 1.22532 15.9968 1.07385 15.6292L0.560421 14.3829C0.408949 14.0152 0.58421 13.5944 0.951879 13.4429ZM42.6244 15.4877C42.9682 15.288 43.4089 15.4048 43.6087 15.7486L44.6134 17.4782C44.793 17.1765 45.1712 17.0438 45.5057 17.1814C45.8734 17.3327 46.0489 17.7534 45.8976 18.1212L45.4395 19.2348L45.4477 22.0851C45.4488 22.4828 45.1274 22.806 44.7297 22.8072C44.3321 22.8083 44.0088 22.4869 44.0076 22.0892L44.0025 20.2746L43.0374 20.7736C42.6842 20.9562 42.2498 20.818 42.0671 20.4647C41.8845 20.1115 42.0228 19.6771 42.376 19.4945L43.7166 18.8013L42.3635 16.472C42.1638 16.1281 42.2806 15.6875 42.6244 15.4877ZM5.37375 15.4878C5.71762 15.6874 5.83451 16.1281 5.63483 16.472L4.28213 18.8014L5.62234 19.4946C5.97554 19.6773 6.11377 20.1117 5.93108 20.4649C5.74839 20.8181 5.31396 20.9564 4.96077 20.7737L3.99629 20.2748L3.9908 22.0893C3.9896 22.487 3.66627 22.8084 3.26863 22.8072C2.87098 22.806 2.5496 22.4826 2.5508 22.085L2.55941 19.2351L2.1007 18.1216C1.94923 17.754 2.12449 17.3331 2.49216 17.1816C2.82678 17.0438 3.20545 17.1766 3.38501 17.4787L4.38955 15.7488C4.58923 15.405 5.02988 15.2881 5.37375 15.4878ZM21.9545 17.393C22.2589 17.1371 22.713 17.1764 22.969 17.4807L23.9989 18.7056L25.0285 17.4811C25.2844 17.1767 25.7386 17.1374 26.043 17.3933C26.3474 17.6493 26.3866 18.1034 26.1307 18.4078L24.8742 19.9022L25.3819 20.7814C25.5808 21.1258 25.4629 21.5662 25.1185 21.765C24.7742 21.9639 24.3338 21.846 24.135 21.5016L23.9983 21.2651L23.8616 21.5015C23.6626 21.8458 23.2222 21.9636 22.878 21.7646C22.5337 21.5656 22.4159 21.1252 22.6149 20.7809L23.1231 19.9016L21.8668 18.4075C21.6109 18.1031 21.6501 17.6489 21.9545 17.393ZM13.2744 19.8944C13.6185 20.0937 13.7358 20.5343 13.5364 20.8783L12.4586 22.7385L13.8686 23.0072C14.2593 23.0816 14.5156 23.4586 14.4412 23.8492C14.3667 24.2399 13.9897 24.4962 13.5991 24.4217L11.7699 24.0732L11.0232 25.8962C10.8725 26.2642 10.452 26.4403 10.084 26.2896C9.71603 26.1389 9.53992 25.7184 9.69064 25.3504L10.4106 23.5926L8.98417 22.8548C8.63098 22.6721 8.49275 22.2376 8.67544 21.8845C8.85813 21.5313 9.29256 21.393 9.64575 21.5757L11.0478 22.3009L12.2905 20.1564C12.4899 19.8123 12.9304 19.695 13.2744 19.8944ZM34.721 19.8946C35.0651 19.6953 35.5056 19.8127 35.7049 20.1568L36.947 22.3016L38.3512 21.5755C38.7045 21.3929 39.1389 21.5312 39.3215 21.8844C39.5042 22.2376 39.3659 22.672 39.0126 22.8547L37.584 23.5934L38.3039 25.3507C38.4546 25.7187 38.2785 26.1392 37.9105 26.2899C37.5426 26.4407 37.1221 26.2646 36.9713 25.8966L36.2246 24.0736L34.3956 24.4219C34.005 24.4963 33.628 24.24 33.5536 23.8494C33.4792 23.4588 33.7356 23.0818 34.1262 23.0074L35.5361 22.7388L34.4588 20.8785C34.2595 20.5344 34.3769 20.0939 34.721 19.8946ZM22.0767 23.1507C22.421 23.3497 22.5388 23.7901 22.3398 24.1344L22.2034 24.3704L22.4766 24.3704C22.8743 24.3704 23.1967 24.6927 23.1967 25.0903C23.1967 25.488 22.8744 25.8104 22.4767 25.8104L21.4615 25.8105L20.8075 27.6232C20.6726 27.9972 20.2599 28.191 19.8859 28.0561C19.5118 27.9211 19.318 27.5085 19.453 27.1344L19.9922 25.6399L18.4135 25.3391C18.0229 25.2647 17.7666 24.8877 17.841 24.4971C17.9154 24.1064 18.2924 23.8501 18.6831 23.9245L20.588 24.2875L21.0931 23.4137C21.2921 23.0695 21.7325 22.9517 22.0767 23.1507ZM25.9188 23.1507C26.2632 22.9518 26.7035 23.0697 26.9024 23.4141L27.4067 24.2873L29.3124 23.9243C29.703 23.8499 30.08 24.1062 30.1544 24.4969C30.2288 24.8875 29.9725 25.2645 29.5818 25.3389L28.0038 25.6395L28.5431 27.1349C28.678 27.509 28.4841 27.9216 28.1101 28.0565C27.736 28.1914 27.3234 27.9975 27.1885 27.6235L26.5345 25.8101L25.5191 25.8102C25.1214 25.8102 24.7991 25.4879 24.799 25.0902C24.799 24.6926 25.1213 24.3702 25.519 24.3702L25.7917 24.3702L25.6554 24.1343C25.4566 23.7899 25.5745 23.3496 25.9188 23.1507ZM0.824772 26.6355C1.1697 26.4376 1.60972 26.5568 1.80757 26.9018L2.53242 28.1654L2.53271 28.0721C2.53391 27.6745 2.85724 27.3531 3.25488 27.3543C3.65253 27.3555 3.97391 27.6788 3.97271 28.0765L3.96515 30.5783L4.55894 30.8124C4.92888 30.9582 5.11056 31.3764 4.96473 31.7463C4.8189 32.1163 4.40078 32.2979 4.03084 32.1521L2.97961 31.7377C2.70375 31.629 2.52276 31.3622 2.52366 31.0657L2.52379 31.0228C2.49742 30.9911 2.47342 30.9567 2.4522 30.9197L0.558465 27.6183C0.36061 27.2733 0.47984 26.8333 0.824772 26.6355ZM47.1715 26.6355C47.5165 26.8333 47.6357 27.2733 47.4378 27.6183L45.5441 30.9197C45.5231 30.9564 45.4993 30.9905 45.4732 31.0219L45.4734 31.0662C45.4742 31.3627 45.2932 31.6294 45.0174 31.7381L43.9662 32.1525C43.5962 32.2983 43.1781 32.1166 43.0323 31.7467C42.8865 31.3768 43.0681 30.9586 43.4381 30.8128L44.032 30.5787L44.0248 28.0766C44.0237 27.679 44.3451 27.3557 44.7427 27.3546C45.1404 27.3534 45.4637 27.6748 45.4648 28.0725L45.4651 28.1634L46.1887 26.9018C46.3866 26.5568 46.8266 26.4376 47.1715 26.6355ZM8.69033 29.6921C9.05831 29.8429 9.23442 30.2634 9.0837 30.6313L8.46224 32.1486L10.1057 32.3935C10.499 32.4521 10.7703 32.8185 10.7117 33.2118C10.6531 33.6051 10.2867 33.8764 9.89342 33.8178L8.03649 33.541L7.96715 33.9362C7.89844 34.3279 7.52522 34.5897 7.13355 34.521C6.74189 34.4522 6.48009 34.079 6.54881 33.6874L6.63786 33.1798L6.13329 32.9809C5.76335 32.8351 5.58168 32.4169 5.72751 32.047C5.87334 31.6771 6.29146 31.4954 6.6614 31.6412L7.05101 31.7948L7.75114 30.0855C7.90186 29.7175 8.32235 29.5414 8.69033 29.6921ZM39.3043 29.6924C39.6723 29.5416 40.0928 29.7177 40.2435 30.0857L40.9441 31.796L41.3356 31.6416C41.7056 31.4958 42.1237 31.6774 42.2695 32.0474C42.4153 32.4173 42.2337 32.8354 41.8637 32.9813L41.359 33.1802L41.4479 33.6878C41.5165 34.0795 41.2546 34.4527 40.863 34.5213C40.4713 34.5899 40.0981 34.328 40.0295 33.9363L39.9603 33.5414L38.1034 33.818C37.7101 33.8766 37.3438 33.6053 37.2852 33.212C37.2266 32.8187 37.498 32.4523 37.8913 32.3937L39.5326 32.1492L38.9109 30.6316C38.7602 30.2636 38.9363 29.8431 39.3043 29.6924ZM18.7228 31.2798C19.0968 31.4147 19.2906 31.8273 19.1557 32.2014L18.6777 33.5261L20.8254 33.5261C21.223 33.5261 21.5454 33.8485 21.5454 34.2461C21.5454 34.6438 21.223 34.9661 20.8254 34.9661L18.3265 34.9662L18.2248 36.5036C18.1986 36.9004 17.8557 37.2008 17.4589 37.1746C17.0621 37.1483 16.7617 36.8054 16.788 36.4086L16.8903 34.8605L14.9954 34.5781C14.6021 34.5195 14.3308 34.1532 14.3894 33.7598C14.448 33.3665 14.8143 33.0952 15.2076 33.1538L17.1754 33.4471L17.8011 31.7127C17.9361 31.3386 18.3487 31.1448 18.7228 31.2798ZM29.2726 31.2802C29.6467 31.1452 30.0593 31.3391 30.1942 31.7132L30.8196 33.4472L32.7891 33.1538C33.1824 33.0952 33.5487 33.3666 33.6073 33.7599C33.6659 34.1532 33.3946 34.5195 33.0013 34.5781L31.1063 34.8604L31.2088 36.4085C31.235 36.8053 30.9347 37.1482 30.5379 37.1745C30.1411 37.2007 29.7982 36.9004 29.7719 36.5036L29.6701 34.966L27.1712 34.9661C26.7735 34.9661 26.4512 34.6437 26.4512 34.2461C26.4512 33.8484 26.7735 33.5261 27.1712 33.5261L29.3172 33.526L28.8396 32.2017C28.7047 31.8277 28.8986 31.4151 29.2726 31.2802ZM7.00121 35.2753C7.39288 35.344 7.65468 35.7172 7.58596 36.1089L7.48226 36.6999L9.64264 37.9516C9.98671 38.151 10.104 38.5915 9.90467 38.9356C9.70532 39.2796 9.26479 39.3969 8.92072 39.1976L8.83053 39.1453L9.38251 40.1076C9.58037 40.4526 9.46114 40.8926 9.11621 41.0904C8.77128 41.2883 8.33126 41.1691 8.13341 40.8241L6.34407 37.7047L6.32523 37.6938C6.06387 37.5423 5.92482 37.2439 5.97702 36.9463L6.16761 35.86C6.23633 35.4683 6.60955 35.2065 7.00121 35.2753ZM40.995 35.2753C41.3867 35.2067 41.7599 35.4686 41.8285 35.8603L42.0188 36.9465C42.0709 37.244 41.9318 37.5423 41.6706 37.6937L41.6525 37.7042L39.8629 40.8241C39.665 41.1691 39.225 41.2883 38.8801 41.0904C38.5352 40.8926 38.4159 40.4526 38.6138 40.1076L39.1659 39.1452L39.0754 39.1976C38.7314 39.3969 38.2909 39.2796 38.0915 38.9356C37.8921 38.5915 38.0094 38.151 38.3534 37.9516L40.5136 36.6998L40.4101 36.1088C40.3415 35.7171 40.6034 35.3439 40.995 35.2753ZM30.7353 40.1576C31.1321 40.1314 31.475 40.4317 31.5013 40.8285L31.571 41.882L33.1632 40.9593C33.5073 40.7599 33.9478 40.8772 34.1472 41.2212C34.3466 41.5653 34.2293 42.0058 33.8852 42.2052L31.411 43.639L30.7176 44.5282C30.4731 44.8418 30.0207 44.8978 29.7071 44.6533C29.4447 44.4487 29.3627 44.0987 29.4861 43.8061H27.4639C27.0662 43.8061 26.7439 43.4837 26.7439 43.0861C26.7439 42.6884 27.0662 42.3661 27.4639 42.3661H30.1599L30.0644 40.9236C30.0382 40.5268 30.3385 40.1839 30.7353 40.1576ZM17.2617 40.1577C17.6585 40.1839 17.9589 40.5268 17.9327 40.9236L17.8373 42.3661H20.5334C20.931 42.3661 21.2534 42.6884 21.2534 43.0861C21.2534 43.4837 20.931 43.8061 20.5334 43.8061H18.5112C18.6346 44.0987 18.5525 44.4487 18.2902 44.6533C17.9766 44.8978 17.5241 44.8418 17.2796 44.5282L16.5863 43.639L14.1117 42.2052C13.7676 42.0059 13.6503 41.5654 13.8497 41.2213C14.049 40.8772 14.4896 40.7599 14.8336 40.9593L16.4262 41.882L16.4958 40.8286C16.522 40.4318 16.8649 40.1314 17.2617 40.1577ZM18.9633 45.5166C19.2769 45.2721 19.7293 45.3281 19.9738 45.6416L20.7531 46.6411C20.9976 46.9547 20.9416 47.4071 20.628 47.6516C20.3144 47.8961 19.862 47.8401 19.6175 47.5265L18.8382 46.5271C18.5937 46.2135 18.6497 45.7611 18.9633 45.5166ZM29.034 45.5166C29.3476 45.7611 29.4036 46.2135 29.1591 46.5271L28.3798 47.5265C28.1353 47.8401 27.6828 47.8961 27.3693 47.6516C27.0557 47.4071 26.9997 46.9547 27.2442 46.6411L28.0235 45.6416C28.268 45.3281 28.7204 45.2721 29.034 45.5166Z" fill="#4C009F"/>
<path fill-rule="evenodd" clip-rule="evenodd" d="M32.0842 0.188472C31.9368 0.0962646 31.7626 0.0429693 31.5759 0.0429693C31.5752 0.0429686 31.5745 0.0429685 31.5738 0.0429693H16.4229C16.2549 0.0429693 16.0899 0.0870188 15.9444 0.17072L4.56109 6.71546C4.41527 6.7993 4.29404 6.91998 4.20953 7.06541L0.397684 13.6257C0.313105 13.7713 0.268292 13.9365 0.26774 14.1048L0.224615 27.2562C0.224088 27.4167 0.263815 27.5748 0.340162 27.716L2.39996 31.5252C2.40378 31.5323 2.40768 31.5393 2.41168 31.5462L5.85483 37.5489C5.85924 37.5566 5.86375 37.5642 5.86836 37.5717L7.91555 40.9225C8.01354 41.1038 8.16273 41.2418 8.33646 41.3269L19.7048 47.9136C19.8511 47.9984 20.0171 48.043 20.1861 48.043H27.8128C27.9819 48.043 28.1479 47.9983 28.2941 47.9136L39.68 41.3158C39.8319 41.2377 39.9644 41.1182 40.0592 40.9631L42.1311 37.5717C42.1358 37.5642 42.1403 37.5566 42.1447 37.5489L45.5878 31.5462C45.5894 31.5435 45.591 31.5407 45.5925 31.5379C45.5949 31.5337 45.5972 31.5295 45.5995 31.5252L47.6593 27.7164C47.7478 27.5527 47.7843 27.3732 47.7729 27.1981L47.7306 14.1483C47.7387 13.9539 47.688 13.7574 47.5783 13.5877L43.8159 7.11264C43.7233 6.92997 43.5764 6.78582 43.4012 6.69512L32.0842 0.188472ZM30.7241 1.96299H17.274L16.6582 7.06333L31.3417 7.06305L30.7241 1.96299ZM31.0936 8.98307L16.9094 8.98334L20.2267 18.9225H27.7758L31.0936 8.98307ZM29.716 19.1741L40.1964 21.4785L42.7897 11.8927L33.0481 9.19171L29.716 19.1741ZM44.4521 13.1L45.8117 14.4983L45.8467 25.2815L41.9769 22.2493L44.4521 13.1ZM39.3992 23.2691L28.9477 20.9711L25.1758 27.5089L32.2958 35.6222L39.3992 23.2691ZM41.1641 24.0516L33.811 36.8388L38.8701 39.2265L40.4858 36.582L43.9163 30.6014L45.5851 27.5157L41.1641 24.0516ZM37.1738 40.549L32.6675 38.4223L25.7886 45.4573L27.694 46.0423L37.1738 40.549ZM24.0008 44.5394L16.8478 37.2275L24.0005 29.0805L31.1502 37.2277L24.0008 44.5394ZM24.0005 25.704L26.8053 20.8425H21.1957L24.0005 25.704ZM19.0532 20.971L22.8252 27.509L15.7029 35.6214L8.59923 23.2693L19.0532 20.971ZM18.2864 19.1737L14.9548 9.19165L5.2099 11.8927L7.80292 21.4785L18.2864 19.1737ZM6.02223 22.2486L3.5474 13.0998L2.18647 14.4992L2.15111 25.2823L6.02223 22.2486ZM2.41439 27.5153L4.08314 30.6013L7.51371 36.5821L9.13049 39.2283L14.1883 36.8392L6.83428 24.0516L2.41439 27.5153ZM15.3312 38.4228L10.8265 40.5507L20.305 46.0424L22.2127 45.4572L15.3312 38.4228ZM5.40601 9.84597L5.86112 8.18275L15.2401 2.79036L14.6993 7.27006L5.40601 9.84597ZM42.1388 8.18403L32.7584 2.79081L33.3007 7.2693L42.5935 9.84583L42.1388 8.18403Z" fill="#4C009F"/>
</svg>
