<svg width="103" height="80" viewBox="0 0 103 80" fill="none" xmlns="http://www.w3.org/2000/svg">
<path d="M13.6443 67.1178C-4.65512 48.6235 -1.63309 25.2343 12.217 11.2949C26.0672 -2.64444 50.4538 -7.22913 70.7338 18.4517L27.9167 59.961C39.1403 67.6682 51.414 65.0659 60.7431 55.667C66.4718 50.1949 70.406 43.5743 70.7338 35.628H82.1517C83.3142 46.2994 78.5926 57.8201 69.3065 67.1178C54.5092 82.0115 31.8001 85.3952 13.6443 67.1178ZM52.1797 19.8831C42.133 11.0191 29.915 13.5061 22.2077 21.3144C14.5004 29.1228 11.3733 39.964 19.3532 51.3729L52.1797 19.8831Z" fill="#E3E0E5"/>
<path d="M92.1424 80C97.5404 80 102.133 75.419 102.133 69.9805C102.133 64.542 97.5404 59.961 92.1424 59.961C86.7443 59.961 82.1517 64.542 82.1517 69.9805C82.1517 75.419 86.7443 80 92.1424 80Z" fill="#E3E0E5"/>
<mask id="mask0_2951_90151" style="mask-type:alpha" maskUnits="userSpaceOnUse" x="0" y="0" width="103" height="80">
<path d="M13.6443 67.1178C-4.65512 48.6235 -1.63309 25.2343 12.217 11.2949C26.0672 -2.64444 50.4538 -7.22913 70.7338 18.4517L27.9167 59.961C39.1403 67.6682 51.414 65.0659 60.7431 55.667C66.4718 50.1949 70.406 43.5743 70.7338 35.628H82.1517C83.3142 46.2994 78.5926 57.8201 69.3065 67.1178C54.5092 82.0115 31.8001 85.3952 13.6443 67.1178ZM52.1797 19.8831C42.133 11.0191 29.915 13.5061 22.2077 21.3144C14.5004 29.1228 11.3733 39.964 19.3532 51.3729L52.1797 19.8831Z" fill="#00D0F2"/>
<path d="M92.1424 80C97.5404 80 102.133 75.419 102.133 69.9805C102.133 64.542 97.5404 59.961 92.1424 59.961C86.7443 59.961 82.1517 64.542 82.1517 69.9805C82.1517 75.419 86.7443 80 92.1424 80Z" fill="#00D0F2"/>
</mask>
<g mask="url(#mask0_2951_90151)">
<rect x="1.20312" y="23.9688" width="101.266" height="56.0338" fill="#4C009F"/>
</g>
</svg>
