<svg width="82" height="88" viewBox="0 0 82 88" fill="none" xmlns="http://www.w3.org/2000/svg">
<path d="M72.2463 51.7681L69.528 51.2834C69.6826 50.4247 69.7986 49.5502 69.8724 48.6839L72.6239 48.9177C72.5418 49.8731 72.4158 50.8242 72.2463 51.7681ZM69.9753 46.0632C69.9691 45.1891 69.9226 44.3157 69.8358 43.4459L72.5832 43.1736C72.6777 44.1189 72.7295 45.0849 72.7364 46.0433L69.9753 46.0632ZM69.4541 40.854C69.2861 39.9965 69.0781 39.1472 68.8308 38.3089L71.4801 37.5327C71.75 38.4464 71.9806 39.3869 72.1642 40.3274L69.4541 40.854ZM67.9721 35.8346C67.6459 35.0232 67.2824 34.2271 66.8828 33.4489L69.3409 32.1956C69.7794 33.0492 70.1779 33.9226 70.5351 34.8129L67.9721 35.8346ZM65.5768 31.174C65.1058 30.4361 64.6014 29.7199 64.0651 29.0276L66.2491 27.346C66.8379 28.1045 67.3914 28.8896 67.9079 29.6986L65.5768 31.174ZM62.3587 27.0291C61.7602 26.3889 61.1325 25.7764 60.4777 25.1934L62.318 23.144C63.0353 23.7829 63.723 24.4539 64.3792 25.1549L62.3587 27.0291ZM58.4365 23.5373C57.7309 23.0164 57.0019 22.5278 56.2518 22.0729L57.6862 19.723C58.5088 20.2214 59.308 20.7571 60.0815 21.3283L58.4365 23.5373ZM53.9407 20.8134C53.1518 20.429 52.3456 20.0808 51.5247 19.7698L52.5049 17.1992C53.4051 17.54 54.2891 17.9218 55.1542 18.3432L53.9407 20.8134ZM49.0232 18.9516C48.1771 18.7172 47.3207 18.5213 46.4567 18.3645L46.9516 15.6585C47.8939 15.8297 48.8402 16.0456 49.7631 16.302L49.0232 18.9516ZM43.8467 18.0125C42.9716 17.9345 42.0933 17.8956 41.2147 17.8956V15.1456C42.1762 15.1456 43.1454 15.1889 44.0938 15.2735L43.8467 18.0125ZM12.4962 59.1979C12.0931 58.3262 11.731 57.4363 11.4111 56.5311L14.0155 55.6181C14.3054 56.4396 14.6381 57.2571 15.004 58.047L12.4962 59.1979ZM10.5813 53.7756C10.348 52.8444 10.1587 51.9029 10.0139 50.9541L12.744 50.5402C12.8745 51.4009 13.0484 52.2651 13.2603 53.1087L10.5813 53.7756ZM9.71227 48.0941C9.65581 47.1372 9.64383 46.1783 9.67638 45.2203L12.4361 45.3117C12.4067 46.1863 12.4175 47.0617 12.4686 47.9352L9.71227 48.0941ZM12.6453 42.6979L9.90624 42.3521C10.027 41.4006 10.1941 40.447 10.4032 39.5161L13.0974 40.1163C12.9066 40.9694 12.7558 41.8308 12.6453 42.6979ZM41.214 77.4111C40.8737 77.4111 40.5348 77.4056 40.1972 77.3953L40.2835 74.6467C41.1919 74.6735 42.0962 74.6611 42.9169 74.613L43.084 77.3575C42.4855 77.3932 41.8739 77.4111 41.214 77.4111ZM37.3194 77.1767C36.3645 77.0604 35.4153 76.9012 34.4748 76.6996L35.0553 74.0114C35.9126 74.195 36.7872 74.3414 37.6549 74.4473L37.3194 77.1767ZM31.6819 75.9653C30.7635 75.6781 29.8588 75.3493 28.9705 74.9801L30.0328 72.4426C30.8432 72.7787 31.6757 73.0813 32.5088 73.3418L31.6819 75.9653ZM26.3605 73.7529C25.5333 73.3171 24.726 72.8448 23.9411 72.3374L25.4445 70.0308C26.1604 70.4939 26.8968 70.925 27.6513 71.3226L26.3605 73.7529Z" fill="#4C009F"/>
<path d="M21.5085 42.4744C9.64807 42.4744 0 32.9471 0 21.2362C0 9.52669 9.64807 0 21.5085 0C33.3682 0 43.0163 9.52669 43.0163 21.2362C43.0163 32.9471 33.3675 42.4744 21.5085 42.4744ZM21.5085 2.75C11.1708 2.75 2.76113 11.0433 2.76113 21.2362C2.76113 31.4304 11.1715 39.7244 21.5085 39.7244C31.8455 39.7244 40.2552 31.4304 40.2552 21.2362C40.2552 11.0433 31.8455 2.75 21.5085 2.75Z" fill="#4C009F"/>
<path d="M21.5085 26.2061C17.734 26.2061 14.6644 23.1708 14.6644 19.4397C14.6644 15.7087 17.734 12.6734 21.5085 12.6734C25.2823 12.6734 28.352 15.7087 28.352 19.4397C28.352 23.1708 25.2816 26.2061 21.5085 26.2061ZM21.5085 15.4234C19.2568 15.4234 17.4255 17.2253 17.4255 19.4397C17.4255 21.6549 19.2568 23.4561 21.5085 23.4561C23.7595 23.4561 25.5908 21.6542 25.5908 19.4397C25.5908 17.2253 23.7588 15.4234 21.5085 15.4234Z" fill="#4C009F"/>
<path d="M21.5092 36.3914C17.6081 36.3967 13.8515 34.9214 11.0038 32.2658L10.5655 31.8581V30.822C10.5655 27.0909 13.6365 24.0556 17.411 24.0556H25.6053C29.3791 24.0556 32.4495 27.0909 32.4509 30.8213V31.8581L32.0125 32.2658C29.1652 34.9207 25.4096 36.3959 21.5092 36.3914ZM13.3307 30.6488C15.6121 32.5846 18.5121 33.646 21.5092 33.6421C24.5209 33.6421 27.4021 32.5834 29.687 30.6488C29.5931 28.5147 27.7984 26.8063 25.606 26.8063H17.411C15.218 26.8056 13.4232 28.5141 13.3307 30.6488Z" fill="#4C009F"/>
<path d="M61.5587 88C50.2871 88 41.1173 78.9449 41.1173 67.8157C41.1173 56.6857 50.2871 47.63 61.5587 47.63C72.8303 47.63 82 56.6857 82 67.8157C82 78.9449 72.8303 88 61.5587 88ZM61.5587 50.3793C51.8098 50.3793 43.8785 58.201 43.8785 67.815C43.8785 77.429 51.8098 85.25 61.5587 85.25C71.3075 85.25 79.2389 77.429 79.2389 67.8157C79.2389 58.201 71.3075 50.3793 61.5587 50.3793Z" fill="#4C009F"/>
<path d="M61.5587 72.8482C57.7331 72.8482 54.6207 69.7702 54.6207 65.9876C54.6207 62.2043 57.7331 59.1271 61.5587 59.1271C65.3863 59.1277 68.5002 62.2057 68.5002 65.9876C68.5002 69.7696 65.3863 72.8482 61.5587 72.8482ZM61.5587 61.8771C59.2559 61.8771 57.3818 63.7216 57.3818 65.9876C57.3818 68.2536 59.2559 70.0982 61.5587 70.0982C63.8635 70.0982 65.739 68.2543 65.739 65.9876C65.739 63.7223 63.8635 61.8777 61.5587 61.8771Z" fill="#4C009F"/>
<path d="M72.6688 83.8977H69.9076V77.5665C69.9076 75.3005 68.0335 73.4573 65.7294 73.4573H57.3914C55.0866 73.4573 53.2118 75.3005 53.2118 77.5665V83.8977H50.4507V77.5665C50.4507 73.7846 53.5645 70.7073 57.3914 70.7073H65.7294C69.5556 70.7073 72.6688 73.7846 72.6688 77.5665V83.8977Z" fill="#4C009F"/>
<path d="M28.7323 46.2289H31.4934V57.0866H28.7323V46.2289Z" fill="#4C009F"/>
<path d="M24.6099 50.2844H35.6117V53.0344H24.6099V50.2844Z" fill="#4C009F"/>
<path d="M72.4534 3.93731H75.2145V16.5103H72.4534V3.93731Z" fill="#4C009F"/>
<path d="M67.4661 8.8495H80.206V11.5995H67.4661V8.8495Z" fill="#4C009F"/>
<path d="M19.3624 76.1069C13.8305 76.1069 9.32985 71.6602 9.32985 66.1952C9.32985 60.731 13.8312 56.2849 19.3624 56.2849C24.893 56.2849 29.3922 60.731 29.3922 66.1952C29.3929 71.6602 24.893 76.1069 19.3624 76.1069ZM19.3624 59.0349C15.3526 59.0349 12.091 62.2469 12.091 66.1952C12.091 70.1442 15.3533 73.3569 19.3624 73.3569C23.3709 73.3569 26.6311 70.1442 26.6311 66.1952C26.6318 62.2469 23.3709 59.0349 19.3624 59.0349Z" fill="#4C009F"/>
</svg>
