<svg width="44" height="45" viewBox="0 0 44 45" fill="none" xmlns="http://www.w3.org/2000/svg">
<g clip-path="url(#clip0_3505_127876)">
<path d="M43.9168 8.43897H39.4762V7.06397H42.5418V4.27684C42.5418 2.89428 41.4023 1.76919 40.0015 1.76919V0.394531C42.1603 0.394531 43.9168 2.13631 43.9168 4.27719V8.43897ZM33.9515 44.3945H32.1678C14.2106 44.3918 4.6891 44.3911 3.86857 44.3945L3.86307 43.0195C4.68532 43.0161 14.2089 43.0168 32.1681 43.0195H33.8707C35.1368 42.8563 36.0862 41.7948 36.0862 40.5353L36.0645 39.3139H36.0862V4.27684C36.0862 3.33772 36.4234 2.47009 36.9906 1.79428C32.9423 1.79566 24.353 1.79497 11.3248 1.79256L9.62397 1.79222C8.36379 1.95447 7.41813 3.01631 7.41813 4.27684V36.2397H6.04313V4.27684C6.04313 2.30475 7.53122 0.647188 9.50435 0.421688L9.58238 0.417219L11.3252 0.417562C29.2837 0.421344 38.8042 0.420656 39.6241 0.417219L39.7052 1.78775C38.4258 1.93419 37.4612 3.00428 37.4612 4.27684V40.6889H37.4574C37.3773 42.5978 35.9136 44.1694 33.9903 44.3904L33.9515 44.3945Z" fill="#F58A1F"/>
<path d="M3.62278 44.3949L3.54475 44.3908C1.57128 44.1652 0.08284 42.5073 0.08284 40.5356V38.2428H31.5016V40.5356C31.5016 41.8078 32.4661 42.8779 33.7449 43.0243L33.6645 44.3949C32.4266 44.3901 11.617 44.3935 5.3649 44.3949H3.62278ZM1.45784 39.6181V40.5359C1.45784 41.7961 2.4035 42.8583 3.66403 43.0202H5.36421C10.417 43.0188 24.9724 43.0168 31.031 43.0182C30.4465 42.3232 30.1261 41.4441 30.1266 40.5359V39.6181H1.45784ZM43.9171 8.21828H42.5421V4.27719C42.5421 2.89463 41.4026 1.76953 40.0018 1.76953C38.6007 1.76953 37.4608 2.89428 37.4608 4.27719H36.0858C36.0858 2.13631 37.8424 0.394531 40.0018 0.394531C42.1606 0.394531 43.9171 2.13631 43.9171 4.27719V8.21828Z" fill="#F58A1F"/>
<path d="M33.8528 44.3945C31.9027 44.3945 30.1266 42.5548 30.1266 40.5353V37.9492H31.5016V40.5353C31.5016 41.8123 32.6442 43.0195 33.8528 43.0195V44.3945Z" fill="#F58A1F"/>
<path d="M30.8804 36.2989L27.9194 34.276L24.9576 36.2989V30.1465H26.3326V33.6947L27.9194 32.6112L29.5054 33.6947V30.1465H30.8804V36.2989Z" fill="#4C009F"/>
<path d="M27.9201 31.8118C25.8067 31.8118 24.0872 30.1065 24.0872 28.011C24.0872 25.9162 25.8067 24.2129 27.9201 24.2129C30.0327 24.2129 31.7515 25.9162 31.7515 28.011C31.7512 30.1068 30.0324 31.8118 27.9201 31.8118ZM27.9201 25.5882C26.565 25.5882 25.4622 26.6752 25.4622 28.0113C25.4622 29.3489 26.565 30.4372 27.9201 30.4372C29.2744 30.4372 30.3765 29.3489 30.3765 28.0113C30.3762 26.6752 29.2744 25.5882 27.9201 25.5882Z" fill="#4C009F"/>
<path d="M27.2319 27.2158H28.6069V28.9995H27.2319V27.2158Z" fill="#4C009F"/>
<path d="M15.3 6.86328H26.9091V8.23828H15.3V6.86328ZM11.3279 11.3451H30.8815V12.7201H11.3279V11.3451ZM11.3279 15.7561H30.8815V17.1311H11.3279V15.7561ZM11.3279 20.1674H30.8815V21.5424H11.3279V20.1674ZM11.3279 24.5781H22.9512V25.9531H11.3279V24.5781ZM11.3279 28.9884H19.0468V30.3634H11.3279V28.9884Z" fill="#F58A1F"/>
</g>
<defs>
<clipPath id="clip0_3505_127876">
<rect width="44" height="44" fill="white" transform="translate(0 0.394531)"/>
</clipPath>
</defs>
</svg>
