<svg width="40" height="40" viewBox="0 0 40 40" fill="none" xmlns="http://www.w3.org/2000/svg">
<path fill-rule="evenodd" clip-rule="evenodd" d="M20.0004 38.5506C10.8435 36.9342 6.60794 30.867 4.67492 26.3968C3.71794 24.1837 3.46849 21.6881 3.42826 19.0413L3.23135 6.08469L20.0004 1.48142L36.7695 6.08469L36.5726 19.0413C36.5323 21.6881 36.2829 24.1837 35.3259 26.3968C33.3929 30.867 29.1573 36.9342 20.0004 38.5506ZM38.2147 5L38.001 19.063C37.96 21.7615 37.7083 24.4866 36.6371 26.9638C34.571 31.7418 29.9606 38.34 20.0004 40C10.0403 38.34 5.42981 31.7418 3.36369 26.9638C2.29253 24.4866 2.04086 21.7615 1.99985 19.063L1.78613 5L20.0004 0L38.2147 5Z" fill="black"/>
<path fill-rule="evenodd" clip-rule="evenodd" d="M19.9996 34.2645C12.9922 33.0044 9.75058 28.3522 8.26277 24.9054C7.53648 23.2228 7.34128 21.3108 7.3099 19.2422L7.15905 9.29852L19.9996 5.76737L32.8401 9.29852L32.6893 19.2422C32.6579 21.3108 32.4627 23.2228 31.7364 24.9054C30.2486 28.3522 27.0069 33.0044 19.9996 34.2645ZM34.2853 8.21434L34.1177 19.2638C34.0855 21.3841 33.8881 23.5253 33.048 25.4716C31.4275 29.2257 27.8115 34.41 19.9996 35.7143C12.1877 34.41 8.57166 29.2257 6.95117 25.4716C6.11104 23.5253 5.91366 21.3841 5.88149 19.2638L5.71387 8.21434L19.9996 4.28577L34.2853 8.21434Z" fill="black"/>
<path fill-rule="evenodd" clip-rule="evenodd" d="M24.0525 17.3225L24.002 16.2302C23.9234 14.5297 22.2236 12.857 19.7337 12.857C17.175 12.857 15.4624 14.6136 15.4624 16.3652C15.4624 16.4995 15.4716 16.6314 15.4893 16.7606L15.682 18.1616L14.2831 18.3685C12.4964 18.6327 11.4286 19.9051 11.4286 21.1256C11.4286 22.4814 12.7806 23.9285 14.9107 23.9285H24.3995C25.5969 23.9285 26.3755 23.8517 26.925 23.4836C27.717 22.953 28.2143 22.0721 28.2143 20.8611C28.2143 19.4161 27.0427 17.985 25.12 17.559L24.0525 17.3225ZM14.0741 16.9553C14.0475 16.7618 14.0338 16.5649 14.0338 16.3652C14.0338 13.6387 16.5857 11.4285 19.7337 11.4285C22.804 11.4285 25.3073 13.531 25.429 16.1643C27.852 16.7011 29.6429 18.6004 29.6429 20.8611C29.6429 22.5055 28.9425 23.8515 27.7201 24.6704C26.7622 25.3121 25.5524 25.357 24.3995 25.357H14.9107C12.1986 25.357 10 23.4625 10 21.1256C10 19.0344 11.7605 17.2974 14.0741 16.9553Z" fill="black"/>
<path d="M21.0713 18.0358C21.0713 18.7261 20.5116 19.2858 19.8213 19.2858C19.1309 19.2858 18.5713 18.7261 18.5713 18.0358C18.5713 17.3454 19.1309 16.7858 19.8213 16.7858C20.5116 16.7858 21.0713 17.3454 21.0713 18.0358Z" fill="black"/>
<path d="M19.3749 18.5715L20.2677 18.5715L20.7141 21.7858H18.9284L19.3749 18.5715Z" fill="black"/>
</svg>
