<svg width="40" height="40" viewBox="0 0 40 40" fill="none" xmlns="http://www.w3.org/2000/svg">
<g clip-path="url(#clip0_3766_110206)">
<path fill-rule="evenodd" clip-rule="evenodd" d="M0 40V0H40V40H0ZM1.44444 1.42857H38.5556V12.8571H1.44444V1.42857ZM1.44444 25.7143H38.5556V14.2857H1.44444V25.7143ZM38.5556 38.5714H1.44444V27.1429H38.5556V38.5714Z" fill="#F58A1F"/>
<path fill-rule="evenodd" clip-rule="evenodd" d="M32 40V0H40V40H32ZM33.4444 1.42857H38.5556V12.8571H33.4444V1.42857ZM33.4444 25.7143H38.5556V14.2857H33.4444V25.7143ZM38.5556 38.5714H33.4444V27.1429H38.5556V38.5714Z" fill="#F58A1F"/>
<path fill-rule="evenodd" clip-rule="evenodd" d="M0 40V0H8V40H0ZM1.44444 1.42857H6.55556V12.8571H1.44444V1.42857ZM1.44444 25.7143H6.55556V14.2857H1.44444V25.7143ZM6.55556 38.5714H1.44444V27.1429H6.55556V38.5714Z" fill="#F58A1F"/>
<path d="M11 7C11 6.44772 11.4908 6 12.0962 6H15.75C16.3554 6 16.8462 6.44772 16.8462 7C16.8462 7.55228 16.3554 8 15.75 8H12.0962C11.4908 8 11 7.55228 11 7Z" fill="#4C009F"/>
<path fill-rule="evenodd" clip-rule="evenodd" d="M12.0962 6C11.4908 6 11 6.44772 11 7C11 7.55228 11.4908 8 12.0962 8H15.75C16.3554 8 16.8462 7.55228 16.8462 7C16.8462 6.44772 16.3554 6 15.75 6H12.0962Z" fill="#4C009F"/>
<path d="M30 7C30 7.55228 29.5092 8 28.9038 8C28.2985 8 27.8077 7.55228 27.8077 7C27.8077 6.44772 28.2985 6 28.9038 6C29.5092 6 30 6.44772 30 7Z" fill="#4C009F"/>
<path d="M26.3462 7C26.3462 7.55228 25.8554 8 25.25 8C24.6446 8 24.1538 7.55228 24.1538 7C24.1538 6.44772 24.6446 6 25.25 6C25.8554 6 26.3462 6.44772 26.3462 7Z" fill="#4C009F"/>
<path d="M22.6923 7C22.6923 7.55228 22.2015 8 21.5962 8C20.9908 8 20.5 7.55228 20.5 7C20.5 6.44772 20.9908 6 21.5962 6C22.2015 6 22.6923 6.44772 22.6923 7Z" fill="#4C009F"/>
<path d="M11 20C11 19.4477 11.4908 19 12.0962 19H15.75C16.3554 19 16.8462 19.4477 16.8462 20C16.8462 20.5523 16.3554 21 15.75 21H12.0962C11.4908 21 11 20.5523 11 20Z" fill="#4C009F"/>
<path fill-rule="evenodd" clip-rule="evenodd" d="M12.0962 19C11.4908 19 11 19.4477 11 20C11 20.5523 11.4908 21 12.0962 21H15.75C16.3554 21 16.8462 20.5523 16.8462 20C16.8462 19.4477 16.3554 19 15.75 19H12.0962Z" fill="#4C009F"/>
<path d="M30 20C30 20.5523 29.5092 21 28.9038 21C28.2985 21 27.8077 20.5523 27.8077 20C27.8077 19.4477 28.2985 19 28.9038 19C29.5092 19 30 19.4477 30 20Z" fill="#4C009F"/>
<path d="M26.3462 20C26.3462 20.5523 25.8554 21 25.25 21C24.6446 21 24.1538 20.5523 24.1538 20C24.1538 19.4477 24.6446 19 25.25 19C25.8554 19 26.3462 19.4477 26.3462 20Z" fill="#4C009F"/>
<path d="M22.6923 20C22.6923 20.5523 22.2015 21 21.5962 21C20.9908 21 20.5 20.5523 20.5 20C20.5 19.4477 20.9908 19 21.5962 19C22.2015 19 22.6923 19.4477 22.6923 20Z" fill="#4C009F"/>
<path d="M11 33C11 32.4477 11.4908 32 12.0962 32H15.75C16.3554 32 16.8462 32.4477 16.8462 33C16.8462 33.5523 16.3554 34 15.75 34H12.0962C11.4908 34 11 33.5523 11 33Z" fill="#4C009F"/>
<path fill-rule="evenodd" clip-rule="evenodd" d="M12.0962 32C11.4908 32 11 32.4477 11 33C11 33.5523 11.4908 34 12.0962 34H15.75C16.3554 34 16.8462 33.5523 16.8462 33C16.8462 32.4477 16.3554 32 15.75 32H12.0962Z" fill="#4C009F"/>
<path d="M30 33C30 33.5523 29.5092 34 28.9038 34C28.2985 34 27.8077 33.5523 27.8077 33C27.8077 32.4477 28.2985 32 28.9038 32C29.5092 32 30 32.4477 30 33Z" fill="#4C009F"/>
<path d="M26.3462 33C26.3462 33.5523 25.8554 34 25.25 34C24.6446 34 24.1538 33.5523 24.1538 33C24.1538 32.4477 24.6446 32 25.25 32C25.8554 32 26.3462 32.4477 26.3462 33Z" fill="#4C009F"/>
<path d="M22.6923 33C22.6923 33.5523 22.2015 34 21.5962 34C20.9908 34 20.5 33.5523 20.5 33C20.5 32.4477 20.9908 32 21.5962 32C22.2015 32 22.6923 32.4477 22.6923 33Z" fill="#4C009F"/>
</g>
<defs>
<clipPath id="clip0_3766_110206">
<rect width="40" height="40" fill="white"/>
</clipPath>
</defs>
</svg>
