<svg width="40" height="40" viewBox="0 0 40 40" fill="none" xmlns="http://www.w3.org/2000/svg">
<g clip-path="url(#clip0_3517_126108)">
<path fill-rule="evenodd" clip-rule="evenodd" d="M40 9.24107H38.5714H1.42857H0V7.8125H1.42857H38.5714H40V9.24107Z" fill="black"/>
<path fill-rule="evenodd" clip-rule="evenodd" d="M9.64286 6.74107H8.21429V5.3125H9.64286V6.74107Z" fill="black"/>
<path fill-rule="evenodd" clip-rule="evenodd" d="M6.78571 6.74107H5.35714V5.3125H6.78571V6.74107Z" fill="black"/>
<path fill-rule="evenodd" clip-rule="evenodd" d="M3.92857 6.74107H2.5V5.3125H3.92857V6.74107Z" fill="black"/>
<path d="M1.42857 4.24107H38.5714V7.8125H40V2.8125H0V7.8125H1.42857V4.24107Z" fill="black"/>
<path d="M0 9.24107V31.3839H25.7143V29.9554H1.42857V9.24107H0Z" fill="black"/>
<path d="M40 21.7411V9.24107H38.5714V21.7411H40Z" fill="black"/>
<path fill-rule="evenodd" clip-rule="evenodd" d="M19.8214 26.3601C16.6356 25.726 15.1525 23.5621 14.4497 21.9017C14.1293 21.1444 14.0301 20.2504 14.0143 19.1922L13.9448 14.5161L19.8214 12.8677L25.6981 14.5161L25.6285 19.1922C25.6128 20.2504 25.5136 21.1444 25.1931 21.9017C24.4904 23.5621 23.0073 25.726 19.8214 26.3601ZM27.1429 13.4376L27.057 19.2135C27.0405 20.3218 26.9393 21.441 26.5087 22.4584C25.6782 24.4208 23.825 27.1308 19.8214 27.8126C15.8178 27.1308 13.9646 24.4208 13.1341 22.4584C12.7036 21.441 12.6024 20.3218 12.5859 19.2135L12.5 13.4376L19.8214 11.384L27.1429 13.4376Z" fill="black"/>
<path fill-rule="evenodd" clip-rule="evenodd" d="M23.4195 17.1816L19.3532 22.3733L16.7162 20.4093L17.5695 19.2636L19.0883 20.3947L22.2948 16.3007L23.4195 17.1816Z" fill="black"/>
<path fill-rule="evenodd" clip-rule="evenodd" d="M38.5711 28.5267H28.5711V35.6695H38.5711V28.5267ZM27.1426 27.0981V37.0981H39.9997V27.0981H27.1426Z" fill="black"/>
<path fill-rule="evenodd" clip-rule="evenodd" d="M28.9283 26.3838C28.9283 23.8196 31.007 21.741 33.5711 21.741C36.1353 21.741 38.214 23.8196 38.214 26.3838V28.1695H36.7854V26.3838C36.7854 24.6086 35.3463 23.1695 33.5711 23.1695C31.7959 23.1695 30.3569 24.6086 30.3569 26.3838V28.1695H28.9283V26.3838Z" fill="black"/>
<path d="M34.5882 31.0888C34.5882 31.6162 34.1607 32.0438 33.6333 32.0438C33.1058 32.0438 32.6783 31.6162 32.6783 31.0888C32.6783 30.5614 33.1058 30.1338 33.6333 30.1338C34.1607 30.1338 34.5882 30.5614 34.5882 31.0888Z" fill="black"/>
<path d="M33.3149 31.0888L33.9516 31.0888L34.2699 33.9537H32.9966L33.3149 31.0888Z" fill="black"/>
</g>
<defs>
<clipPath id="clip0_3517_126108">
<rect width="40" height="40" fill="white"/>
</clipPath>
</defs>
</svg>
