<svg width="40" height="40" viewBox="0 0 40 40" fill="none" xmlns="http://www.w3.org/2000/svg">
<path d="M20.0005 32.1894C19.7677 32.1894 19.5374 32.1828 19.3087 32.1697L19.3793 30.9184C19.774 30.9406 20.1784 30.9413 20.5755 30.9206L20.6424 32.1719C20.4299 32.1831 20.2162 32.1891 20.0005 32.1894ZM21.9693 32.0259L21.7621 30.7903C22.1543 30.7244 22.5462 30.6359 22.9268 30.5266L23.2724 31.7306C22.8462 31.8534 22.4077 31.9525 21.9693 32.0259ZM17.9809 32.0172C17.5437 31.9422 17.1055 31.8413 16.679 31.7166L17.0293 30.5138C17.4109 30.6247 17.8027 30.7153 18.1937 30.7825L17.9809 32.0172ZM24.5343 31.2903L24.0546 30.1328C24.4199 29.9816 24.7818 29.8069 25.1299 29.6147L25.7362 30.7109C25.3468 30.9263 24.9424 31.1209 24.5343 31.2903ZM15.4193 31.2709C15.0109 31.0997 14.6068 30.9031 14.2184 30.6866L14.829 29.5922C15.1765 29.7863 15.538 29.9625 15.9034 30.1153L15.4193 31.2709ZM26.8665 30.0013L26.1421 28.9791C26.4659 28.7497 26.7809 28.4991 27.078 28.2347L27.9109 29.1706C27.579 29.4659 27.2277 29.7453 26.8665 30.0013ZM13.0909 29.9716C12.7312 29.7141 12.3812 29.4334 12.0502 29.1369L12.8862 28.2041C13.1827 28.4697 13.4968 28.7216 13.8196 28.9525L13.0909 29.9716ZM28.8577 28.2306L27.9271 27.3913C28.1937 27.0963 28.4465 26.7828 28.6793 26.4603L29.6955 27.1931C29.4362 27.5528 29.154 27.9019 28.8577 28.2306ZM11.1074 28.1931C10.8115 27.8619 10.5312 27.5122 10.274 27.1525L11.2934 26.4238C11.524 26.7466 11.7755 27.0606 12.0415 27.3575L11.1074 28.1931ZM30.4162 26.0709L29.3262 25.4528C29.5224 25.1066 29.7018 24.7456 29.8587 24.3809L31.0096 24.8763C30.8343 25.2828 30.6349 25.6847 30.4162 26.0709ZM9.55867 26.0275C9.3418 25.6409 9.14398 25.2388 8.97023 24.8309L10.123 24.3403C10.279 24.7063 10.4565 25.0675 10.6512 25.4144L9.55867 26.0275ZM31.4687 23.6241L30.2709 23.2569C30.3871 22.8769 30.4843 22.4859 30.5587 22.095L31.7896 22.33C31.7065 22.7656 31.5984 23.2009 31.4687 23.6241ZM8.51555 23.5772C8.38773 23.1544 8.28148 22.7188 8.20023 22.2819L9.4318 22.0519C9.50523 22.4441 9.60055 22.8353 9.71523 23.2147L8.51555 23.5772ZM31.9684 21.0094L30.7196 20.9091C30.744 20.6072 30.7562 20.3013 30.7562 20C30.7559 19.9044 30.7546 19.8069 30.7524 19.71L32.0046 19.6797C32.0074 19.7856 32.0087 19.8916 32.009 19.9981C32.009 20.3347 31.9952 20.6741 31.9684 21.0094ZM8.02711 20.9606C8.00273 20.6428 7.99023 20.3194 7.99023 20C7.99023 19.8759 7.99211 19.7525 7.99586 19.6291L9.24836 19.6669C9.24492 19.7775 9.24336 19.8884 9.24336 20C9.24336 20.2878 9.25461 20.5788 9.27617 20.865L8.02711 20.9606ZM30.658 18.5172C30.6052 18.1209 30.5302 17.725 30.4355 17.3403L31.6527 17.0416C31.7577 17.4697 31.8412 17.9103 31.8999 18.3506L30.658 18.5172ZM9.34711 18.4728L8.10586 18.3022C8.16617 17.8628 8.25117 17.4225 8.35836 16.9934L9.57398 17.2972C9.47773 17.6822 9.40148 18.0778 9.34711 18.4728ZM30.0874 16.1959C29.9505 15.8219 29.7921 15.4516 29.6162 15.0953L30.7396 14.5403C30.9355 14.9369 31.1118 15.3491 31.2646 15.7656L30.0874 16.1959ZM9.92711 16.1534L8.7518 15.7191C8.90555 15.3031 9.08398 14.8913 9.28211 14.4947L10.4027 15.0547C10.2252 15.4103 10.0649 15.7803 9.92711 16.1534ZM29.0287 14.0538C28.8152 13.7194 28.5802 13.3925 28.3309 13.0819L29.3074 12.2966C29.5859 12.6425 29.8474 13.0066 30.0849 13.3794L29.0287 14.0538ZM10.9955 14.0147L9.94211 13.3359C10.1824 12.9634 10.4455 12.6 10.7246 12.2559L11.6977 13.045C11.4474 13.3541 11.2109 13.6803 10.9955 14.0147ZM27.5309 12.1919C27.2502 11.9116 26.9499 11.6434 26.639 11.3953L27.4209 10.4166C27.7674 10.6934 28.1024 10.9925 28.4162 11.3053L27.5309 12.1919ZM12.5018 12.1588L11.6209 11.2678C11.9368 10.9553 12.2727 10.6578 12.6199 10.3834L13.3971 11.3659C13.0862 11.6119 12.7849 11.8784 12.5018 12.1588ZM25.6649 10.7016C25.3284 10.4891 24.9768 10.2941 24.6202 10.1213L25.1665 8.99376C25.5646 9.18688 25.9574 9.40469 26.3334 9.64219L25.6649 10.7016ZM14.374 10.6766L13.7099 9.61407C14.0865 9.37907 14.4796 9.16251 14.8793 8.97063L15.4212 10.1006C15.063 10.2722 14.7109 10.4659 14.374 10.6766ZM23.5174 9.66157C23.1427 9.53001 22.7565 9.41813 22.3699 9.32969L22.649 8.10813C23.0821 8.20719 23.514 8.33188 23.9327 8.47938L23.5174 9.66157ZM16.5252 9.64657L16.1146 8.46282C16.5337 8.31751 16.9659 8.19438 17.3993 8.09719L17.6737 9.32001C17.2862 9.40688 16.8996 9.51688 16.5252 9.64657ZM21.1924 9.13032C20.4205 9.04344 19.6234 9.04219 18.8515 9.12501L18.7174 7.87938C19.5799 7.78657 20.4693 7.78813 21.3318 7.88501L21.1924 9.13032Z" fill="#F58A1F"/>
<path d="M19.9397 20.5963C19.831 20.5963 19.7225 20.5675 19.625 20.5116L13.0707 16.7056C12.8782 16.5941 12.7594 16.3881 12.7588 16.1653C12.7585 15.9428 12.876 15.7363 13.0682 15.6238L19.665 11.7544C19.8594 11.64 20.101 11.6394 20.2966 11.7531L26.8525 15.5594C27.045 15.6709 27.1638 15.8772 27.1644 16.0997C27.165 16.3225 27.0469 16.5291 26.855 16.6413L20.2563 20.51C20.1588 20.5672 20.0491 20.5963 19.9397 20.5963ZM14.6282 16.1613L19.9382 19.2441L25.295 16.1031L19.9841 13.0197L14.6282 16.1613Z" fill="#4C009F"/>
<path d="M20.0166 28.3313C19.9104 28.3313 19.8038 28.3041 19.7082 28.2497C19.5135 28.1397 19.3926 27.9344 19.3904 27.7107L19.3135 19.9757C19.3113 19.751 19.4294 19.5425 19.6232 19.4288L26.2216 15.56C26.4144 15.4469 26.6529 15.445 26.8473 15.5553C27.0416 15.6653 27.1629 15.871 27.1651 16.0944L27.2413 23.8282C27.2435 24.0528 27.1254 24.2613 26.9316 24.375L20.3335 28.2453C20.2357 28.3025 20.1263 28.3313 20.0166 28.3313ZM20.5698 20.3266L20.6323 26.6175L25.9841 23.4782L25.9226 17.1882L20.5698 20.3266Z" fill="#4C009F"/>
<path d="M20.0226 28.3312C20.0204 28.3312 20.0185 28.3312 20.0163 28.3312C19.9076 28.3312 19.7991 28.3031 19.7016 28.2465L13.146 24.44C12.9548 24.329 12.8363 24.1256 12.8341 23.9043L12.7588 16.17C12.7566 15.945 12.8754 15.7356 13.0701 15.6225C13.2648 15.509 13.5051 15.509 13.7001 15.6222L20.2544 19.4275C20.4454 19.5384 20.5638 19.7418 20.566 19.9628L20.6419 27.6093C20.6466 27.6403 20.6488 27.6718 20.6488 27.7043C20.6488 28.0509 20.3688 28.3312 20.0226 28.3312ZM14.0835 23.5353L19.3788 26.6103L19.3166 20.3322L14.0226 17.2584L14.0835 23.5353Z" fill="#4C009F"/>
<path d="M22.76 4.3475L20.2356 1.78531L17.7121 4.3475L16.8193 3.46844L20.2356 0L23.6525 3.46812L22.76 4.3475Z" fill="#F58A1F"/>
<path d="M20.8625 1.48938H19.6094V6.59375H20.8625V1.48938Z" fill="#F58A1F"/>
<path d="M7.49043 10.5841L6.2373 10.5837L6.23918 5.69218L11.0651 5.69031L11.0654 6.94343L7.49199 6.94468L7.49043 10.5841Z" fill="#F58A1F"/>
<path d="M11.2803 9.90895L7.72754 6.30103L6.83491 7.18L10.3876 10.7879L11.2803 9.90895Z" fill="#F58A1F"/>
<path d="M3.71086 23.2159L0.310547 19.7591L3.71086 16.3025L4.60398 17.1809L2.06805 19.7591L4.60398 22.3372L3.71086 23.2159Z" fill="#F58A1F"/>
<path d="M6.80137 19.1322H1.77637V20.385H6.80137V19.1322Z" fill="#F58A1F"/>
<path d="M10.7295 33.9688L5.90391 33.9663L5.90234 29.0757L7.15547 29.0751L7.15641 32.7144L10.7302 32.716L10.7295 33.9688Z" fill="#F58A1F"/>
<path d="M10.9459 29.746L10.0527 28.8676L6.50116 32.4784L7.39429 33.3569L10.9459 29.746Z" fill="#F58A1F"/>
<path d="M28.9332 34.3091L28.9326 33.056L32.5061 33.0544L32.5073 29.4156L33.7604 29.4163L33.7586 34.3069L28.9332 34.3091Z" fill="#F58A1F"/>
<path d="M33.166 32.8197L29.6123 29.2123L28.7198 30.0915L32.2735 33.6989L33.166 32.8197Z" fill="#F58A1F"/>
<path d="M36.2877 23.6968L35.3945 22.8187L37.9311 20.2409L35.3945 17.6624L36.2877 16.7837L39.6886 20.2409L36.2877 23.6968Z" fill="#F58A1F"/>
<path d="M38.2216 19.615H33.1963V20.8681H38.2216V19.615Z" fill="#F58A1F"/>
<path d="M19.7626 40L16.3457 36.5319L17.2382 35.6528L19.7626 38.2147L22.287 35.6528L23.1795 36.5319L19.7626 40Z" fill="#F58A1F"/>
<path d="M20.3886 33.4062H19.1357V38.5112H20.3886V33.4062Z" fill="#F58A1F"/>
<path d="M32.8426 10.9246L32.8413 7.28557L29.2676 7.2837L29.2682 6.03088L34.0935 6.03307L34.0951 10.9243L32.8426 10.9246Z" fill="#F58A1F"/>
<path d="M33.4983 7.52143L32.6055 6.64258L29.0528 10.252L29.9457 11.1308L33.4983 7.52143Z" fill="#F58A1F"/>
</svg>
