<svg width="40" height="40" viewBox="0 0 40 40" fill="none" xmlns="http://www.w3.org/2000/svg">
<path d="M27.3415 40.0001L27.1678 39.9498C23.2043 38.8029 18.6553 36.7188 18.6553 30.7341V23.4232L19.3753 23.5345C20.3793 23.6898 21.4984 23.6645 22.6012 23.461C24.3559 23.1373 25.9253 22.4057 26.9056 21.4532L27.3409 21.0304L27.7762 21.4532C28.7571 22.4057 30.3256 23.1373 32.0803 23.461C33.184 23.6648 34.3025 23.6898 35.3062 23.5345L36.0262 23.4232V30.7341C36.0262 36.7185 31.4775 38.8029 27.515 39.9498L27.3415 40.0001ZM19.9046 24.8526V30.7338C19.9046 34.7638 22.1312 37.1532 27.3415 38.6988C32.5512 37.1529 34.7775 34.7635 34.7775 30.7338V24.8526C33.834 24.9263 32.8396 24.8713 31.8543 24.6895C30.0984 24.3657 28.4884 23.6641 27.3415 22.7348C26.1946 23.6641 24.5846 24.366 22.8284 24.6895C21.8431 24.8713 20.8487 24.9276 19.9046 24.8526Z" fill="#F58A1F"/>
<path d="M27.3408 35.1351C24.7043 35.1351 22.5596 33.0066 22.5596 30.3901C22.5596 27.7741 24.7043 25.6454 27.3408 25.6454C29.9771 25.6454 32.1221 27.7741 32.1221 30.3901C32.1221 33.0066 29.9771 35.1351 27.3408 35.1351ZM27.3408 26.8948C25.3933 26.8948 23.8086 28.4626 23.8086 30.3901C23.8086 32.3176 25.393 33.886 27.3408 33.886C29.2886 33.886 30.8727 32.3176 30.8727 30.3901C30.8727 28.4626 29.2886 26.8948 27.3408 26.8948Z" fill="#F58A1F"/>
<path d="M27.1121 32.3153L25.2393 31.1188L25.9121 30.0659L26.8414 30.66L28.6196 28.4503L29.5924 29.2338L27.1121 32.3153Z" fill="#4C009F"/>
<path d="M6.19156 24.7788L5.3125 23.8913L8.61094 20.625L11.9084 23.8913L11.0294 24.7788L8.61094 22.3831L6.19156 24.7788Z" fill="#4C009F"/>
<path d="M13.9868 29.3903H11.418C9.48426 29.3903 7.91113 27.8285 7.91113 25.9088V22.395H9.16051V25.9088C9.16051 27.1394 10.1733 28.141 11.418 28.141H13.9868V29.3903Z" fill="#4C009F"/>
<path d="M31.2398 19.2947L27.9414 16.0281L28.8205 15.1406L31.2398 17.5366L33.6592 15.1406L34.538 16.0281L31.2398 19.2947Z" fill="#4C009F"/>
<path d="M31.9392 17.5247H30.6902V14.011C30.6902 12.7797 29.6773 11.7782 28.4317 11.7782H25.8633V10.5288H28.4317C30.3655 10.5288 31.9392 12.0907 31.9392 14.0107V17.5247Z" fill="#4C009F"/>
<path d="M12.6791 17.7012C7.75562 17.7012 3.75 13.7309 3.75 8.85062C3.75 3.97031 7.75562 0 12.6791 0C17.6025 0 21.6078 3.97031 21.6078 8.85062C21.6078 13.7309 17.6025 17.7012 12.6791 17.7012ZM12.6791 1.24969C8.44469 1.24969 5 4.65937 5 8.85031C5 13.0412 8.445 16.4512 12.6791 16.4512C16.9131 16.4512 20.3578 13.0416 20.3578 8.85062C20.3578 4.65969 16.9131 1.24969 12.6791 1.24969Z" fill="#F58A1F"/>
<path d="M13.4323 10.4129L8.13136 10.4187L8.12539 9.16868L12.1881 9.16866L12.188 2.80634L13.4379 2.81253L13.4323 10.4129Z" fill="#4C009F"/>
</svg>
