<svg width="40" height="40" viewBox="0 0 40 40" fill="none" xmlns="http://www.w3.org/2000/svg">
<path d="M10.5177 22.8185L8.63453 16.7145H3.36328V15.4645H9.55703L10.3802 18.1332L13.1905 6.68384L16.5473 17.987L16.977 15.4645H21.3867L24.2583 6.74665L26.9302 18.3995L28.353 14.8795H36.832V16.1295H29.1958L26.5998 22.5523L24.0423 11.3979L22.2911 16.7145H18.032L17.3286 20.8432L16.1133 20.9163L13.3052 11.4607L10.5177 22.8185Z" fill="#4C009F"/>
<path d="M39.9881 27.7744H0V4.22128C0 3.2844 0.75625 2.52222 1.68625 2.52222H38.3013C39.2316 2.52222 39.9878 3.28409 39.9878 4.22128V27.7744H39.9881ZM1.25 26.5244H38.7381V4.22128C38.7381 3.97378 38.5422 3.77222 38.3016 3.77222H1.68625C1.44562 3.77222 1.25 3.97378 1.25 4.22128V26.5244Z" fill="#F58A1F"/>
<path d="M36.84 24.5891H3.14746V5.70752H36.8396V24.5891H36.84ZM4.39746 23.3391H35.5896V6.95752H4.39746V23.3391Z" fill="#F58A1F"/>
<path d="M38.3745 32.3979H1.89578C0.941094 32.3979 0.00390625 31.4248 0.00390625 30.4332V26.502H40.0005V30.4876C40.0005 31.4263 39.3923 32.3979 38.3745 32.3979ZM1.25391 27.752V30.4332C1.25391 30.7338 1.62578 31.1479 1.89578 31.1479H38.3745C38.5895 31.1479 38.7505 30.7995 38.7505 30.4876V27.752H1.25391Z" fill="#F58A1F"/>
<path d="M14.1516 37.4725L13.6494 36.3281C14.0725 36.1425 14.4063 35.984 14.59 35.8822L14.6454 35.8509C14.7232 35.8075 14.82 35.7534 14.8404 35.7328C14.8529 35.7165 14.901 35.6303 14.9813 35.2222C15.075 34.7425 15.0635 33.8803 15.0535 33.1197C15.0466 32.595 15.04 32.0994 15.0685 31.7484L16.3144 31.849C16.2907 32.1419 16.2969 32.6087 16.3035 33.1028C16.3147 33.9644 16.3266 34.855 16.2079 35.4622C16.0263 36.3878 15.8313 36.6209 15.2541 36.9425L15.1997 36.9731C14.9191 37.129 14.475 37.3306 14.1516 37.4725Z" fill="#F58A1F"/>
<path d="M25.8091 37.4778C25.4831 37.3347 25.0356 37.1313 24.7547 36.976L24.7181 36.9556C24.1063 36.6122 23.9469 36.3613 23.7716 35.4628C23.6531 34.8566 23.6644 33.9819 23.6753 33.136C23.6819 32.6485 23.6878 32.1885 23.6641 31.8947L24.9097 31.7935C24.9384 32.1456 24.9319 32.6344 24.9253 33.1522C24.9156 33.8985 24.9047 34.7441 24.9981 35.2235C25.075 35.6178 25.1181 35.7238 25.1369 35.7513C25.1553 35.7678 25.2516 35.8219 25.3294 35.8653L25.3625 35.8844C25.5434 35.9841 25.8909 36.1491 26.3122 36.3344L25.8091 37.4778Z" fill="#F58A1F"/>
<path d="M27.1701 36.2091H12.8379V37.4591H27.1701V36.2091Z" fill="#F58A1F"/>
</svg>
