<svg width="40" height="40" viewBox="0 0 40 40" fill="none" xmlns="http://www.w3.org/2000/svg">
<g clip-path="url(#clip0_3517_126099)">
<path d="M6.51207 11.7149L7.60031 11.4147L7.55983 10.2866C7.55642 10.1915 7.5547 10.096 7.5547 10C7.5547 5.36896 11.6484 1.42857 16.9369 1.42857C20.9333 1.42857 24.256 3.68583 25.6342 6.78571H27.1772C25.73 2.83968 21.692 0 16.9369 0C10.9663 0 6.12613 4.47715 6.12613 10C6.12613 10.113 6.12815 10.2256 6.13218 10.3378C2.58305 11.3168 0 14.3129 0 17.8571C0 22.1965 3.87213 25.7143 8.64865 25.7143H35.1351C37.8219 25.7143 40 23.5557 40 20.8929C40 19.7423 39.5934 18.686 38.9148 17.8571H36.6722C37.8054 18.4177 38.5714 19.572 38.5714 20.8929C38.5714 22.7546 37.0451 24.2857 35.1351 24.2857H8.64865C4.52899 24.2857 1.42857 21.2816 1.42857 17.8571C1.42857 15.0516 3.48474 12.55 6.51207 11.7149Z" fill="black"/>
<path fill-rule="evenodd" clip-rule="evenodd" d="M16.3396 25.7142V29.1964H3.48242V35.3571H2.23242V27.9464H15.0896V25.7142H16.3396ZM17.9467 25.7142H19.1967V32.0535H14.911V35.3571H13.661V30.8035H17.9467V25.7142ZM22.0539 30.8035V25.7142H20.8039V32.0535H25.0896V35.3571H26.3396V30.8035H22.0539ZM24.911 27.9464V25.7142H23.661V29.1964H36.5181V35.3571H37.7681V27.9464H24.911Z" fill="black"/>
<path fill-rule="evenodd" clip-rule="evenodd" d="M38.5714 37.1429C38.5714 36.3539 37.9318 35.7143 37.1429 35.7143C36.3539 35.7143 35.7143 36.3539 35.7143 37.1429C35.7143 37.9319 36.3539 38.5715 37.1429 38.5715C37.9318 38.5715 38.5714 37.9319 38.5714 37.1429ZM4.28571 37.1429C4.28571 36.3539 3.64612 35.7143 2.85714 35.7143C2.06816 35.7143 1.42857 36.3539 1.42857 37.1429C1.42857 37.9319 2.06816 38.5715 2.85714 38.5715C3.64612 38.5715 4.28571 37.9319 4.28571 37.1429ZM15.7143 37.1429C15.7143 36.3539 15.0747 35.7143 14.2857 35.7143C13.4967 35.7143 12.8571 36.3539 12.8571 37.1429C12.8571 37.9319 13.4967 38.5715 14.2857 38.5715C15.0747 38.5715 15.7143 37.9319 15.7143 37.1429ZM27.1429 37.1429C27.1429 36.3539 26.5033 35.7143 25.7143 35.7143C24.9253 35.7143 24.2857 36.3539 24.2857 37.1429C24.2857 37.9319 24.9253 38.5715 25.7143 38.5715C26.5033 38.5715 27.1429 37.9319 27.1429 37.1429ZM2.85714 34.2858C4.4351 34.2858 5.71429 35.565 5.71429 37.1429C5.71429 38.7209 4.4351 40.0001 2.85714 40.0001C1.27919 40.0001 0 38.7209 0 37.1429C0 35.565 1.27919 34.2858 2.85714 34.2858ZM37.1429 34.2858C38.7208 34.2858 40 35.565 40 37.1429C40 38.7209 38.7208 40.0001 37.1429 40.0001C35.5649 40.0001 34.2857 38.7209 34.2857 37.1429C34.2857 35.565 35.5649 34.2858 37.1429 34.2858ZM17.1429 37.1429C17.1429 35.565 15.8637 34.2858 14.2857 34.2858C12.7078 34.2858 11.4286 35.565 11.4286 37.1429C11.4286 38.7209 12.7078 40.0001 14.2857 40.0001C15.8637 40.0001 17.1429 38.7209 17.1429 37.1429ZM25.7143 34.2858C27.2922 34.2858 28.5714 35.565 28.5714 37.1429C28.5714 38.7209 27.2922 40.0001 25.7143 40.0001C24.1363 40.0001 22.8571 38.7209 22.8571 37.1429C22.8571 35.565 24.1363 34.2858 25.7143 34.2858Z" fill="black"/>
<path fill-rule="evenodd" clip-rule="evenodd" d="M40 15.2679L17.5341 15.2679L20.4517 12.2177L19.5483 11.3537L15.2065 15.8929L19.5483 20.432L20.4517 19.568L17.5341 16.5179L40 16.5179V15.2679Z" fill="black"/>
<path fill-rule="evenodd" clip-rule="evenodd" d="M15.2061 8.12674L37.6719 8.12674L34.7544 5.07661L35.6577 4.21258L39.9995 8.75174L35.6577 13.2909L34.7544 12.4269L37.6719 9.37674L15.2061 9.37674L15.2061 8.12674Z" fill="black"/>
</g>
<defs>
<clipPath id="clip0_3517_126099">
<rect width="40" height="40" fill="white"/>
</clipPath>
</defs>
</svg>
