<svg width="278" height="56" viewBox="0 0 278 56" fill="none" xmlns="http://www.w3.org/2000/svg">
<path d="M69.5091 38.6465C61.9836 31.1163 63.4034 21.3429 69.0756 15.6628C74.7478 9.98263 85.0485 7.82729 93.349 18.2647L75.5774 36.0446C80.1758 39.1857 85.1868 38.14 89.0144 34.3099C91.4219 31.901 92.8333 28.8213 92.9155 25.6368H97.6835C98.1555 29.9695 96.2664 34.8597 92.4821 38.6465C86.4202 44.7122 76.9479 46.09 69.5091 38.6465ZM85.5468 19.132C81.4161 15.5186 76.1592 16.3855 72.9767 19.5657C69.7942 22.7458 68.845 27.9264 72.1098 32.5753L85.5468 19.132Z" fill="white"/>
<path d="M126.291 43.8503V38.2128H125.858C124.706 40.7084 120.798 43.8503 115.022 43.8503C107.54 43.8503 99.8508 38.2594 99.8508 27.3714C99.8508 16.4835 107.54 10.8925 115.022 10.8925C120.798 10.8925 124.706 14.0344 125.858 16.5301H126.291V0.0511659H132.793V43.8503H126.291ZM115.022 37.7792C120.131 37.7792 124.991 34.1824 124.991 27.3714C124.991 20.5605 120.148 16.9637 115.022 16.9637C109.895 16.9637 105.052 20.5562 105.052 27.3714C105.052 34.1867 109.977 37.7792 115.022 37.7792Z" fill="white"/>
<path d="M142.763 53.8244V48.1869C144.222 49.1617 147.036 50.3552 150.565 50.3552C156.705 50.3552 161.401 47.6438 161.401 41.6821V38.2128H160.968C159.877 40.7084 155.847 43.8503 150.131 43.8503C142.71 43.8503 134.96 38.2594 134.96 27.3714C134.96 16.4835 142.71 10.8925 150.131 10.8925C155.847 10.8925 159.877 14.0344 160.968 16.5301H161.401V10.8925H168.336V41.2484C168.336 52.9466 159.1 55.9927 151.865 55.9927C147.895 55.9927 144.464 54.9812 142.763 53.8244ZM150.131 37.7792C155.236 37.7792 160.534 34.1824 160.534 27.3714C160.534 20.5605 155.236 16.9637 150.131 16.9637C145.026 16.9637 140.162 20.5562 140.162 27.3714C140.162 34.1867 145.091 37.7792 150.131 37.7792Z" fill="white"/>
<path d="M175.272 38.6465C167.746 31.1163 169.599 21.3429 175.272 15.6628C180.944 9.98263 190.811 7.82729 199.112 18.2647L181.773 36.0446C186.376 39.1857 191.387 38.14 195.21 34.3099C197.622 31.901 199.025 28.8213 199.112 25.6368H203.446C203.918 29.9695 202.462 34.8597 198.678 38.6465C192.616 44.7122 182.706 46.09 175.272 38.6465ZM191.743 19.132C187.616 15.5186 182.355 16.3855 179.173 19.5657C175.99 22.7458 175.037 27.9264 178.306 32.5753L191.743 19.132Z" fill="white"/>
<path d="M277.133 34.3099C274.102 34.3099 272.799 33.0192 272.799 29.9734V10.8925H263.263V24.7695C262.189 22.4623 260.64 20.5 258.495 19.132C256.35 17.764 253.67 17.3974 251.126 17.3974C248.582 17.3974 246.336 17.764 244.191 19.132C242.046 20.5 240.063 22.4623 238.989 24.7695V17.3974H229.887V30.407C229.887 32.7727 228.502 34.7436 226.419 34.7436C224.336 34.7436 222.951 32.7727 222.951 30.407V17.3974H213.849V30.8407C213.849 38.9428 218.72 43.8503 226.419 43.8503C232.598 43.8503 237.11 40.3024 238.556 34.7436C239.459 37.3513 241.084 39.6387 243.324 41.2484C245.564 42.8582 248.368 43.8276 251.126 43.8503C253.884 43.8731 256.662 43.2546 258.928 41.6821C261.195 40.1096 262.75 37.7696 263.696 35.1772C265.069 41.126 269.797 43.8503 275.833 43.8503H278V34.3099H277.133ZM251.126 34.7436C250.333 34.7436 249.618 34.3171 248.959 33.8763C248.299 33.4354 247.962 32.8748 247.658 32.1417C247.355 31.4085 247.07 30.7516 247.225 29.9734C247.38 29.1951 247.964 28.3662 248.525 27.8051C249.086 27.244 249.481 26.6589 250.259 26.5041C251.037 26.3493 252.127 26.6341 252.86 26.9378C253.592 27.2415 254.153 27.579 254.594 28.2388C255.034 28.8985 255.027 29.6135 255.027 30.407C255.025 31.4704 254.911 32.6907 254.16 33.4426C253.409 34.1945 252.189 34.7413 251.126 34.7436Z" fill="white"/>
<path d="M207.781 43.8503C209.995 43.8503 212.115 42.1632 212.115 39.9474C212.115 37.7317 209.995 36.0446 207.781 36.0446C205.566 36.0446 203.88 37.7317 203.88 39.9474C203.88 42.1632 205.566 43.8503 207.781 43.8503Z" fill="white"/>
<path d="M56.072 28.2388C56.0764 23.5185 54.88 18.4964 52.6044 14.3618C50.3287 10.2271 47.0575 6.90719 43.0684 4.38772C39.0794 1.86824 34.3405 0.328076 29.6314 0.0511659C24.9223 -0.225745 20.4508 0.618486 16.1943 2.6531C11.9378 4.68771 8.10196 7.92038 5.358 11.7599C2.61403 15.5993 0.704682 20.0813 0.156558 24.7695C-0.391565 29.4578 0.539613 34.2769 2.32382 38.6465C4.10803 43.016 6.88719 46.9587 10.5594 49.9215C12.7167 51.6481 15.3604 52.805 17.9281 53.8244V54.2581H18.3616H18.795L19.2285 54.6917H19.6619C21.1812 55.1831 22.4155 55.3354 23.9965 55.559H24.4299H24.8634L25.2968 55.9927C25.4874 56.0144 25.5398 55.9797 25.7303 55.9927H26.1637H26.5972H28.7645H29.6314C33.8123 55.7647 37.6704 54.5509 41.3346 52.5234H41.7681C41.9369 52.4325 42.037 52.1851 42.2015 52.0898L42.635 51.6561H43.0684V51.2225H43.5019C47.7239 48.3881 51.3195 44.1231 53.4713 39.5138C55.154 35.8709 56.0658 32.2519 56.072 28.2388ZM43.0684 49.9215H42.635L42.2015 50.3552H41.7681L41.3346 50.7888L40.9011 51.2225C37.4392 53.1347 33.5795 54.0371 29.6314 54.2581H28.7645C28.5306 54.2581 28.1314 54.2581 27.8976 54.2581H26.1637H25.2968H24.8634H24.4299C22.9437 54.0446 21.5253 53.4155 20.0954 52.9571H19.6619H19.2285H18.795L18.3616 52.5234C15.9076 51.5466 13.4815 50.2803 11.4263 48.6206C7.42549 45.0114 5.358 40.2725 5.358 35.1772C5.35902 34.0764 5.58222 32.7887 5.79145 31.708C7.24329 36.5399 9.98085 40.8395 14.0271 43.8503C18.0733 46.8612 23.2887 48.62 28.331 48.6206C29.0151 48.6206 29.3157 48.6899 30.0648 48.6206L31.3652 48.1869C31.4104 48.1828 31.3282 48.2133 31.3652 48.1869C31.4021 48.1605 31.3467 48.2284 31.3652 48.1869C31.3837 48.1454 31.3702 48.2321 31.3652 48.1869C31.3602 48.1417 31.3923 48.2233 31.3652 48.1869L30.9317 47.3196C29.2344 45.0623 28.6874 41.64 29.6314 38.2128C31.5409 31.4105 38.4892 26.1095 44.8022 26.0705C45.0837 26.0705 45.3963 26.0358 45.6691 26.0705C47.381 26.176 48.6931 26.698 50.0037 27.8051C52.541 30.0104 53.7561 33.6761 52.6044 37.7792C52.4918 38.1734 52.3181 38.6772 52.1709 39.0801C50.1551 43.4335 47.0314 47.2205 43.0684 49.9215ZM28.331 3.08675C34.1286 3.09478 39.4028 5.48909 43.5019 9.59158C47.6009 13.6941 49.9968 19.402 50.0037 25.2032C50.0037 25.4025 50.0037 25.4332 50.0037 25.6368C49.7785 25.5112 49.3966 25.3115 49.1368 25.2032H48.7033L48.2699 24.7695H47.8364H47.4029L46.9695 24.3359H46.536C46.4148 24.3359 46.2238 24.3489 46.1026 24.3359C45.964 24.3359 45.8293 24.3445 45.6691 24.3359H45.2357C43.2503 21.4469 40.5309 19.0365 37.4335 17.3974C33.9884 15.5972 30.0503 14.7852 26.1637 14.7954C17.7464 14.7954 10.0396 18.9645 6.2249 25.6368C6.2249 25.4245 6.2249 25.4111 6.2249 25.2032C6.23292 19.4046 8.62949 13.6922 12.7267 9.59158C16.8239 5.49097 22.5361 3.09592 28.331 3.08675ZM28.7645 46.8859H28.331C23.1701 46.8851 17.9716 45.0122 14.0271 41.6821C10.0825 38.3519 7.52787 33.7628 6.65835 28.6724C9.61136 21.2159 17.4043 16.0964 26.1637 16.0964C29.7949 16.0843 33.3467 17.0187 36.5666 18.6983C39.1377 20.0433 41.2883 22.0435 43.0684 24.3359C39.8807 24.7864 36.8442 26.1428 34.3994 28.2388C31.3714 30.7047 29.4443 34.0349 28.331 37.7792C27.3914 41.163 27.4222 44.3557 28.7645 46.8859ZM54.3382 28.2388C54.3379 29.4169 54.4965 30.5405 54.3382 31.708C53.9317 29.9126 53.0626 28.2148 51.7375 26.9378C51.7851 26.3269 51.7375 25.7751 51.7375 25.2032C51.7324 20.054 50.093 14.9847 46.9695 10.8925C43.846 6.80042 39.3626 3.57933 34.3994 2.21944C40.1301 3.62006 45.0572 7.11939 48.7033 11.7599C52.3494 16.4003 54.3304 22.3358 54.3382 28.2388ZM22.6961 2.21944C17.5485 3.43451 12.9778 6.31139 9.69253 10.4589C6.40727 14.6064 4.49794 19.9109 4.49109 25.2032C4.49161 26.3763 4.7521 27.512 4.92454 28.6724C4.14844 30.7617 3.62413 32.9483 3.62418 35.1772C3.62991 36.5088 3.77549 37.7789 4.05764 39.0801C2.39643 35.476 1.81857 31.3398 1.89037 27.3714C1.96217 23.4031 2.70059 19.638 4.49109 16.0964C6.28158 12.5548 9.14093 9.39861 12.2932 6.98965C15.4456 4.58069 18.8103 3.01563 22.6961 2.21944Z" fill="white"/>
</svg>
