<svg width="40" height="40" viewBox="0 0 40 40" fill="none" xmlns="http://www.w3.org/2000/svg">
<path d="M33.5986 7.53424L32.7275 6.63727L25.4154 13.7384L26.2865 14.6354L33.5986 7.53424Z" fill="#140029"/>
<path d="M23.2729 13.7579L17.0332 10.1516L16.4077 11.2339L22.6474 14.8402L23.2729 13.7579Z" fill="#140029"/>
<path d="M13.9279 11.5314L13.0215 10.6705L5.99911 18.064L6.90549 18.9249L13.9279 11.5314Z" fill="#140029"/>
<path d="M19.1418 34.0228H17.8918V17.1728H12.1924V34.0228H10.9424V15.9228H19.1418V34.0228Z" fill="#140029"/>
<path d="M28.9425 34.0228H27.6925V21.2659H21.9932V34.0228H20.7432V20.0156H28.9425V34.0228Z" fill="#140029"/>
<path d="M38.7433 34.0228H37.4933V13.1553H31.793V34.0228H30.543V11.9053H38.7433V34.0228Z" fill="#140029"/>
<path d="M9.34129 34.0228H8.09129V26.4081H2.3916V34.0228H1.1416V25.1581H9.34129V34.0228Z" fill="#140029"/>
<path d="M40 35.8313H0V37.0813H40V35.8313Z" fill="#140029"/>
<path d="M5.05156 22.6203C3.60156 22.6203 2.42188 21.43 2.42188 19.9678C2.42188 18.5053 3.60156 17.3153 5.05156 17.3153C6.50156 17.3153 7.68125 18.5053 7.68125 19.9678C7.68125 21.43 6.50156 22.6203 5.05156 22.6203ZM5.05156 18.5653C4.29063 18.5653 3.67187 19.1944 3.67187 19.9678C3.67187 20.7413 4.29063 21.3703 5.05156 21.3703C5.8125 21.3703 6.43125 20.7409 6.43125 19.9678C6.43125 19.1947 5.8125 18.5653 5.05156 18.5653Z" fill="#140029"/>
<path d="M14.8748 12.2791C13.4248 12.2791 12.2451 11.0891 12.2451 9.62656C12.2451 8.16375 13.4248 6.97406 14.8748 6.97406C16.3248 6.97406 17.5045 8.16406 17.5045 9.62656C17.5045 11.0894 16.3248 12.2791 14.8748 12.2791ZM14.8748 8.22406C14.1139 8.22406 13.4951 8.85344 13.4951 9.62656C13.4951 10.3997 14.1139 11.0291 14.8748 11.0291C15.6357 11.0291 16.2545 10.4 16.2545 9.62656C16.2545 8.85312 15.6357 8.22406 14.8748 8.22406Z" fill="#140029"/>
<path d="M24.6971 17.9569C23.2471 17.9569 22.0674 16.7669 22.0674 15.3044C22.0674 13.8416 23.2471 12.6519 24.6971 12.6519C26.1471 12.6519 27.3268 13.8419 27.3268 15.3044C27.3268 16.7672 26.1471 17.9569 24.6971 17.9569ZM24.6971 13.9019C23.9361 13.9019 23.3174 14.5313 23.3174 15.3044C23.3174 16.0775 23.9361 16.7069 24.6971 16.7069C25.458 16.7069 26.0768 16.0778 26.0768 15.3044C26.0768 14.5309 25.458 13.9019 24.6971 13.9019Z" fill="#140029"/>
<path d="M34.7208 8.22407C33.2705 8.22407 32.0908 7.03407 32.0908 5.57125C32.0908 4.10844 33.2705 2.91844 34.7208 2.91844C36.1708 2.91844 37.3502 4.10844 37.3502 5.57125C37.3502 7.03407 36.1708 8.22407 34.7208 8.22407ZM34.7208 4.16844C33.9599 4.16844 33.3408 4.79782 33.3408 5.57125C33.3408 6.34469 33.9599 6.97407 34.7208 6.97407C35.4814 6.97407 36.1002 6.34469 36.1002 5.57125C36.1002 4.79782 35.4814 4.16844 34.7208 4.16844Z" fill="#140029"/>
</svg>
