<svg width="40" height="40" viewBox="0 0 40 40" fill="none" xmlns="http://www.w3.org/2000/svg">
<path d="M23.5624 40L20.7402 33.3819L21.8934 32.8906L23.9468 37.7062L26.9599 34.3734L31.4562 34.5312L29.7655 30.5672L30.9184 30.0759L33.3818 35.8531L27.4984 35.6462L23.5624 40Z" fill="#F58A1F"/>
<path d="M16.5195 39.9965L12.5076 35.7134L6.62793 36.0209L9.27855 29.4918L10.4398 29.9631L8.53043 34.6668L13.0242 34.4315L16.0948 37.7096L18.1295 32.6965L19.2907 33.1681L16.5195 39.9965Z" fill="#F58A1F"/>
<path d="M19.9996 34.5712C19.2855 34.5712 18.7514 34.0181 18.2808 33.5303C18.0333 33.2741 17.6946 32.9228 17.5168 32.895C17.5058 32.8934 17.4952 32.8928 17.4843 32.8928C17.2677 32.8928 16.8889 33.0947 16.5546 33.2728C16.0739 33.5287 15.5774 33.7934 15.058 33.7934C14.9102 33.7934 14.7677 33.7719 14.6343 33.7281C13.9599 33.5106 13.6258 32.8231 13.3314 32.2166C13.1749 31.8941 12.9602 31.4528 12.7952 31.3687C12.7736 31.3578 12.7074 31.3328 12.5527 31.3328C12.3333 31.3328 12.0608 31.3806 11.7721 31.4316C11.4439 31.49 11.1046 31.5497 10.7768 31.5497C10.3761 31.5497 10.0552 31.4587 9.79582 31.2712C9.22488 30.8566 9.12051 30.1031 9.02832 29.4381C8.97895 29.0809 8.91113 28.5922 8.77801 28.4597C8.64457 28.3266 8.1527 28.2594 7.79332 28.21C7.12582 28.1191 6.36957 28.0156 5.95457 27.4478C5.5402 26.8812 5.67395 26.1334 5.79176 25.4741C5.85551 25.1181 5.94238 24.6303 5.85613 24.4612C5.77238 24.2984 5.32832 24.0847 5.00363 23.9284C4.39426 23.635 3.70363 23.3022 3.48457 22.6297C3.26832 21.9672 3.62645 21.3 3.9427 20.7116C4.1152 20.3906 4.35176 19.9503 4.32145 19.7584C4.29363 19.5834 3.92676 19.2325 3.68395 19.0003C3.19363 18.5309 2.6377 17.9991 2.6377 17.2856C2.6377 16.5725 3.19332 16.0412 3.68363 15.5722C3.92645 15.3397 4.29363 14.9884 4.32176 14.8125C4.35176 14.6222 4.11551 14.1828 3.94301 13.8619C3.62613 13.2731 3.26707 12.6053 3.48488 11.9419C3.70301 11.2709 4.39301 10.9381 5.00207 10.6444C5.32676 10.4878 5.77082 10.2734 5.85551 10.1091C5.94113 9.94156 5.85395 9.45406 5.79051 9.09812C5.6727 8.43844 5.53895 7.69094 5.95332 7.12437C6.36863 6.5575 7.12457 6.45344 7.79145 6.36187C8.15113 6.3125 8.64363 6.24469 8.77769 6.11125C8.91051 5.97906 8.97801 5.49062 9.02738 5.13406C9.11957 4.46875 9.22363 3.71469 9.79488 3.30062C10.0543 3.11281 10.3755 3.02156 10.7771 3.02156C11.1046 3.02156 11.4443 3.08156 11.7727 3.13969C12.0611 3.19062 12.3339 3.23875 12.553 3.23875C12.7071 3.23875 12.7733 3.21375 12.7946 3.20281C12.9586 3.11906 13.1733 2.6775 13.3305 2.35469C13.6252 1.74812 13.9596 1.06062 14.6339 0.842812C14.7671 0.799687 14.9096 0.777812 15.0571 0.777812C15.5764 0.777812 16.0733 1.0425 16.5539 1.29875C16.9052 1.48594 17.2961 1.71031 17.5174 1.67687C17.6946 1.64906 18.0336 1.29781 18.2811 1.04156C18.7518 0.553125 19.2858 0 19.9999 0C20.7136 0 21.2474 0.552812 21.7183 1.04062C21.9658 1.29719 22.3049 1.64844 22.4836 1.67656C22.6833 1.70937 23.093 1.48562 23.4436 1.29875C23.9243 1.0425 24.4211 0.777812 24.9411 0.777812C25.0889 0.777812 25.2321 0.799687 25.3652 0.843125C26.0399 1.06094 26.3743 1.74844 26.6693 2.35531C26.8258 2.6775 27.0405 3.11875 27.2052 3.20281C27.2258 3.21344 27.2924 3.23875 27.4474 3.23875C27.6671 3.23875 27.9393 3.19062 28.2283 3.13969C28.5561 3.08156 28.8952 3.02187 29.2227 3.02187C29.6243 3.02187 29.9455 3.11312 30.2049 3.30125C30.7755 3.71469 30.8799 4.46844 30.9718 5.13344C31.0211 5.49062 31.0886 5.97937 31.2224 6.11187C31.3555 6.24469 31.8471 6.31219 32.2061 6.36125C32.8739 6.4525 33.6305 6.55656 34.0449 7.12437C34.4593 7.68969 34.3258 8.4375 34.208 9.0975C34.1446 9.45375 34.0574 9.94125 34.1439 10.1103C34.228 10.2737 34.6721 10.4878 34.9964 10.6441C35.6052 10.9372 36.2952 11.2694 36.5149 11.9416C36.7308 12.6047 36.3721 13.2712 36.0561 13.8594C35.883 14.1806 35.6464 14.6206 35.6768 14.8122C35.7049 14.9881 36.0721 15.3394 36.3149 15.5716C36.8049 16.0403 37.3608 16.5719 37.3608 17.285C37.3608 17.9991 36.8046 18.5312 36.3136 19.0006C36.0708 19.2328 35.7043 19.5834 35.6761 19.7591C35.6461 19.95 35.8827 20.39 36.0555 20.7112C36.3718 21.2997 36.7302 21.9666 36.5143 22.6291C36.2946 23.3016 35.6046 23.6344 34.9952 23.9275C34.6714 24.0837 34.2271 24.2978 34.1436 24.4609C34.0564 24.6309 34.1433 25.1191 34.2071 25.4753C34.3246 26.1341 34.4577 26.8816 34.0443 27.4478C33.6296 28.0159 32.8727 28.1194 32.2049 28.2106C31.8458 28.26 31.3539 28.3272 31.2205 28.4603C31.0874 28.5928 31.0199 29.0816 30.9702 29.4387C30.8783 30.1041 30.7739 30.8575 30.2043 31.2709C29.9443 31.4591 29.6236 31.55 29.2227 31.55C28.8949 31.55 28.5552 31.49 28.2271 31.4316C27.938 31.3806 27.6652 31.3325 27.4458 31.3325C27.2914 31.3325 27.2252 31.3578 27.2039 31.3684C27.0389 31.4525 26.8239 31.8941 26.6674 32.2162C26.3724 32.8228 26.0383 33.5103 25.3636 33.7284C25.2302 33.7719 25.0877 33.7937 24.9405 33.7937C24.4208 33.7937 23.9243 33.5287 23.4439 33.2725C23.0933 33.0856 22.7033 32.8628 22.4827 32.8947C22.303 32.9228 21.9636 33.2744 21.7158 33.5312C21.2458 34.0187 20.7127 34.5712 19.9996 34.5712ZM17.4843 31.6394C17.5611 31.6394 17.6368 31.6453 17.7108 31.6569C18.3036 31.7497 18.7505 32.2122 19.1824 32.6597C19.4352 32.9219 19.8177 33.3178 19.9996 33.3178C20.1805 33.3178 20.5618 32.9225 20.8136 32.6609C21.2464 32.2128 21.6933 31.7494 22.2886 31.6562C22.3621 31.645 22.4377 31.6391 22.5146 31.6391C23.0443 31.6391 23.5474 31.9072 24.0336 32.1666C24.3621 32.3416 24.7343 32.54 24.9405 32.54C24.9618 32.54 24.973 32.5372 24.9777 32.5356C25.1446 32.4819 25.3921 31.9722 25.5402 31.6681C25.8136 31.1062 26.0958 30.5256 26.6364 30.2506C26.8646 30.135 27.1293 30.0787 27.4461 30.0787C27.7758 30.0787 28.1164 30.1387 28.4455 30.1975C28.7333 30.2484 29.0052 30.2966 29.2227 30.2966C29.4033 30.2966 29.4593 30.2625 29.4686 30.2556C29.6055 30.1562 29.6827 29.5994 29.7289 29.2669C29.8146 28.645 29.9039 28.0022 30.3361 27.5716C30.7677 27.1422 31.4114 27.0541 32.0349 26.9687C32.3702 26.9228 32.9314 26.8459 33.0318 26.7078C33.1296 26.5741 33.0314 26.0237 32.973 25.695C32.8624 25.0753 32.7483 24.4347 33.028 23.8897C33.3033 23.3512 33.8871 23.0703 34.4514 22.7981C34.7574 22.6506 35.2693 22.4041 35.3227 22.2397C35.3727 22.0875 35.1089 21.5972 34.9514 21.3047C34.6521 20.7478 34.3427 20.1716 34.4383 19.5631C34.5324 18.9697 34.9974 18.5247 35.4474 18.0947C35.6943 17.8587 36.1074 17.4631 36.1074 17.2847C36.1074 17.1075 35.6952 16.7128 35.4486 16.4772C34.9983 16.0466 34.5327 15.6012 34.4393 15.0075C34.343 14.3987 34.6527 13.8225 34.9524 13.2656C35.1099 12.9728 35.3736 12.4831 35.3236 12.33C35.2702 12.1666 34.7583 11.92 34.4533 11.7728C33.8886 11.5009 33.3052 11.22 33.0289 10.6816C32.7496 10.1362 32.8643 9.49625 32.9746 8.87687C33.0333 8.54812 33.1314 7.99719 33.0333 7.86375C32.9324 7.72531 32.3714 7.64844 32.0364 7.60219C31.4133 7.51687 30.7689 7.42844 30.3377 6.99937C29.9052 6.56844 29.8164 5.92594 29.7308 5.30437C29.6846 4.97187 29.6077 4.415 29.4699 4.31531C29.4605 4.30875 29.4043 4.27437 29.223 4.27437C29.0055 4.27437 28.7343 4.3225 28.4464 4.37312C28.1177 4.43125 27.7774 4.49125 27.448 4.49125C27.1308 4.49125 26.8658 4.435 26.6377 4.31906C26.0974 4.04406 25.8155 3.46375 25.5424 2.9025C25.3943 2.59781 25.1468 2.08844 24.9796 2.03437C24.9708 2.03156 24.9574 2.03 24.9414 2.03C24.7349 2.03 24.3621 2.22875 24.0333 2.40375C23.5471 2.66281 23.0443 2.93094 22.5149 2.93094C22.4383 2.93094 22.3636 2.92531 22.2896 2.91375C21.6955 2.82 21.2486 2.3575 20.8168 1.91C20.5636 1.64812 20.1821 1.2525 20.0002 1.2525C19.818 1.2525 19.4355 1.64875 19.1827 1.91062C18.7508 2.35781 18.3043 2.82 17.7114 2.91375C17.1152 3.005 16.5211 2.7 15.9646 2.40344C15.6358 2.22812 15.2633 2.02969 15.0571 2.02969C15.0358 2.02969 15.0246 2.03219 15.0196 2.03375C14.853 2.0875 14.6055 2.59719 14.4577 2.90156C14.1846 3.46312 13.9024 4.04375 13.3627 4.31875C13.1343 4.43469 12.8696 4.49062 12.553 4.49062C12.2239 4.49062 11.8836 4.43062 11.5546 4.37219C11.2668 4.32125 10.9949 4.27344 10.7774 4.27344C10.5961 4.27344 10.5399 4.3075 10.5302 4.31437C10.3921 4.41437 10.3152 4.97156 10.2693 5.30406C10.1833 5.92531 10.0946 6.5675 9.66238 6.99781C9.23145 7.4275 8.58613 7.51625 7.9627 7.60187C7.62738 7.64781 7.06613 7.725 6.9652 7.86312C6.8677 7.99625 6.96613 8.54719 7.02488 8.87594C7.13551 9.495 7.24988 10.135 6.97145 10.6797C6.69426 11.2187 6.11113 11.5 5.54738 11.7719C5.24176 11.9191 4.7302 12.1656 4.67707 12.3297C4.62645 12.4837 4.89019 12.9741 5.04769 13.2669C5.34707 13.8231 5.65613 14.3984 5.56082 15.0062C5.46644 15.6003 5.00113 16.0456 4.55145 16.4762C4.30488 16.7119 3.8927 17.1069 3.8927 17.2841C3.8927 17.4622 4.30551 17.8572 4.55207 18.0931C5.00176 18.5231 5.46676 18.9684 5.56113 19.5612C5.65676 20.1706 5.34738 20.7469 5.04832 21.3031C4.89113 21.5962 4.62738 22.0862 4.67738 22.2387C4.73082 22.4034 5.24301 22.65 5.54894 22.7972C6.11269 23.0691 6.69551 23.35 6.97238 23.8869C7.25207 24.4334 7.1377 25.0734 7.02707 25.6928C6.96832 26.0216 6.86988 26.5722 6.9677 26.7059C7.06863 26.8441 7.62957 26.9209 7.96488 26.9669C8.5877 27.0519 9.23238 27.1403 9.66395 27.5697C10.0964 28.0006 10.1852 28.6431 10.2714 29.2647C10.3174 29.5975 10.3946 30.1547 10.5324 30.2547C10.5405 30.2606 10.5971 30.295 10.778 30.295C10.9955 30.295 11.2674 30.2469 11.5549 30.1959C11.8843 30.1375 12.2246 30.0778 12.5536 30.0778C12.8711 30.0778 13.1361 30.1341 13.3639 30.2497C13.9043 30.5247 14.1864 31.1056 14.4596 31.6675C14.6074 31.9716 14.8546 32.4806 15.0211 32.5341C15.0299 32.5372 15.0433 32.5384 15.0589 32.5384C15.2652 32.5384 15.6377 32.34 15.9664 32.1653C16.4514 31.9075 16.9546 31.6394 17.4843 31.6394Z" fill="#F58A1F"/>
<path d="M19.2781 17.571L15.625 10.4491L16.7397 9.87695L19.1747 14.6226L19.1322 11.3582L20.385 11.3416L20.4622 17.2766L19.2781 17.571Z" fill="#4C009F"/>
<path d="M19.9765 19.2357C18.7784 19.2357 17.8037 18.2644 17.8037 17.0703C17.8037 15.8763 18.7784 14.905 19.9765 14.905C21.1743 14.905 22.1493 15.8763 22.1493 17.0703C22.1493 18.2644 21.1743 19.2357 19.9765 19.2357ZM19.9765 16.1585C19.4693 16.1585 19.0571 16.5675 19.0571 17.0703C19.0571 17.5732 19.4696 17.9822 19.9765 17.9822C20.4834 17.9822 20.8959 17.5732 20.8959 17.0703C20.8959 16.5675 20.4834 16.1585 19.9765 16.1585Z" fill="#4C009F"/>
<path d="M20.2629 7.3844H19.0098V8.96721H20.2629V7.3844Z" fill="#4C009F"/>
<path d="M11.6883 16.6484H10.0986V17.9016H11.6883V16.6484Z" fill="#4C009F"/>
<path d="M20.6613 25.1885H19.4082V26.7707H20.6613V25.1885Z" fill="#4C009F"/>
<path d="M29.5728 16.2534H27.9834V17.5069H29.5728V16.2534Z" fill="#4C009F"/>
<path d="M19.8362 29.496C12.9596 29.496 7.36523 23.9247 7.36523 17.0769H8.61867C8.61867 23.2338 13.6512 28.2425 19.8362 28.2425C26.0212 28.2425 31.0537 23.2338 31.0537 17.0769C31.0537 10.921 26.0215 5.91255 19.8362 5.91255V4.65942C26.7124 4.65942 32.3068 10.23 32.3068 17.0769C32.3068 23.9247 26.7121 29.496 19.8362 29.496Z" fill="#4C009F"/>
<path d="M8.6177 17.0769H7.36426C7.36426 16.8598 7.36957 16.6435 7.38082 16.4294L8.63238 16.4951C8.62238 16.6876 8.6177 16.8816 8.6177 17.0769Z" fill="#4C009F"/>
<path d="M8.74297 15.406L7.50391 15.2194C7.56547 14.8113 7.64797 14.4025 7.75016 14.0041L8.96422 14.315C8.87266 14.6725 8.79828 15.0394 8.74297 15.406ZM9.29422 13.251L8.11734 12.8194C8.25922 12.4328 8.42234 12.0488 8.60234 11.6782L9.72984 12.2257C9.56797 12.5588 9.42141 12.9038 9.29422 13.251ZM10.2661 11.2491L9.19891 10.5916C9.41422 10.2422 9.65016 9.89847 9.90078 9.57034L10.8973 10.3303C10.672 10.6257 10.4595 10.9347 10.2661 11.2491ZM11.6164 9.4794L10.7002 8.62378C10.9811 8.32315 11.2802 8.03284 11.5892 7.76159L12.4161 8.70347C12.1386 8.94753 11.8695 9.20878 11.6164 9.4794ZM13.2889 8.01003L12.5592 6.99128C12.8936 6.75159 13.2439 6.52597 13.6002 6.32065L14.2258 7.40659C13.9052 7.59128 13.5898 7.7944 13.2889 8.01003ZM15.2177 6.8994L14.7027 5.7569C15.0767 5.58815 15.4645 5.43659 15.8558 5.30534L16.2542 6.49347C15.9027 6.61128 15.5539 6.74784 15.2177 6.8994ZM17.3264 6.19284L17.0486 4.97065C17.4486 4.87972 17.8589 4.80784 18.268 4.75659L18.4239 6.00003C18.0555 6.04628 17.6864 6.11097 17.3264 6.19284Z" fill="#4C009F"/>
<path d="M19.2507 5.92755L19.1895 4.67567C19.4032 4.66536 19.6182 4.65942 19.8348 4.65942V5.91286C19.6391 5.91255 19.4445 5.91817 19.2507 5.92755Z" fill="#4C009F"/>
</svg>
