<svg width="40" height="40" viewBox="0 0 40 40" fill="none" xmlns="http://www.w3.org/2000/svg">
<g clip-path="url(#clip0_2505_52775)">
<path d="M23.3619 40.1953L17.0591 40.1947L16.5841 37.9746C15.8659 37.8426 15.1628 37.6684 14.485 37.4548L12.9106 39.1971L7.45094 36.0429L8.1525 33.8707C7.62437 33.4027 7.12094 32.8997 6.65 32.3692L4.36031 33.1077L1.20594 27.6424L3.04188 25.9837C2.85313 25.3784 2.695 24.7529 2.57 24.1152L0 23.5648V17.2475L2.70062 16.6696C2.82375 16.1609 2.97969 15.6348 3.17188 15.0785L0.992813 13.1111L4.15188 7.64746L7.10531 8.60084C7.43437 8.25464 7.75781 7.93843 8.08344 7.64494L7.08437 4.55855L12.5456 1.40652L14.7903 3.88888C15.1712 3.77464 15.5419 3.67681 15.9091 3.59318L16.6375 0.195312H22.9397L23.6684 3.59287C24.0103 3.6705 24.3503 3.75792 24.685 3.85448L27.0884 1.19413L32.5484 4.34679L31.4869 7.63547C31.7444 7.86742 31.9997 8.112 32.2566 8.37298L35.6372 7.28107L38.7953 12.7463L36.36 14.9453C36.4966 15.3354 36.6184 15.7298 36.7253 16.1253L40 16.8268L39.9987 23.1419L37.0694 23.768C36.98 24.2878 36.8753 24.775 36.7522 25.2415L39.0069 27.2779L35.8472 32.7441L33.3025 31.9217C32.925 32.3758 32.5153 32.8199 32.0791 33.2475L32.9153 35.8321L27.4547 38.9841L25.8419 37.2011C25.185 37.4438 24.5263 37.6448 23.8744 37.8023L23.3619 40.1953ZM18.0678 38.9324L22.3534 38.933L22.8222 36.7435L23.2178 36.6583C24.065 36.4762 24.93 36.2114 25.7894 35.8718L26.1891 35.7137L27.7031 37.3876L31.4106 35.247L30.6441 32.877L30.9369 32.6024C31.5484 32.0284 32.1078 31.4209 32.5988 30.797L32.8672 30.4558L35.2731 31.2337L37.4125 27.5323L35.3341 25.6546L35.4459 25.2718C35.6359 24.6198 35.7859 23.9242 35.9031 23.1457L35.9684 22.7137L38.7484 22.1191L38.75 17.8493L35.7041 17.1967L35.6103 16.8126C35.4606 16.1994 35.2694 15.5847 35.0428 14.9854L34.8894 14.5792L37.2006 12.492L35.0622 8.79145L31.8966 9.81425L31.6266 9.52928C31.2003 9.07926 30.7863 8.68352 30.3597 8.31965L30.0391 8.04541L31.0441 4.93251L27.3366 2.7916L25.0763 5.29354L24.6972 5.17519C24.1509 5.00415 23.5866 4.8593 23.0197 4.74379L22.6187 4.66237L21.9312 1.45796H17.6453L16.9578 4.6649L16.555 4.74537C15.98 4.86024 15.4012 5.01267 14.7853 5.21117L14.4037 5.33425L12.2966 3.00399L8.58844 5.14427L9.53062 8.05488L9.20906 8.32912C8.72406 8.74285 8.24625 9.20801 7.74875 9.75176L7.47875 10.0468L4.72563 9.15847L2.58719 12.8571L4.63688 14.708L4.48875 15.1113C4.19375 15.9144 3.97875 16.6422 3.83188 17.3358L3.74719 17.7363L1.25 18.2703V22.542L3.65156 23.0564L3.72375 23.4774C3.87156 24.3376 4.08375 25.1777 4.35437 25.9736L4.48906 26.3697L2.79938 27.8961L4.93531 31.5967L7.05562 30.9131L7.32531 31.2318C7.92063 31.9353 8.57719 32.5911 9.27688 33.1812L9.60156 33.4551L8.95469 35.4572L12.6619 37.5993L14.1091 35.9978L14.4963 36.1309C15.3559 36.4266 16.2666 36.6516 17.2022 36.8003L17.6253 36.8675L18.0678 38.9324Z" fill="#F58A1F"/>
<path d="M29.1169 22.0534C28.7591 23.8115 27.8897 25.437 26.6004 26.7265C24.8544 28.4714 22.5322 29.4323 20.0619 29.4323C18.2591 29.4323 16.5104 28.9097 15.0219 27.9409L20.9107 22.0534H29.1169ZM30.5013 20.8232H20.4097L13.165 28.0662C15.0735 29.7441 17.4975 30.6615 20.0616 30.6615C22.8554 30.6615 25.4816 29.5743 27.4569 27.5997C29.2869 25.7706 30.3541 23.3848 30.5013 20.8232Z" fill="#282D33"/>
<path d="M21.9616 11.1741C25.4613 11.888 28.2079 14.5411 29.0385 18.0043H21.9616V11.1741ZM20.7441 9.77515V19.2341H30.4723C30.0057 14.0891 25.9041 10.1002 20.7441 9.77515Z" fill="#4C009F"/>
<path d="M29.1169 22.0534C28.7591 23.8115 27.8897 25.437 26.6004 26.7265C24.8544 28.4714 22.5322 29.4323 20.0619 29.4323C18.2591 29.4323 16.5104 28.9097 15.0219 27.9409L20.9107 22.0534H29.1169ZM30.5013 20.8232H20.4097L13.165 28.0662C15.0735 29.7441 17.4975 30.6615 20.0616 30.6615C22.8554 30.6615 25.4816 29.5743 27.4569 27.5997C29.2869 25.7706 30.3541 23.3848 30.5013 20.8232Z" fill="#4C009F"/>
<path d="M20.0207 33.4766C16.7726 33.4766 13.6479 32.2903 11.2217 30.1362L12.047 29.1882C14.2451 31.1397 17.077 32.2143 20.0211 32.2143C26.6439 32.2143 32.032 26.8308 32.032 20.2137C32.032 13.7966 27.0111 8.53145 20.6011 8.22755L20.6598 6.9668C27.7376 7.30258 33.2823 13.1213 33.2823 20.214C33.2817 27.5266 27.3329 33.4766 20.0207 33.4766Z" fill="#4C009F"/>
<path d="M17.8697 8.35665V19.3149L10.1697 27.172C8.73219 25.1453 7.95219 22.7185 7.95219 20.2131C7.95219 14.3524 12.2134 9.37661 17.8697 8.35665ZM19.0872 6.96777C12.1859 7.44746 6.73438 13.1923 6.73438 20.2134C6.73438 23.5917 7.99781 26.6727 10.0753 29.0165L19.0869 19.8208L19.0872 6.96777Z" fill="#4C009F"/>
</g>
<defs>
<clipPath id="clip0_2505_52775">
<rect width="40" height="40" fill="white"/>
</clipPath>
</defs>
</svg>
