<svg width="40" height="40" viewBox="0 0 40 40" fill="none" xmlns="http://www.w3.org/2000/svg">
<path d="M17.0353 39.8584H10.9131V36.3394H12.1631V38.6084H15.7853V36.4381H17.0353V39.8584Z" fill="#F58A1F"/>
<path d="M29.702 39.8585H23.5801V36.4381H24.8301V38.6085H28.452V34.7125H29.702V39.8585Z" fill="#F58A1F"/>
<path d="M7.09668 15.6022H5.84668V8.55936L6.45105 8.53967C6.50324 8.53623 6.53605 8.53467 6.56918 8.53467C8.31887 8.53467 10.0107 9.27123 11.2111 10.5556L10.2976 11.409C9.44074 10.4919 8.31918 9.93561 7.09668 9.81123V15.6022Z" fill="#F58A1F"/>
<path d="M23.4259 36.9096H14.8512C10.2666 36.9096 6.01562 34.2831 3.91156 30.1853H1.43875L1.87375 28.0649H0V19.9349H3.24406C4.44031 16.5509 7.10125 13.7912 10.4403 12.4996L10.8913 13.6653C7.76125 14.8759 5.29406 17.5228 4.29156 20.7453L4.15469 21.1846H1.25V26.8149H3.40656L2.97156 28.9353H4.69594L4.86531 29.2931C6.69531 33.1606 10.6153 35.6596 14.8516 35.6596H23.4259C29.5287 35.6596 34.4941 30.6499 34.4941 24.4918V24.0984C34.4941 22.8662 34.2962 21.6549 33.9056 20.4981L35.0903 20.0987C35.5244 21.3846 35.7441 22.7299 35.7441 24.0984V24.4918C35.7441 31.339 30.2178 36.9096 23.4259 36.9096Z" fill="#F58A1F"/>
<path d="M18.8413 11.6797H16.3057V12.9297H18.8413V11.6797Z" fill="#F58A1F"/>
<path d="M10.0192 23.1153H8.76922C8.76922 22.4844 8.26297 21.9716 7.64047 21.9716C7.01797 21.9716 6.51172 22.4847 6.51172 23.1153H5.26172C5.26172 21.7953 6.32891 20.7216 7.64047 20.7216C8.95203 20.7216 10.0192 21.7953 10.0192 23.1153Z" fill="#F58A1F"/>
<path d="M15.9557 18.8262H10.1338V8.55654L10.7413 8.53967C10.7913 8.53623 10.8235 8.53467 10.8566 8.53467C14.3713 8.53467 17.2304 11.4162 17.2304 14.9581C17.2304 16.244 16.8538 17.4856 16.1416 18.549L15.9557 18.8262ZM11.3838 17.5762H15.2763C15.7379 16.784 15.9804 15.8856 15.9804 14.9581C15.9804 12.285 13.9622 10.079 11.3838 9.81186V17.5762Z" fill="#F58A1F"/>
<path d="M17.3887 24.0372L20.6659 17.7759C19.1746 15.8603 18.3574 13.4887 18.3574 11.0506C18.3574 5.0353 23.2124 0.141235 29.1796 0.141235C35.1459 0.141548 39.9999 5.03561 39.9999 11.0512C39.9999 17.0665 35.1465 21.9606 29.1796 21.9606C27.099 21.9606 25.0909 21.3647 23.3452 20.2325L17.3887 24.0372ZM23.3721 18.7319L23.7152 18.9734C25.3277 20.1097 27.2174 20.7103 29.1796 20.7103C34.4568 20.7103 38.7499 16.3772 38.7499 11.0509C38.7499 5.72467 34.4568 1.39124 29.1796 1.39124C23.9012 1.39124 19.6074 5.72436 19.6074 11.0506C19.6074 13.3356 20.4174 15.5547 21.8884 17.2987L22.1587 17.6194L20.6749 20.4547L23.3721 18.7319Z" fill="#F58A1F"/>
<path d="M33.1385 5.85758L32.0938 5.17188L24.9651 16.0331L26.0098 16.7188L33.1385 5.85758Z" fill="#4C009F"/>
<path d="M25.8168 11.5381C24.6162 11.5381 23.6396 10.5565 23.6396 9.34994V7.21463C23.6396 6.00775 24.6162 5.02588 25.8168 5.02588C27.0168 5.02588 27.9928 6.00775 27.9928 7.21463V9.34994C27.9928 10.5565 27.0168 11.5381 25.8168 11.5381ZM25.8168 6.27588C25.3053 6.27588 24.8896 6.69713 24.8896 7.21463V9.34994C24.8896 9.86713 25.3053 10.2881 25.8168 10.2881C26.3271 10.2881 26.7428 9.86713 26.7428 9.34994V7.21463C26.7428 6.69713 26.3271 6.27588 25.8168 6.27588Z" fill="#4C009F"/>
<path d="M32.2905 16.8637C31.0898 16.8637 30.1133 15.8815 30.1133 14.6746V12.5406C30.1133 11.3337 31.0898 10.3518 32.2905 10.3518C33.4911 10.3518 34.4677 11.3337 34.4677 12.5406V14.6746C34.4677 15.8815 33.4911 16.8637 32.2905 16.8637ZM32.2905 11.6018C31.7789 11.6018 31.3633 12.0231 31.3633 12.5406V14.6746C31.3633 15.1924 31.7789 15.6137 32.2905 15.6137C32.8014 15.6137 33.2177 15.1924 33.2177 14.6746V12.5406C33.2177 12.0231 32.8014 11.6018 32.2905 11.6018Z" fill="#4C009F"/>
</svg>
