<?xml version="1.0" encoding="utf-8"?>
<!-- Generator: Adobe Illustrator 27.9.0, SVG Export Plug-In . SVG Version: 6.00 Build 0)  -->
<svg version="1.1" id="Camada_1" xmlns="http://www.w3.org/2000/svg" xmlns:xlink="http://www.w3.org/1999/xlink" x="0px" y="0px"
	 viewBox="0 0 128 128" style="enable-background:new 0 0 128 128;" xml:space="preserve">
<g>
	<path d="M47.56,76.99c0-1.19-0.97-2.16-2.16-2.16s-2.16,0.97-2.16,2.16c0,9.41,7.65,17.06,17.06,17.06
		c9.41,0,17.06-7.65,17.06-17.06c0-9.41-7.65-17.06-17.06-17.06c-1.19,0-2.16,0.97-2.16,2.16s0.97,2.16,2.16,2.16
		c7.03,0,12.74,5.71,12.74,12.74S67.33,89.73,60.3,89.73C53.27,89.73,47.56,84.02,47.56,76.99z"/>
	<path d="M82.72,88.06L82.72,88.06c-6.01,5.17-13.97,8.02-22.41,8.02c-8.44,0-16.4-2.85-22.4-8.02c-0.46-0.4-1.05-0.59-1.65-0.54
		c-0.61,0.05-1.16,0.33-1.54,0.78c-0.39,0.46-0.58,1.04-0.54,1.64c0.05,0.6,0.32,1.15,0.78,1.54c6.83,5.88,15.83,9.11,25.36,9.11
		c9.52,0,18.53-3.24,25.36-9.11c0.46-0.4,0.73-0.95,0.78-1.56c0.04-0.6-0.15-1.18-0.55-1.63C85.09,87.37,83.66,87.26,82.72,88.06z"
		/>
	<path d="M36.26,66.44c0.06,0,0.11,0.01,0.17,0.01c0.54,0,1.06-0.19,1.47-0.55c6.01-5.17,13.97-8.02,22.4-8.02s16.4,2.85,22.41,8.02
		c0.93,0.79,2.4,0.67,3.19-0.24c0.81-0.95,0.7-2.38-0.24-3.19c-6.83-5.87-15.83-9.1-25.35-9.1c-9.52,0-18.53,3.24-25.36,9.11
		c-0.45,0.39-0.73,0.94-0.78,1.54c-0.05,0.6,0.14,1.19,0.54,1.65C35.1,66.11,35.65,66.39,36.26,66.44z"/>
	<path d="M60.31,86.31c0.26,0,0.51-0.04,0.74-0.13c0.31-0.11,7.6-2.88,7.71-12.69c0.01-0.78-0.4-1.5-1.08-1.89l-6.29-3.66
		c-0.67-0.39-1.5-0.39-2.17,0l-6.29,3.66c-0.67,0.39-1.08,1.11-1.07,1.89c0.12,9.56,6.93,12.4,7.69,12.69
		C59.78,86.26,60.03,86.31,60.31,86.31z M56.24,74.67l4.06-2.36l4.07,2.36c-0.43,4.29-2.81,6.3-4.06,7.08
		C59.05,80.98,56.67,78.97,56.24,74.67z"/>
	<rect x="13.99" y="39" width="4.77" height="4.77"/>
	<rect x="21.03" y="39" width="4.77" height="4.77"/>
	<rect x="28.54" y="39" width="4.77" height="4.77"/>
	<path d="M118.51,34.63c-0.47-0.29-1.01-0.39-1.54-0.27c-0.54,0.12-0.99,0.44-1.28,0.91c-0.29,0.46-0.38,1.01-0.26,1.55
		c0.26,1.12,0.39,2.3,0.39,3.5c0,8.63-7.02,15.66-15.66,15.66s-15.66-7.02-15.66-15.66c0-8.64,7.03-15.66,15.66-15.66
		c1.75,0,3.47,0.29,5.12,0.85c1.07,0.37,2.24-0.2,2.61-1.27c0.37-1.07-0.2-2.24-1.27-2.61c-2.06-0.71-4.24-1.08-6.45-1.08
		c-8.08,0-15.22,4.82-18.28,12.3H7.5v74.59h105.61V55.23c4.33-3.77,6.81-9.19,6.81-14.9c0-1.49-0.17-2.97-0.49-4.41
		C119.31,35.38,118.98,34.92,118.51,34.63z M81.29,46.14H11.31v-9.48h69.43c-0.23,1.21-0.35,2.43-0.35,3.66
		C80.39,42.28,80.69,44.24,81.29,46.14z M11.3,103.64V50.29h71.79c3.55,6.06,10.05,9.81,17.05,9.81c3.18,0,6.33-0.78,9.15-2.27
		v45.81H11.3z"/>
	<path d="M119.81,21.72L119.81,21.72c-0.84-0.75-2.14-0.68-2.9,0.17L100.24,40.6l-4.56-5.75c-0.34-0.43-0.83-0.7-1.38-0.77
		c-0.54-0.06-1.08,0.09-1.5,0.43c-0.43,0.34-0.7,0.83-0.76,1.37c-0.06,0.54,0.09,1.08,0.43,1.51l6.07,7.66
		c0.37,0.48,0.94,0.76,1.62,0.78c0.58,0,1.13-0.25,1.53-0.69l18.3-20.54C120.73,23.77,120.66,22.47,119.81,21.72z"/>
</g>
</svg>
