<svg width="20" height="20" viewBox="0 0 20 20" fill="none" xmlns="http://www.w3.org/2000/svg">
<path d="M10.0213 5.05038C7.27846 5.05038 5.09275 7.27896 5.09275 9.97895C5.09275 12.7218 7.27846 14.9076 10.0213 14.9076C12.7213 14.9076 14.9499 12.7218 14.9499 9.97895C14.9499 7.27896 12.7213 5.05038 10.0213 5.05038ZM10.0213 13.1932C8.26417 13.1932 6.80703 11.7789 6.80703 9.97895C6.80703 8.2218 8.22132 6.80753 10.0213 6.80753C11.7785 6.80753 13.1928 8.2218 13.1928 9.97895C13.1928 11.7789 11.7785 13.1932 10.0213 13.1932ZM16.2784 4.87896C16.2784 4.2361 15.7641 3.72182 15.1213 3.72182C14.4784 3.72182 13.9642 4.2361 13.9642 4.87896C13.9642 5.52181 14.4784 6.03609 15.1213 6.03609C15.7641 6.03609 16.2784 5.52181 16.2784 4.87896ZM19.5356 6.03609C19.4499 4.49324 19.107 3.12182 17.9928 2.00753C16.8785 0.893247 15.507 0.550391 13.9642 0.464676C12.3785 0.378962 7.62132 0.378962 6.03561 0.464676C4.49275 0.550391 3.16418 0.893247 2.00704 2.00753C0.892759 3.12182 0.549902 4.49324 0.464191 6.03609C0.378473 7.62181 0.378473 12.379 0.464191 13.9646C0.549902 15.5076 0.892759 16.8361 2.00704 17.9932C3.16418 19.1075 4.49275 19.4503 6.03561 19.536C7.62132 19.6218 12.3785 19.6218 13.9642 19.536C15.507 19.4503 16.8785 19.1075 17.9928 17.9932C19.107 16.8361 19.4499 15.5076 19.5356 13.9646C19.6213 12.379 19.6213 7.62181 19.5356 6.03609ZM17.4785 15.6361C17.1785 16.4933 16.4927 17.1361 15.6784 17.4789C14.3927 17.9932 11.3927 17.8647 10.0213 17.8647C8.60703 17.8647 5.60704 17.9932 4.36419 17.4789C3.50704 17.1361 2.86419 16.4933 2.52133 15.6361C2.00704 14.3932 2.13561 11.3932 2.13561 9.97895C2.13561 8.60752 2.00704 5.60752 2.52133 4.32182C2.86419 3.50753 3.50704 2.86467 4.36419 2.52181C5.60704 2.00753 8.60703 2.13611 10.0213 2.13611C11.3927 2.13611 14.3927 2.00753 15.6784 2.52181C16.4927 2.82182 17.1355 3.50753 17.4785 4.32182C17.9928 5.60752 17.8642 8.60752 17.8642 9.97895C17.8642 11.3932 17.9928 14.3932 17.4785 15.6361Z" fill="white"/>
</svg>
