<svg width="60" height="60" viewBox="0 0 60 60" fill="none" xmlns="http://www.w3.org/2000/svg">
<g clip-path="url(#clip0_3613_311071)">
<path d="M55.3471 38.6907L55.3222 36.8114C56.4013 36.7974 57.9308 35.7952 57.9294 34.8778V17.3808C57.9285 16.1574 57.0046 14.7371 55.9902 14.4014C51.1893 12.8471 46.1089 12.8466 41.3038 14.4033C40.296 14.7366 39.3711 16.1579 39.3697 17.3818V34.876H37.49V17.3808C37.4924 15.3422 38.9413 13.2057 40.7188 12.6174C45.9088 10.9364 51.3899 10.9364 56.5747 12.6155C58.3597 13.2061 59.8072 15.3427 59.8086 17.3808V34.8769C59.8138 37.133 57.1264 38.6672 55.3471 38.6907ZM19.22 38.6794L18.6036 36.9038L22.9677 35.3874L18.4424 21.121L20.2335 20.5529L25.3119 36.563L19.22 38.6794Z" fill="#F58A1F"/>
<path d="M30.6104 38.8754C28.2981 38.8754 26.4165 36.9831 26.4165 34.6562C26.4165 32.3293 28.2981 30.4365 30.6104 30.4365C32.9237 30.4365 34.8048 32.3293 34.8048 34.6562C34.8048 36.9831 32.9232 38.8754 30.6104 38.8754ZM30.6104 32.3157C29.334 32.3157 28.2957 33.3653 28.2957 34.6557C28.2957 35.9457 29.334 36.9957 30.6104 36.9957C31.8873 36.9957 32.9256 35.9457 32.9256 34.6557C32.9256 33.3657 31.8868 32.3157 30.6104 32.3157ZM35.7437 52.0759H24.9053V40.4031H35.7437V52.0759ZM26.7845 50.1962H33.8645V42.2828H26.7845V50.1962Z" fill="#4C009F"/>
<path d="M14.6353 59.9999H8.14496L7.06543 49.8693L8.93434 49.6701L9.8348 58.1202H12.9454L13.8468 49.6696L15.7157 49.8698L14.6353 59.9999ZM47.7093 40.3691H49.589V59.061H47.7093V40.3691Z" fill="#F58A1F"/>
<path d="M22.7614 35.8049L26.5419 40.7718L25.0466 41.9095L21.2666 36.9431L22.7614 35.8049ZM37.8894 35.8063L39.3852 36.944L35.6071 41.9113L34.1108 40.7732L37.8894 35.8063ZM26.8119 50.9446H28.6916V59.2007H26.8119V50.9446ZM31.9588 50.9446H33.8385V59.2007H31.9588V50.9446Z" fill="#4C009F"/>
<path d="M55.5374 58.8487H41.7627V20.0671H43.6424V56.9695H53.6586V20.0671H55.5374V58.8487Z" fill="#F58A1F"/>
<path d="M47.7091 40.3692H49.5888V59.061H47.7091V40.3692ZM2.71422 36.9074C2.35047 35.6845 1.94734 34.342 1.54234 32.9957C1.10359 31.5374 0.663906 30.0735 0.270625 28.7479L0.191406 28.4807L0.270625 28.2135C1.02719 25.6645 1.78422 23.1159 2.54313 20.5682C3.05547 18.9276 4.49031 16.7648 5.92234 16.1104C7.93328 15.2273 9.66625 14.8181 11.3889 14.8167C13.1153 14.8181 14.8478 15.2273 16.8475 16.1048C18.2913 16.762 19.7266 18.9257 20.2352 20.557L18.4412 21.1167C17.9941 19.6827 16.7838 18.141 16.0806 17.8209C14.3387 17.0568 12.8453 16.6977 11.3931 16.6963C9.93672 16.6973 8.44375 17.0568 6.69156 17.826C5.99969 18.1424 4.78844 19.6846 4.34125 21.1171C3.61234 23.564 2.88203 26.0221 2.15266 28.4812C2.52484 29.7323 2.93453 31.0963 3.34281 32.4557C3.74781 33.8034 4.15188 35.1473 4.51609 36.3717L2.71422 36.9074Z" fill="#F58A1F"/>
<path d="M22.0799 47.8008H0.700195L6.00176 21.6094L7.84395 21.9825L2.99801 45.9211H19.7825L14.9375 21.9825L16.7797 21.6094L22.0799 47.8008ZM48.65 13.1447C45.0491 13.1447 42.1199 10.1962 42.1199 6.57234C42.1199 2.94844 45.0491 0 48.65 0C52.25 0 55.1788 2.94844 55.1788 6.57234C55.1788 10.1962 52.25 13.1447 48.65 13.1447ZM48.65 1.87922C46.0855 1.87922 43.9991 3.98438 43.9991 6.57188C43.9991 9.15938 46.0855 11.265 48.65 11.265C51.2136 11.265 53.2996 9.15938 53.2996 6.57188C53.2996 3.98438 51.2136 1.87922 48.65 1.87922Z" fill="#F58A1F"/>
<path d="M11.3913 16.313C7.94875 16.313 5.14844 13.4939 5.14844 10.0289C5.14844 6.56394 7.94875 3.74487 11.3913 3.74487C14.8337 3.74487 17.6341 6.56394 17.6341 10.0289C17.6341 13.4944 14.8337 16.313 11.3913 16.313ZM11.3913 5.62409C8.98516 5.62409 7.02766 7.60034 7.02766 10.0289C7.02766 12.458 8.98516 14.4338 11.3913 14.4338C13.7973 14.4338 15.7548 12.458 15.7548 10.0289C15.7548 7.60034 13.7973 5.62409 11.3913 5.62409Z" fill="#F58A1F"/>
</g>
<defs>
<clipPath id="clip0_3613_311071">
<rect width="60" height="60" fill="white"/>
</clipPath>
</defs>
</svg>
