<?xml version="1.0" standalone="no"?>
<!DOCTYPE svg PUBLIC "-//W3C//DTD SVG 20010904//EN"
 "http://www.w3.org/TR/2001/REC-SVG-20010904/DTD/svg10.dtd">
<svg version="1.0" xmlns="http://www.w3.org/2000/svg"
 width="168.000000pt" height="169.000000pt" viewBox="0 0 168.000000 169.000000"
 preserveAspectRatio="xMidYMid meet">

<g transform="translate(0.000000,169.000000) scale(0.100000,-0.100000)"
fill="#000000" stroke="none">
<path d="M240 845 l0 -845 600 0 600 0 0 633 0 633 -30 2 -30 2 -2 -601 -3
-600 -250 0 c-137 0 -379 0 -537 0 l-288 1 0 775 0 775 360 0 360 0 0 34 0 34
-390 1 -390 1 0 -845z"/>
<path d="M1080 1502 l0 -182 175 0 c96 0 175 3 175 8 0 4 -79 86 -175 182
l-175 175 0 -183z m200 -114 c0 -5 -31 -8 -70 -8 l-70 0 0 77 0 77 70 -69 c39
-38 70 -73 70 -77z"/>
<path d="M660 1238 c0 -25 4 -28 33 -28 17 0 98 -3 180 -7 l147 -6 0 37 0 37
-180 -3 -180 -3 0 -27z"/>
<path d="M420 1070 l0 -30 420 0 420 0 0 30 0 30 -420 0 -420 0 0 -30z"/>
<path d="M463 933 c-40 -4 -43 -6 -43 -34 l0 -29 420 0 420 0 0 35 0 35 -377
-2 c-208 -1 -397 -3 -420 -5z"/>
<path d="M420 740 l0 -30 420 0 420 0 0 30 0 30 -420 0 -420 0 0 -30z"/>
<path d="M1070 632 c-70 -35 -103 -136 -65 -202 10 -18 14 -60 15 -148 l0
-123 58 40 59 40 59 -40 59 -39 6 133 c3 72 11 149 18 169 29 90 -48 188 -147
188 -15 0 -43 -8 -62 -18z m109 -57 c32 -16 41 -33 41 -76 0 -42 -14 -64 -49
-79 -60 -25 -121 15 -121 79 1 73 64 110 129 76z m21 -263 l0 -44 -33 21 c-30
18 -36 19 -53 6 -29 -22 -34 -18 -34 23 l0 37 60 0 60 1 0 -44z"/>
<path d="M1110 500 c0 -27 3 -30 30 -30 27 0 30 3 30 30 0 27 -3 30 -30 30
-27 0 -30 -3 -30 -30z"/>
<path d="M420 574 l0 -33 255 0 255 -1 0 35 0 35 -255 -1 -255 -2 0 -33z"/>
<path d="M420 410 l0 -30 180 0 180 0 0 30 0 30 -180 0 -180 0 0 -30z"/>
</g>
</svg>
