<svg width="20" height="20" viewBox="0 0 20 20" fill="none" xmlns="http://www.w3.org/2000/svg">
<path d="M4.9482 19.5999H0.967541V6.78104H4.9482V19.5999ZM2.95573 5.03243C1.68284 5.03243 0.650391 3.97813 0.650391 2.70524C0.650391 2.09383 0.893274 1.50745 1.32561 1.07512C1.75794 0.642785 2.34431 0.399902 2.95573 0.399902C3.56714 0.399902 4.15351 0.642785 4.58585 1.07512C5.01818 1.50745 5.26107 2.09383 5.26107 2.70524C5.26107 3.97813 4.22818 5.03243 2.95573 5.03243ZM19.8465 19.5999H15.8744V13.3598C15.8744 11.8726 15.8444 9.9654 13.8048 9.9654C11.7352 9.9654 11.4181 11.5812 11.4181 13.2526V19.5999H7.44169V6.78104H11.2595V8.52966H11.3152C11.8466 7.52249 13.1448 6.45961 15.0816 6.45961C19.1102 6.45961 19.8508 9.11253 19.8508 12.5583V19.5999H19.8465Z" fill="white"/>
</svg>
