<svg width="40" height="40" viewBox="0 0 40 40" fill="none" xmlns="http://www.w3.org/2000/svg">
<path d="M34.7101 22.0284H31.3776V20.7747L34.1791 20.78C34.2285 20.7753 34.2779 20.7734 34.3354 20.7738L34.4301 20.7747C35.702 20.7747 36.7373 19.7475 36.7373 18.4847C36.7373 17.2409 35.7557 16.2378 34.5023 16.2006L33.8191 16.1806L33.8979 15.5019C33.9279 15.2456 33.9413 15.0288 33.9413 14.8197C33.9413 11.6531 31.3491 9.07687 28.162 9.07687C27.6445 9.07687 27.1188 9.15031 26.5982 9.29531L25.9073 9.48812L25.8091 8.77719C25.2179 4.48812 21.482 1.25375 17.1185 1.25375C12.2795 1.25375 8.34289 5.16438 8.34289 9.97125L8.34414 10.5938L7.78789 10.6569C5.20852 10.9494 3.2632 13.1163 3.2632 15.6981C3.2632 18.4972 5.5557 20.7747 8.37352 20.7747V22.0284C4.86445 22.0284 2.00977 19.1884 2.00977 15.6981C2.00977 12.6631 4.16258 10.0878 7.1007 9.49687C7.35039 4.21812 11.7482 0 17.1185 0C21.8745 0 25.9785 3.36594 26.9345 7.93437C27.3441 7.86094 27.7541 7.82375 28.162 7.82375C32.0401 7.82375 35.1951 10.9625 35.1951 14.8203C35.1951 14.8878 35.1938 14.9563 35.1913 15.0259C36.8051 15.3691 37.991 16.7809 37.991 18.485C37.991 20.3444 36.5438 21.8744 34.7123 22.0178L34.7101 22.0284Z" fill="#F58A1F"/>
<path d="M10.2057 34.3672C10.2054 34.3672 10.2048 34.3672 10.2041 34.3672L9.58008 34.3644L9.58289 15.6169C9.62133 13.7341 11.1845 12.2088 13.0679 12.2088H15.737V13.4626H13.0679C11.862 13.4626 10.8607 14.4366 10.8363 15.6344L10.8338 15.9851V31.0738C11.4395 30.5701 12.2188 30.2663 13.0679 30.2663H29.012V13.4622H19.8282V12.2085H30.2657V31.5197H13.0679C11.8763 31.5197 10.8998 32.4504 10.8373 33.6176L10.8338 33.9044H10.8048C10.6879 34.3507 10.267 34.3672 10.2057 34.3672Z" fill="#F58A1F"/>
<path d="M30.266 37.2076H19.5026V35.9538H29.0123V31.5191H13.0679C11.8363 31.5191 10.8338 32.5144 10.8338 33.7372C10.8338 34.9591 11.8363 35.9538 13.0679 35.9538H13.1851V37.2076H13.0679C11.1448 37.2076 9.58008 35.651 9.58008 33.7376C9.58008 31.8232 11.1448 30.266 13.0679 30.266H30.266V37.2076Z" fill="#F58A1F"/>
<path d="M12.7734 40.0001V33.2714H18.2491V40.0001L15.5109 38.2739L12.7734 40.0001ZM15.5109 36.7917L16.9953 37.7276V34.5248H14.0269V37.7273L15.5109 36.7917Z" fill="#F58A1F"/>
<path d="M29.6392 33.2722H12.8555V34.526H29.6392V33.2722Z" fill="#F58A1F"/>
<path d="M13.4823 13.1101H12.2285V30.7167H13.4823V13.1101Z" fill="#F58A1F"/>
<path d="M20.4544 9.56753L17.7985 6.92972L15.1422 9.56753L14.2588 8.67847L17.7985 5.16284L21.3382 8.67847L20.4544 9.56753Z" fill="#4C009F"/>
<path d="M18.5067 7.0144H17.2529V16.5097H18.5067V7.0144Z" fill="#4C009F"/>
<path d="M21.8932 26.1565L18.3525 22.6403L19.2357 21.7512L21.8932 24.3893L24.5488 21.7512L25.4319 22.6403L21.8932 26.1565Z" fill="#4C009F"/>
<path d="M22.4383 14.8091H21.1846V24.3047H22.4383V14.8091Z" fill="#4C009F"/>
</svg>
