<svg width="40" height="40" viewBox="0 0 40 40" fill="none" xmlns="http://www.w3.org/2000/svg">
<path d="M24.9804 21.6166H23.4125V20.3666H24.2416L34.7691 1.25H27.8391L20.5335 14.5156L19.4385 13.9125L27.1007 0H36.8844L24.9804 21.6166Z" fill="#F58A1F"/>
<path d="M32.1945 0.92612L31.0996 0.32312L22.6823 15.6065L23.7772 16.2095L32.1945 0.92612Z" fill="#F58A1F"/>
<path d="M24.8034 21.6166H15.0196L3.11523 0H12.8996L24.8034 21.6166ZM15.758 20.3666H22.688L12.1609 1.25H5.23055L15.758 20.3666Z" fill="#F58A1F"/>
<path d="M19.9691 20.427L8.89844 0.323608L7.80344 0.926608L18.8741 21.03L19.9691 20.427Z" fill="#F58A1F"/>
<path d="M20.0002 40C15.1217 40 11.1523 36.1003 11.1523 31.3075C11.1523 26.5147 15.1217 22.615 20.0002 22.615C24.8786 22.615 28.848 26.5144 28.848 31.3072C28.848 36.1 24.8786 40 20.0002 40ZM20.0002 23.865C15.8108 23.865 12.4023 27.2037 12.4023 31.3072C12.4027 35.4112 15.8108 38.75 20.0002 38.75C24.1895 38.75 27.598 35.4112 27.598 31.3075C27.598 27.2037 24.1895 23.865 20.0002 23.865Z" fill="#4C009F"/>
<path d="M20 36.5616C17.0541 36.5616 14.6572 34.2044 14.6572 31.3075C14.6572 28.4107 17.0541 26.0535 20 26.0535C22.9463 26.0535 25.3432 28.4103 25.3432 31.3075C25.3432 34.2047 22.9463 36.5616 20 36.5616ZM20 27.3035C17.7432 27.3035 15.9072 29.0997 15.9072 31.3075C15.9072 33.5153 17.7432 35.3116 20 35.3116C22.2569 35.3116 24.0932 33.5153 24.0932 31.3075C24.0932 29.0997 22.2569 27.3035 20 27.3035Z" fill="#4C009F"/>
</svg>
