<svg width="60" height="60" viewBox="0 0 60 60" fill="none" xmlns="http://www.w3.org/2000/svg">
<g clip-path="url(#clip0_3613_311081)">
<path d="M11.8975 35.174H10.0229V27.2347C9.75059 25.6987 8.67293 24.0922 7.17574 24.0913L5.8534 24.1016L5.76855 22.2285C5.84637 22.2215 5.90402 22.2177 5.96355 22.2177L7.17527 22.2163C9.76137 22.2182 11.5018 24.6276 11.8857 27.0065L11.8975 27.1555V35.174Z" fill="#F58A1F"/>
<path d="M24.6872 53.6364H22.8122V47.401L21.6755 41.6617L13.1414 33.0367C12.4003 34.0182 12.1378 35.6185 12.8269 36.5537L18.2044 41.9893L16.8731 43.3088L11.6039 38.0063C11.5431 37.9414 11.4848 37.8742 11.4291 37.8048L8.39203 34.7345L5.15906 31.2807V22.974C4.88672 21.4374 3.80906 19.8306 2.31188 19.8296L1.89469 19.8301L2.03438 33.0807L12.6947 51.167L11.0794 52.1185L0.165 33.6015L0 18.0081L0.904688 17.9673C0.982969 17.9607 1.03969 17.957 1.09922 17.957L2.31094 17.9556C4.89703 17.9574 6.63703 20.3673 7.02188 22.7467L7.03359 22.8962V30.5415L9.7425 33.437L10.6209 34.3243C10.807 33.1881 11.3545 32.101 12.1373 31.3538L12.1861 31.3103C12.1861 31.3098 12.4964 31.0524 12.5438 31.0121L13.2066 30.4445L13.823 31.0618L23.4042 40.7453L24.6863 47.3101V53.6364H24.6872Z" fill="#F58A1F"/>
<path d="M8.7373 53.0844H27.6092V54.959H8.7373V53.0844ZM49.9873 35.174H48.1128L48.1245 27.0074C48.5075 24.628 50.247 22.2187 52.8321 22.2168L54.0476 22.2182C54.1057 22.2182 54.1625 22.222 54.2192 22.2271L54.1573 24.1021L54.0537 24.0946L52.8317 24.0918C51.3359 24.0927 50.2587 25.6987 49.9873 27.2352V35.174Z" fill="#F58A1F"/>
<path d="M37.1968 53.6368H35.3223L35.3401 47.1268L36.6071 40.7443L46.7954 30.4449L47.8712 31.3524C48.6545 32.0996 49.2024 33.1866 49.3909 34.321L50.2857 33.4168L52.9768 30.5401L52.9885 22.7462C53.3715 20.3668 55.1115 17.9569 57.6966 17.9546L58.913 17.956C58.9693 17.956 59.0251 17.9597 59.0818 17.9649L59.987 18.0052L60.001 18.9132L59.8468 33.601L48.931 52.118L47.3166 51.1665L57.9774 33.0802L58.1166 19.8305L57.6966 19.8296C56.2009 19.8305 55.1232 21.4374 54.8518 22.974V31.2812L51.6366 34.7162L48.5977 37.7893C48.5435 37.857 48.4866 37.9226 48.4271 37.9857L43.1377 43.3088L41.8065 41.9893L47.199 36.5377C47.8745 35.6194 47.6101 34.0201 46.868 33.0376L38.3359 41.6626L37.1963 47.4015V53.6368H37.1968Z" fill="#F58A1F"/>
<path d="M32.3994 53.0845H51.2718V54.959H32.3994V53.0845Z" fill="#F58A1F"/>
<path d="M22.2051 57.502H24.0801V59.9666H22.2051V57.502Z" fill="#F58A1F"/>
<path d="M35.7656 57.502H37.6402V59.9666H35.7656V57.502Z" fill="#F58A1F"/>
<path d="M36.2749 34.4991C33.9396 34.4991 32.9965 31.9482 31.2846 27.3164C30.671 25.6589 30.1226 25.3205 30.0096 25.3205C29.8905 25.3205 29.3219 25.6594 28.7093 27.3169C26.9998 31.9482 26.058 34.4991 23.719 34.4991C21.4915 34.4991 19.2363 31.3561 19.2363 25.3472C19.2363 22.4007 18.656 21.0525 17.9843 19.4911C17.4518 18.2532 16.8485 16.8507 16.4693 14.5505C15.6982 9.87097 17.2427 5.49331 20.2259 3.90425C23.3112 2.09019 24.334 1.99503 28.609 3.13362C29.096 3.26206 29.5516 3.35159 29.9965 3.40597C30.4658 3.34731 30.9305 3.25616 31.3873 3.13315C35.6618 1.99456 36.686 2.08925 39.8046 3.92394C40.9469 4.5319 41.9374 5.6194 42.6344 7.04956L40.9488 7.87034C40.4262 6.79784 39.7137 5.99909 38.8882 5.55894C36.1962 3.9769 35.6735 3.93144 31.8668 4.94534C31.2443 5.1094 30.6659 5.21909 30.0982 5.28097L29.996 5.29175L29.8938 5.28097C29.2977 5.21333 28.7075 5.1013 28.128 4.94581C24.3241 3.93237 23.8019 3.97644 21.1413 5.53972C18.8599 6.75659 17.6871 10.41 18.319 14.2458C18.6607 16.32 19.1927 17.5557 19.7065 18.7505C20.4288 20.4296 21.1109 22.0149 21.1109 25.3472C21.1109 30.4271 22.8382 32.6246 23.7185 32.6246C24.649 32.6246 25.4552 30.7168 26.9501 26.6672C27.9354 24.0047 29.1574 23.446 30.0087 23.446C31.2302 23.446 32.2507 24.5293 33.0424 26.6663C34.5734 30.8091 35.3416 32.6246 36.2744 32.6246C37.1552 32.6246 38.8816 30.4271 38.8816 25.3472C38.8816 22.0322 39.5595 20.4586 40.2766 18.7922C40.7937 17.5927 41.3276 16.3524 41.6749 14.2458L43.5246 14.5505C43.1398 16.883 42.5337 18.2911 41.9984 19.5338C41.3318 21.0816 40.7562 22.4185 40.7562 25.3472C40.7562 31.3561 38.5019 34.4991 36.2749 34.4991Z" fill="#4C009F"/>
<path d="M48.1148 21.4241L45.163 13.702L37.5566 10.7296L45.163 7.75586L48.1152 0.0332031L51.0702 7.75586L58.6748 10.7296L51.0702 13.702L48.1148 21.4241ZM42.7059 10.7291L46.6171 12.2582L48.1157 16.1765L49.6148 12.2582L53.526 10.7291L49.6148 9.19961L48.1157 5.28086L46.6171 9.19961L42.7059 10.7291Z" fill="#F58A1F"/>
<path d="M8.91762 12.6248L13.3342 17.0901L12.0015 18.4087L7.58496 13.9429L8.91762 12.6248Z" fill="#F58A1F"/>
<path d="M12.0011 12.6245L13.3342 13.9426L8.91809 18.4089L7.58496 17.0908L12.0011 12.6245Z" fill="#F58A1F"/>
</g>
<defs>
<clipPath id="clip0_3613_311081">
<rect width="60" height="60" fill="white"/>
</clipPath>
</defs>
</svg>
