<svg width="40" height="40" viewBox="0 0 40 40" fill="none" xmlns="http://www.w3.org/2000/svg">
<path d="M9.28531 14.9016H0.03125V6.41504H9.28531V7.66504H1.28125V13.6516H9.28531V14.9016Z" fill="#F58A1F"/>
<path d="M34.1499 37.2989H8.76238L8.62988 34.537L9.87863 34.477L9.95426 36.0485H32.8996V10.2848H34.1499V37.2989Z" fill="#F58A1F"/>
<path d="M9.98273 15.6216H8.73242V2.85852H26.7574V4.10852H9.98273V15.6216Z" fill="#F58A1F"/>
<path d="M29.157 5.68223L31.3436 7.88036H29.157V5.68223ZM27.9258 2.70129V9.11161H34.3036L27.9258 2.70129Z" fill="#F58A1F"/>
<path d="M30.0507 32.5063H0.0185547V17.1388H30.0511V32.5063H30.0507ZM1.26855 31.256H28.8007V18.3888H1.26855V31.256Z" fill="#4C009F"/>
<path d="M15.0363 27.3835C14.5166 27.3835 14.0197 27.2569 13.6372 27.0269L7.505 23.3372C7.11469 23.1016 6.72687 22.8679 6.43 22.6904L0.312187 19.0072L0.314687 18.9972L0.359688 18.8257L0 18.47L0.454688 18.4622H0V17.7638L0.625 17.1388H29.4497L30.075 17.7641L30.0747 18.4625L29.6247 18.4622L29.625 18.4641H30.0747L29.7241 18.8179L29.7744 18.9982L29.6875 18.855L29.6775 18.865L29.7622 19.0057L16.4341 27.0269C16.0528 27.2569 15.5563 27.3835 15.0363 27.3835ZM1.70937 18.3888L7.07281 21.6179C7.36937 21.7947 7.75875 22.0297 8.15 22.266L14.2819 25.9554C14.6572 26.1813 15.415 26.181 15.7887 25.9557L28.3625 18.3888H1.70937Z" fill="#4C009F"/>
<path d="M38.8996 37.0675H36.7946C36.2868 37.0675 35.874 36.6562 35.874 36.1506V35.2312H37.1243V35.8171H38.5725V35.2312H39.8228V36.1506C39.8225 36.6562 39.4081 37.0675 38.8996 37.0675Z" fill="#F58A1F"/>
<path d="M39.8184 8.53907H38.5681V8.10501L37.8456 6.50407L37.1243 8.10501V8.53907H35.874V7.83595L37.8453 3.46313L39.8184 7.83595V8.53907Z" fill="#F58A1F"/>
<path d="M38.77 9.28622V30.3537H37.84H36.9263V9.28622H38.77ZM40.0004 8.05591H35.6963V31.5847H37.8404H40.0004V8.05591Z" fill="#F58A1F"/>
<path d="M39.8461 34.1006H35.8486V30.4347H39.8461V34.1006ZM37.0989 32.8503H38.5958V31.685H37.0989V32.8503Z" fill="#F58A1F"/>
<path d="M20.2505 6.70813H15.4492V7.95813H20.2505V6.70813Z" fill="#F58A1F"/>
<path d="M13.9576 6.70813H12.2373V7.95813H13.9576V6.70813Z" fill="#F58A1F"/>
<path d="M4.22586 8.76196H2.50586V10.0123H4.22586V8.76196Z" fill="#F58A1F"/>
<path d="M7.3068 10.9457H2.50586V12.1957H7.3068V10.9457Z" fill="#F58A1F"/>
</svg>
