<svg width="40" height="40" viewBox="0 0 40 40" fill="none" xmlns="http://www.w3.org/2000/svg">
<g clip-path="url(#clip0_3517_126094)">
<path fill-rule="evenodd" clip-rule="evenodd" d="M37.1444 24.2857H30.0015V22.8572H37.1444V24.2857Z" fill="black"/>
<path d="M40.0015 26.7857C40.0015 27.772 39.202 28.5715 38.2158 28.5715H22.8574V27.1429H38.2158C38.4131 27.1429 38.573 26.983 38.573 26.7857V19.8215H22.8574V18.3929H38.573V17.1429H22.8574V15.7143H38.573V14.6429C38.573 14.4456 38.4131 14.2857 38.2158 14.2857H22.8574V12.8572H38.2158C39.202 12.8572 40.0015 13.6567 40.0015 14.6429V26.7857Z" fill="black"/>
<path fill-rule="evenodd" clip-rule="evenodd" d="M13.9286 4.28571H7.5V2.85714H13.9286V4.28571ZM11.7857 37.1429H9.64286V35.7143H11.7857V37.1429ZM20 7.14286H1.42857V32.8571H20V7.14286ZM20 5.71429H1.42857V1.78571C1.42857 1.58847 1.58847 1.42857 1.78571 1.42857H19.6429C19.8401 1.42857 20 1.58847 20 1.78571V5.71429ZM21.4286 1.78571C21.4286 0.799492 20.6291 0 19.6429 0H1.78571C0.799492 0 0 0.799492 0 1.78571V38.2143C0 39.2005 0.799491 40 1.78571 40H19.6429C20.6291 40 21.4286 39.2005 21.4286 38.2143V1.78571ZM20 34.2857H1.42857V38.2143C1.42857 38.4115 1.58847 38.5714 1.78571 38.5714H19.6429C19.8401 38.5714 20 38.4115 20 38.2143V34.2857Z" fill="black"/>
<path fill-rule="evenodd" clip-rule="evenodd" d="M11.4286 15.3824V13.9285H10V15.357C8.61929 15.357 7.5 16.4763 7.5 17.857V18.825C7.5 20.059 8.40028 21.1083 9.61986 21.296L11.2343 21.5444C11.757 21.6248 12.1429 22.0745 12.1429 22.6033V23.5713C12.1429 24.1631 11.6632 24.6428 11.0714 24.6428H10C9.40827 24.6428 8.92857 24.1631 8.92857 23.5713V23.2142H7.5V23.5713C7.5 24.952 8.61929 26.0713 10 26.0713V27.4999H11.4286V26.046C12.6401 25.8727 13.5714 24.8308 13.5714 23.5713V22.6033C13.5714 21.3694 12.6712 20.32 11.4516 20.1324L9.83708 19.884C9.3144 19.8036 8.92857 19.3539 8.92857 18.825V17.857C8.92857 17.2653 9.40827 16.7856 10 16.7856H11.0714C11.6632 16.7856 12.1429 17.2653 12.1429 17.857V18.2142H13.5714V17.857C13.5714 16.5976 12.6401 15.5557 11.4286 15.3824Z" fill="black"/>
</g>
<defs>
<clipPath id="clip0_3517_126094">
<rect width="40" height="40" fill="white"/>
</clipPath>
</defs>
</svg>
