<svg width="40" height="40" viewBox="0 0 40 40" fill="none" xmlns="http://www.w3.org/2000/svg">
<path fill-rule="evenodd" clip-rule="evenodd" d="M20.0004 38.5506C10.8435 36.9342 6.60794 30.867 4.67492 26.3968C3.71794 24.1837 3.46849 21.6881 3.42826 19.0413L3.23135 6.08469L20.0004 1.48142L36.7695 6.08469L36.5726 19.0413C36.5323 21.6881 36.2829 24.1837 35.3259 26.3968C33.3929 30.867 29.1573 36.9342 20.0004 38.5506ZM38.2147 5L38.001 19.063C37.96 21.7615 37.7083 24.4866 36.6371 26.9638C34.571 31.7418 29.9606 38.34 20.0004 40C10.0403 38.34 5.42981 31.7418 3.36369 26.9638C2.29253 24.4866 2.04086 21.7615 1.99985 19.063L1.78613 5L20.0004 0L38.2147 5Z" fill="black"/>
<path fill-rule="evenodd" clip-rule="evenodd" d="M19.9996 34.2645C12.9922 33.0044 9.75058 28.3522 8.26277 24.9054C7.53648 23.2228 7.34128 21.3108 7.3099 19.2422L7.15905 9.29852L19.9996 5.76737L32.8401 9.29852L32.6893 19.2422C32.6579 21.3108 32.4627 23.2228 31.7364 24.9054C30.2486 28.3522 27.0069 33.0044 19.9996 34.2645ZM34.2853 8.21434L34.1177 19.2638C34.0855 21.3841 33.8881 23.5253 33.048 25.4716C31.4275 29.2257 27.8115 34.41 19.9996 35.7143C12.1877 34.41 8.57166 29.2257 6.95117 25.4716C6.11104 23.5253 5.91366 21.3841 5.88149 19.2638L5.71387 8.21434L19.9996 4.28577L34.2853 8.21434Z" fill="black"/>
<path fill-rule="evenodd" clip-rule="evenodd" d="M19.286 21.1108L18.2005 23.7472L17.6488 25.087L16.9847 26.6998L16.4356 28.0333L15.6608 29.9149L14.3398 29.371L19.3398 17.2281H20.6608L25.6608 29.371L24.3398 29.9149L23.5651 28.0333L23.016 26.6998L22.3519 25.087L21.8002 23.7472L20.7146 21.1108V24.4256V26.1103V28.0422V29.6961V31.7858H19.286V29.6961V28.0422V26.1103V24.4256V21.1108Z" fill="black"/>
<path d="M18.2005 23.7472L17.6488 25.087L19.286 26.1103V24.4256L18.2005 23.7472Z" fill="black"/>
<path d="M19.286 29.6961V28.0422L16.9847 26.6998L16.4356 28.0333L19.286 29.6961Z" fill="black"/>
<path d="M23.5651 28.0333L23.016 26.6998L20.7146 28.0422V29.6961L23.5651 28.0333Z" fill="black"/>
<path d="M21.8002 23.7472L20.7146 24.4256V26.1103L22.3519 25.087L21.8002 23.7472Z" fill="black"/>
<path fill-rule="evenodd" clip-rule="evenodd" d="M20.0003 16.0714C20.5921 16.0714 21.0718 15.5917 21.0718 15C21.0718 14.4083 20.5921 13.9286 20.0003 13.9286C19.4086 13.9286 18.9289 14.4083 18.9289 15C18.9289 15.5917 19.4086 16.0714 20.0003 16.0714ZM20.0003 17.5C21.381 17.5 22.5003 16.3807 22.5003 15C22.5003 13.6193 21.381 12.5 20.0003 12.5C18.6196 12.5 17.5003 13.6193 17.5003 15C17.5003 16.3807 18.6196 17.5 20.0003 17.5Z" fill="black"/>
<path fill-rule="evenodd" clip-rule="evenodd" d="M23.9284 14.9313C23.9139 14.1018 23.6372 13.2982 23.1379 12.6356L24.2788 11.7759C24.9597 12.6794 25.337 13.7752 25.3567 14.9064C25.3765 16.0375 25.0376 17.1459 24.3887 18.0726L23.2185 17.2532C23.6944 16.5736 23.9429 15.7608 23.9284 14.9313Z" fill="black"/>
<path fill-rule="evenodd" clip-rule="evenodd" d="M16.8629 12.6356C16.3636 13.2982 16.0869 14.1018 16.0724 14.9313C16.058 15.7608 16.3065 16.5736 16.7823 17.2532L15.6121 18.0726C14.9632 17.1459 14.6243 16.0375 14.6441 14.9064C14.6638 13.7752 15.0412 12.6794 15.722 11.7759L16.8629 12.6356Z" fill="black"/>
<path fill-rule="evenodd" clip-rule="evenodd" d="M26.7851 14.8815C26.7601 13.4487 26.2821 12.0606 25.4197 10.9161L26.5606 10.0564C27.6046 11.4418 28.1832 13.1221 28.2135 14.8565C28.2437 16.5909 27.7241 18.2904 26.7292 19.7114L25.559 18.892C26.3809 17.7182 26.8101 16.3142 26.7851 14.8815Z" fill="black"/>
<path fill-rule="evenodd" clip-rule="evenodd" d="M14.5811 10.9161C13.7187 12.0606 13.2407 13.4487 13.2157 14.8815C13.1907 16.3142 13.62 17.7182 14.4419 18.892L13.2717 19.7114C12.2767 18.2904 11.7571 16.5909 11.7874 14.8565C11.8177 13.1221 12.3962 11.4418 13.4402 10.0564L14.5811 10.9161Z" fill="black"/>
</svg>
