<svg width="40" height="40" viewBox="0 0 40 40" fill="none" xmlns="http://www.w3.org/2000/svg">
<path d="M5.95 38.635V30.5968H0V7.92371H21.5287V9.17371H1.24969V29.3468H7.19969V35.7675L14.1091 29.3468H31.025V16.909H32.275V30.5968H14.6L5.95 38.635Z" fill="#F58A1F"/>
<path d="M23.932 14.7552H7.23047V16.0052H23.932V14.7552Z" fill="#F58A1F"/>
<path d="M23.932 18.8046H7.23047V20.0546H23.932V18.8046Z" fill="#F58A1F"/>
<path d="M23.932 22.8568H7.23047V24.1068H23.932V22.8568Z" fill="#F58A1F"/>
<path d="M36.6817 18.4816L31.2683 14.4406L25.8533 18.4812L27.9217 11.9437L22.5352 7.92374H29.1933L31.2683 1.36499L33.3433 7.92374H39.9995L34.6139 11.9437L36.6817 18.4816ZM26.2998 9.17374L29.3814 11.4734L28.2152 15.1594L31.2683 12.8812L34.3202 15.1591L33.1545 11.4734L36.2358 9.17374H32.428L31.2683 5.50843L30.1089 9.17374H26.2998Z" fill="#4C009F"/>
</svg>
