<svg width="40" height="40" viewBox="0 0 40 40" fill="none" xmlns="http://www.w3.org/2000/svg">
<path d="M37.5692 10.0579L37.4404 9.45615L36.2177 9.71784L36.3465 10.3196L37.5692 10.0579Z" fill="#140029"/>
<path d="M36.0169 8.77999L35.8138 7.82874L37.0363 7.56749L37.2394 8.51874L36.0169 8.77999ZM35.6104 6.87781L35.4072 5.92687L36.6297 5.66562L36.8329 6.61656L35.6104 6.87781Z" fill="#140029"/>
<path d="M35.2329 5.04562L35.2298 5.0325L35.2164 5.03531L35.0876 4.43375L35.0976 4.43187L34.9639 3.825L36.1786 3.5575L36.4389 4.77343L35.8314 4.90375L35.8336 4.91343L35.2329 5.04562Z" fill="#140029"/>
<path d="M11.7342 10.2328L11.4648 9.01218L12.6408 8.7525L12.9102 9.97312L11.7342 10.2328ZM14.0858 9.71375L13.8164 8.49312L14.9923 8.23343L15.2617 9.45406L14.0858 9.71375ZM16.4377 9.19468L16.1683 7.97406L17.3442 7.71437L17.6136 8.935L16.4377 9.19468ZM18.7892 8.67562L18.5198 7.455L19.6958 7.19531L19.9652 8.41593L18.7892 8.67562ZM21.1408 8.15656L20.8717 6.93593L22.048 6.67625L22.317 7.89687L21.1408 8.15656ZM23.493 7.63718L23.2239 6.41656L24.3998 6.15718L24.6689 7.37781L23.493 7.63718ZM25.8445 7.11812L25.5755 5.8975L26.7514 5.63812L27.0205 6.85875L25.8445 7.11812ZM28.1964 6.59906L27.9273 5.37843L29.1033 5.11906L29.3723 6.33968L28.1964 6.59906ZM30.5483 6.08L30.2792 4.85937L31.4552 4.6L31.7242 5.82062L30.5483 6.08ZM32.8998 5.56093L32.6308 4.34031L33.8067 4.08093L34.0758 5.30156L32.8998 5.56093Z" fill="#140029"/>
<path d="M10.4638 10.7669L9.35254 10.195L9.76816 9.38624L10.656 9.19061L10.925 10.4112L10.6113 10.4806L10.4638 10.7669Z" fill="#140029"/>
<path d="M7.49309 16.5341L6.38184 15.9619L6.87809 14.9981L7.98934 15.5703L7.49309 16.5341ZM8.4859 14.6069L7.37465 14.0347L7.8709 13.0709L8.98215 13.6431L8.4859 14.6069ZM9.47871 12.6794L8.36746 12.1072L8.86371 11.1434L9.97496 11.7156L9.47871 12.6794Z" fill="#140029"/>
<path d="M7.04362 17.407L5.93262 16.8342L5.65068 17.3811L6.76168 17.9539L7.04362 17.407Z" fill="#140029"/>
<path d="M39.9997 36.4425H12.9747L2.91406 24.2078L12.9747 11.9734H39.9997V36.4425ZM13.5653 35.1925H38.7497V13.2234H13.5653L4.53219 24.2078L13.5653 35.1925ZM12.8912 27.2009C11.2619 27.2009 9.93625 25.8584 9.93625 24.2084C9.93625 22.5587 11.2619 21.2166 12.8912 21.2166C14.5206 21.2166 15.8462 22.5587 15.8462 24.2084C15.8462 25.8584 14.5206 27.2009 12.8912 27.2009ZM12.8912 22.4666C11.9512 22.4666 11.1862 23.2481 11.1862 24.2084C11.1862 25.1694 11.9512 25.9509 12.8912 25.9509C13.8312 25.9509 14.5962 25.1694 14.5962 24.2084C14.5962 23.2481 13.8312 22.4666 12.8912 22.4666Z" fill="#140029"/>
<path d="M21.6668 31.2187L22.54 26.0447L18.8506 22.3894L23.9503 21.6369L26.2418 16.9175L28.535 21.6369L33.6343 22.3894L29.9453 26.045L30.8184 31.2187L26.2421 28.7759L21.6668 31.2187ZM26.2425 27.3587L29.1628 28.9178L28.6053 25.6134L30.9793 23.2612L27.7 22.7772L26.2431 19.7787L24.7871 22.7772L21.5068 23.2612L23.8809 25.6134L23.3234 28.9178L26.2425 27.3587Z" fill="#140029"/>
<path d="M12.3744 23.5828H0V24.8328H12.3744V23.5828Z" fill="#140029"/>
</svg>
