<?xml version="1.0" standalone="no"?>
<!DOCTYPE svg PUBLIC "-//W3C//DTD SVG 20010904//EN"
 "http://www.w3.org/TR/2001/REC-SVG-20010904/DTD/svg10.dtd">
<svg version="1.0" xmlns="http://www.w3.org/2000/svg"
 width="168.000000pt" height="169.000000pt" viewBox="0 0 168.000000 169.000000"
 preserveAspectRatio="xMidYMid meet">

<g transform="translate(0.000000,169.000000) scale(0.100000,-0.100000)"
fill="#000000" stroke="none">
<path d="M47 1564 c-15 -8 -32 -26 -37 -40 -6 -15 -10 -250 -10 -574 l0 -550
29 -32 29 -33 286 -3 286 -3 0 -55 c0 -75 -28 -104 -100 -104 -49 0 -50 -1
-50 -30 l0 -30 360 0 360 0 0 30 c0 29 -1 30 -50 30 -72 0 -100 29 -100 104
l0 55 286 3 286 3 29 33 29 32 0 551 c0 599 0 598 -56 619 -15 6 -325 10 -787
10 -661 -1 -766 -3 -790 -16z m1561 -56 c9 -9 12 -126 12 -465 l0 -453 -780 0
-780 0 0 453 c0 339 3 456 12 465 17 17 1519 17 1536 0z m10 -1040 l-3 -63
-775 0 -775 0 -3 63 -3 62 781 0 781 0 -3 -62z m-628 -192 c0 -30 4 -66 10
-80 l10 -26 -170 0 -170 0 10 26 c6 14 10 50 10 80 l0 54 150 0 150 0 0 -54z"/>
<path d="M120 1055 l0 -405 210 0 210 0 0 30 0 30 -180 0 -180 0 0 345 0 345
660 0 660 0 0 -345 0 -345 -180 0 -180 0 0 -30 0 -30 210 0 210 0 0 405 0 405
-720 0 -720 0 0 -405z"/>
<path d="M778 1303 c-2 -32 -9 -41 -39 -57 l-36 -19 -37 28 -37 28 -39 -38
-40 -39 26 -34 c25 -32 26 -37 14 -73 -12 -35 -17 -39 -56 -45 l-44 -6 0 -54
0 -53 44 -6 c39 -6 45 -10 56 -45 12 -35 11 -40 -14 -72 l-26 -34 40 -39 39
-38 35 27 c35 26 35 26 73 9 33 -16 38 -23 41 -56 l3 -37 60 0 59 0 0 33 c0
40 7 49 49 64 30 11 36 10 68 -14 l34 -26 39 38 40 39 -26 34 c-25 32 -26 37
-14 72 11 35 17 39 56 45 l44 6 0 53 0 54 -44 6 c-39 6 -44 10 -56 45 -12 36
-11 41 14 73 l26 34 -40 39 -39 38 -36 -27 c-33 -26 -39 -27 -68 -15 -40 16
-47 26 -47 67 l0 32 -59 0 -60 0 -3 -37z m72 -37 c0 -36 10 -56 29 -56 9 0 34
-9 56 -20 49 -25 51 -25 83 1 33 26 43 7 13 -25 l-22 -23 26 -54 c13 -30 25
-59 25 -66 0 -6 14 -13 32 -15 45 -4 49 -28 4 -28 -31 0 -37 -4 -42 -27 -4
-16 -16 -45 -26 -67 -19 -38 -19 -38 1 -60 21 -22 28 -46 14 -46 -4 0 -17 10
-29 21 l-23 22 -50 -22 c-27 -11 -56 -21 -64 -21 -17 0 -27 -21 -27 -56 0 -13
-4 -24 -10 -24 -5 0 -10 11 -10 24 0 35 -10 56 -27 56 -8 0 -37 10 -64 21
l-50 22 -23 -22 c-12 -11 -25 -21 -29 -21 -14 0 -7 24 13 45 l21 22 -26 54
c-13 30 -25 60 -25 67 0 7 -14 12 -36 12 -45 0 -42 24 4 28 18 2 32 9 32 15 0
7 12 36 25 66 l26 54 -22 23 c-30 32 -20 51 13 25 32 -26 34 -26 83 -1 22 11
47 20 56 20 19 0 29 20 29 56 0 13 5 24 10 24 6 0 10 -11 10 -24z"/>
<path d="M775 1166 c-147 -54 -154 -272 -11 -337 79 -36 169 -13 222 57 26 33
29 46 29 109 0 63 -3 76 -28 108 -50 65 -135 91 -212 63z m153 -80 c34 -32 37
-39 37 -90 0 -47 -4 -59 -29 -85 -59 -62 -133 -62 -192 0 -25 26 -29 38 -29
85 0 51 3 58 37 90 33 29 45 34 88 34 43 0 55 -5 88 -34z"/>
</g>
</svg>
