<svg width="40" height="40" viewBox="0 0 40 40" fill="none" xmlns="http://www.w3.org/2000/svg">
<path d="M40 6.0534H0V0.238403H40V6.0534ZM1.25 4.8034H38.75V1.4884H1.25V4.8034Z" fill="#F58A1F"/>
<path d="M40.0003 29.7047H24.6719V28.4547H38.7503V12.674L35.7662 16.07L33.5113 14.5978L29.6419 18.5309L28.7506 17.654L33.3381 12.9915L35.5422 14.4309L40.0003 9.35779V29.7047Z" fill="#F58A1F"/>
<path d="M15.23 29.7047H0V19.805L4.17625 22.4462L10.9209 18.0353L11.6053 19.0815L4.1875 23.9325L1.25 22.0747V28.4547H15.23V29.7047Z" fill="#F58A1F"/>
<path d="M3.86613 2.4884H2.39551V3.7384H3.86613V2.4884Z" fill="#F58A1F"/>
<path d="M6.41266 2.4884H4.94141V3.7384H6.41266V2.4884Z" fill="#F58A1F"/>
<path d="M8.95855 2.4884H7.4873V3.7384H8.95855V2.4884Z" fill="#F58A1F"/>
<path d="M20.0529 27.5162C17.4313 27.5162 14.9691 26.4887 13.1197 24.6231C9.30254 20.7749 9.30098 14.509 13.1166 10.6556C14.9591 8.79555 17.4138 7.76774 20.0291 7.76086C22.67 7.76086 25.1288 8.78805 26.9757 10.6534C28.8229 12.5146 29.8416 14.9949 29.8432 17.6371C29.845 20.2762 28.8285 22.7571 26.9804 24.6224C25.1375 26.4818 22.6835 27.5096 20.071 27.5165H20.0529V27.5162ZM20.0519 9.01086C17.7519 9.0168 15.6113 9.91305 14.0047 11.5349C10.6697 14.9027 10.671 20.3796 14.0072 23.7427C15.6204 25.3699 17.7672 26.2659 20.0529 26.2659V26.8909L20.0682 26.2659C22.3457 26.2596 24.485 25.3637 26.0922 23.7421C27.7066 22.1127 28.595 19.9449 28.5932 17.6377C28.5916 15.3271 27.7019 13.1593 26.0879 11.5331C24.4769 9.90649 22.3338 9.01086 20.0519 9.01086Z" fill="#4C009F"/>
<path d="M22.449 39.7615H17.6475V30.7659H22.449V39.7615ZM18.8975 38.5115H21.199V32.0159H18.8975V38.5115Z" fill="#4C009F"/>
<path d="M18.8857 30.7103L17.6357 30.71L17.6367 28.3175L22.4614 28.3181V30.71H21.2114V29.5681L18.8864 29.5675L18.8857 30.7103Z" fill="#4C009F"/>
<path d="M20.8125 26.5343H19.5625V28.4902H20.8125V26.5343Z" fill="#4C009F"/>
<path d="M17.8353 21.7716L13.2422 20.0681L13.6769 18.8963L17.4866 20.3091L22.9387 14.4241L27.1356 17.1122L26.4613 18.1647L23.145 16.0406L17.8353 21.7716Z" fill="#F58A1F"/>
<path d="M20.0446 25.0727C18.078 25.0727 16.2277 24.2981 14.8349 22.8921C13.4434 21.4874 12.6771 19.6224 12.6777 17.6412C12.6777 15.6637 13.4412 13.8018 14.8274 12.3984C16.2215 10.9849 18.0755 10.2062 20.0474 10.2062C22.019 10.2062 23.8705 10.9809 25.263 12.3871C26.6559 13.7899 27.4234 15.6549 27.424 17.6381C27.4249 19.6143 26.6621 21.4756 25.2752 22.879C23.8796 24.2927 22.024 25.0721 20.0505 25.0727H20.0446ZM20.0493 11.4565C18.4124 11.4565 16.8746 12.1027 15.7168 13.2768C14.5627 14.4449 13.9274 15.9949 13.9274 17.6418C13.9271 19.2912 14.5646 20.8437 15.7227 22.0124C16.8793 23.1796 18.414 23.8227 20.0446 23.8227V24.4477L20.0496 23.8227C21.6865 23.8221 23.2265 23.1752 24.3855 22.0006C25.5396 20.8331 26.1749 19.2843 26.174 17.639C26.173 15.9877 25.5343 14.4352 24.3752 13.2677C23.2187 12.0996 21.6827 11.4565 20.0493 11.4565Z" fill="#4C009F"/>
<path d="M1.25 5.05872H0V18.5556H1.25V5.05872Z" fill="#F58A1F"/>
<path d="M40 5.05872H38.75V7.90372H40V5.05872Z" fill="#F58A1F"/>
</svg>
