<svg width="60" height="60" viewBox="0 0 60 60" fill="none" xmlns="http://www.w3.org/2000/svg">
<g clip-path="url(#clip0_3613_311091)">
<path d="M33.658 32.7313C28.2786 32.7313 23.9033 28.3715 23.9033 23.0132V15.914C23.9033 10.5562 28.2786 6.19775 33.658 6.19775C39.036 6.19775 43.4122 10.5562 43.4122 15.914V23.0132C43.4118 28.3715 39.0355 32.7313 33.658 32.7313ZM33.658 8.07322C29.3127 8.07322 25.7779 11.5907 25.7779 15.9145V23.0137C25.7779 27.3388 29.3127 30.8568 33.658 30.8568C38.0024 30.8568 41.5372 27.3384 41.5372 23.0137V15.914C41.5368 11.5907 38.0019 8.07322 33.658 8.07322Z" fill="#F58A1F"/>
<path d="M54.1033 59.9978H52.2283V31.232C52.2283 29.5848 50.8825 28.2451 49.2283 28.2451H41.3407V26.3701H49.2278C51.9157 26.3701 54.1028 28.5507 54.1028 31.232V59.9978H54.1033ZM15.0869 59.9978H13.2119V31.232C13.2119 28.5507 15.3996 26.3701 18.0879 26.3701H25.9718V28.2451H18.0879C16.4327 28.2451 15.0869 29.5848 15.0869 31.232V59.9978Z" fill="#F58A1F"/>
<path d="M38.628 59.9999H13.1172V58.1249H38.628C40.9023 58.1249 42.7525 56.2837 42.7525 54.0196C42.7525 51.7555 40.9023 49.9138 38.628 49.9138H33.1881V48.0388H38.628C41.9369 48.0388 44.6275 50.7215 44.6275 54.0196C44.6275 57.3173 41.9369 59.9999 38.628 59.9999Z" fill="#F58A1F"/>
<path d="M19.4941 27.3075H21.3691V59.0625H19.4941V27.3075ZM42.0012 40.7559H43.8762V51.1218H42.0012V40.7559ZM28.4505 29.2537L38.2029 58.7498L36.423 59.3386L26.6707 29.842L28.4505 29.2537ZM27.6982 9.33887L43.0788 19.4236L42.0504 20.9915L26.6702 10.9064L27.6982 9.33887Z" fill="#F58A1F"/>
<path d="M13.7664 18.3979L16.2976 22.7653L14.6753 23.7056L12.144 19.3383L13.7664 18.3979ZM8.20559 23.3906L12.5903 25.9115L11.6556 27.5372L7.2709 25.0158L8.20559 23.3906ZM5.89746 30.4833H10.9595V32.3583H5.89746V30.4833Z" fill="#4C009F"/>
<path d="M46.5971 11.8941H51.6648V13.7691H46.5971V11.8941ZM49.1659 4.85445L50.1005 6.47914L45.7168 9.00102L44.7821 7.37633L49.1659 4.85445ZM43.4654 0.00195312L45.0873 0.942266L42.5579 5.30867L40.9355 4.36883L43.4654 0.00195312Z" fill="#4C009F"/>
</g>
<defs>
<clipPath id="clip0_3613_311091">
<rect width="60" height="60" fill="white"/>
</clipPath>
</defs>
</svg>
