<svg width="40" height="40" viewBox="0 0 40 40" fill="none" xmlns="http://www.w3.org/2000/svg">
<path d="M37.3419 38.9175H2.65844C1.1925 38.9175 0 37.7119 0 36.2294V15.2594C0 13.7772 1.1925 12.5713 2.65844 12.5713H13.4937V13.8213H2.65844C1.88188 13.8216 1.25 14.4666 1.25 15.2594V36.2294C1.25 37.0222 1.88188 37.6675 2.65844 37.6675H37.3419C38.1181 37.6675 38.75 37.0225 38.75 36.2294V15.2597C38.75 14.4669 38.1184 13.8216 37.3419 13.8216V12.5716C38.8075 12.5716 40 13.7772 40 15.2597V36.2297C40 37.7119 38.8078 38.9175 37.3419 38.9175Z" fill="#F58A1F"/>
<path d="M10.1764 26.5641H3.29395V27.8141H10.1764V26.5641Z" fill="#F58A1F"/>
<path d="M17.9771 31.2413H3.29395V32.4913H17.9771V31.2413Z" fill="#F58A1F"/>
<path d="M18.7939 26.5641H11.9111V27.8141H18.7939V26.5641Z" fill="#F58A1F"/>
<path d="M27.4127 26.5641H20.5293V27.8141H27.4127V26.5641Z" fill="#F58A1F"/>
<path d="M36.03 26.5641H29.1475V27.8141H36.03V26.5641Z" fill="#F58A1F"/>
<path d="M10.7674 23.6951H2.94238V17.8051H10.7674V23.6951ZM4.19238 22.4451H9.51738V19.0551H4.19238V22.4451Z" fill="#F58A1F"/>
<path d="M25.5927 24.0813L25.4152 24.0288C20.6952 22.6303 15.2773 20.0941 15.2773 12.8297V4.00096L15.9998 4.11502C17.2189 4.30752 18.5767 4.27627 19.9164 4.02377C22.0473 3.62189 23.9558 2.70939 25.152 1.52033L25.5927 1.08252L26.0333 1.52033C27.2295 2.70939 29.138 3.62189 31.2689 4.02377C32.608 4.27627 33.967 4.30721 35.1848 4.11502L35.9077 4.00096V12.8297C35.9077 20.0935 30.4902 22.63 25.7705 24.0288L25.5927 24.0813ZM16.5273 5.43939V12.8294C16.5273 17.8735 19.2408 20.8556 25.5927 22.7766C31.9442 20.8553 34.6577 17.8731 34.6577 12.8294V5.43939C33.4958 5.54658 32.2602 5.48252 31.0373 5.25189C28.9077 4.85033 26.9595 3.97221 25.5927 2.81096C24.2258 3.97221 22.278 4.85002 20.1477 5.25189C18.9252 5.48283 17.6905 5.54627 16.5273 5.43939Z" fill="#4C009F"/>
<path d="M25.5927 21.0022L25.3983 20.9385C20.2746 19.2622 18.1846 16.9129 18.1846 12.8297V7.19131L18.7614 7.14662C19.3211 7.1035 19.888 7.02818 20.4471 6.92318C22.2121 6.59037 23.8789 5.966 25.2674 5.1185L25.5933 4.91943L25.9193 5.11881C27.3039 5.966 28.9699 6.59006 30.7374 6.92318C31.2964 7.02818 31.8636 7.1035 32.4239 7.14662L33.0008 7.19131V12.8297C33.0008 16.9122 30.9108 19.2619 25.7874 20.9385L25.5927 21.0022ZM19.4346 8.3385V12.8297C19.4346 16.3101 21.108 18.1822 25.593 19.6863C30.0777 18.1819 31.7508 16.3094 31.7508 12.8297V8.3385C31.3352 8.29193 30.9186 8.22912 30.5064 8.15162C28.7268 7.81631 27.0364 7.20537 25.5927 6.37818C24.1461 7.20537 22.4555 7.81662 20.6786 8.15162C20.2664 8.22912 19.8499 8.29162 19.4346 8.3385Z" fill="#4C009F"/>
<path d="M25.3293 14.5031L23.3105 13.1819L23.9952 12.1359L25.0552 12.83L27.0415 10.3047L28.0243 11.0772L25.3293 14.5031Z" fill="#4C009F"/>
</svg>
