<svg width="40" height="40" viewBox="0 0 40 40" fill="none" xmlns="http://www.w3.org/2000/svg">
<path d="M20.1575 32.35L10.7379 22.9284C8.21629 20.4072 8.21629 16.3034 10.7379 13.7812L10.8269 13.6931C12.046 12.4737 13.6704 11.8009 15.3982 11.8009C17.1263 11.8009 18.7507 12.4737 19.9722 13.6956L20.1575 13.8812L20.3435 13.6956C21.565 12.474 23.1894 11.8009 24.9172 11.8009C26.645 11.8009 28.2691 12.4737 29.4907 13.6956L29.5754 13.7797C30.7988 15.0031 31.4713 16.6275 31.4716 18.3553C31.4716 20.0831 30.7988 21.7075 29.5769 22.9287L20.1575 32.35ZM15.3982 13.0506C14.0041 13.0506 12.6938 13.5934 11.7085 14.579L11.6194 14.6672C9.58754 16.6997 9.58754 20.0103 11.6216 22.0443L20.1575 30.5812L28.6929 22.0443C29.6785 21.0593 30.2216 19.7487 30.2216 18.3547C30.2216 16.9606 29.6788 15.6503 28.6929 14.6643L28.6082 14.5803C27.621 13.5928 26.3107 13.0503 24.9169 13.0503C23.5232 13.0503 22.2129 13.5931 21.2269 14.5787L20.1572 15.6484L19.0879 14.5787C18.1025 13.5934 16.7922 13.0506 15.3982 13.0506Z" fill="#4C009F"/>
<path d="M20.3193 0.000366211H19.0693V4.12224H20.3193V0.000366211Z" fill="#F58A1F"/>
<path d="M12.3373 6.08944L10.2764 2.5199L9.19387 3.1449L11.2548 6.71444L12.3373 6.08944Z" fill="#F58A1F"/>
<path d="M6.40868 11.7846L2.83887 9.72351L2.21387 10.806L5.78368 12.8671L6.40868 11.7846Z" fill="#F58A1F"/>
<path d="M4.12219 19.6803H0V20.9303H4.12219V19.6803Z" fill="#F58A1F"/>
<path d="M6.7139 28.7445L6.08887 27.6616L2.51864 29.7223L3.14367 30.8052L6.7139 28.7445Z" fill="#F58A1F"/>
<path d="M12.8677 34.2146L11.7852 33.5896L9.72375 37.16L10.8063 37.785L12.8677 34.2146Z" fill="#F58A1F"/>
<path d="M20.9307 35.8778H19.6807V39.9994H20.9307V35.8778Z" fill="#F58A1F"/>
<path d="M40.0001 19.0691H35.8779V20.3191H40.0001V19.0691Z" fill="#F58A1F"/>
<path d="M37.4785 10.276L36.8535 9.19348L33.2837 11.2546L33.9087 12.3371L37.4785 10.276Z" fill="#F58A1F"/>
<path d="M30.2772 2.83841L29.1943 2.21338L27.1337 5.78361L28.2166 6.40864L30.2772 2.83841Z" fill="#F58A1F"/>
<path d="M29.2886 38.3516L24.4336 24.04L38.7461 28.8947L34.4105 30.5532L38.0477 34.191L34.5845 37.6541L30.9477 34.0169L29.2886 38.3516ZM30.4689 31.77L34.5842 35.8863L36.2798 34.1907L32.1636 30.0738L35.0623 28.9647L26.4311 26.0375L29.3592 34.6691L30.4689 31.77Z" fill="#F58A1F"/>
</svg>
