<svg width="96" height="96" viewBox="0 0 96 96" fill="none" xmlns="http://www.w3.org/2000/svg">
<g clip-path="url(#clip0_2903_81270)">
<path d="M47.9997 96C21.7707 96 0.431641 74.4675 0.431641 48C0.431641 21.5325 21.7707 0 47.9997 0C74.2287 0 95.5677 21.5325 95.5677 48H92.5677C92.5677 23.187 72.575 3 47.9997 3C23.4244 3 3.43164 23.187 3.43164 48C3.43164 72.813 23.4244 93 47.9997 93V96Z" fill="#00C791"/>
<path d="M95.544 49.5135L92.5455 49.4138C92.5613 48.9443 92.568 48.4725 92.568 48H95.568C95.568 48.5063 95.5605 49.0102 95.544 49.5135ZM51.0668 95.9018L50.8748 92.9077C51.8489 92.8451 52.8207 92.7503 53.7885 92.6235L54.1785 95.5987C53.1448 95.7337 52.107 95.8348 51.0668 95.9018ZM57.345 95.073L56.7563 92.1315C57.7313 91.9358 58.7145 91.7033 59.6798 91.4392L60.4725 94.332C59.4389 94.615 58.3957 94.8621 57.345 95.073ZM63.54 93.3787L62.553 90.546C63.499 90.2162 64.4335 89.8545 65.355 89.4615L66.5325 92.22C65.5484 92.64 64.5503 93.0264 63.54 93.3787ZM69.4395 90.8595L68.0775 88.1865C68.9702 87.7306 69.8475 87.2451 70.7078 86.7308L72.249 89.3047C71.33 89.8539 70.3929 90.3724 69.4395 90.8595ZM74.9453 87.561L73.233 85.0972C74.0571 84.5248 74.8618 83.925 75.6458 83.2988L77.5178 85.6425C76.6815 86.31 75.8235 86.9498 74.9453 87.561ZM79.9575 83.5537L77.9318 81.342C78.6719 80.664 79.3891 79.9614 80.082 79.2353L82.2518 81.3083C81.5123 82.0821 80.7471 82.831 79.9575 83.5537ZM84.39 78.9143L82.089 76.9897C82.7328 76.2198 83.3504 75.4283 83.9408 74.6167L86.3663 76.3823C85.7355 77.2477 85.0764 78.0921 84.39 78.9143ZM88.1678 73.7235L85.6305 72.1238C86.1659 71.2743 86.6724 70.4071 87.1493 69.5235L89.7893 70.95C89.2798 71.8923 88.739 72.8173 88.1678 73.7235ZM91.2218 68.073L88.4925 66.828C88.9091 65.9139 89.2956 64.9864 89.6513 64.047L92.4578 65.1075C92.0785 66.1093 91.6663 67.0984 91.2218 68.073ZM93.4935 62.0647L90.6225 61.1948C90.9135 60.2343 91.1727 59.2646 91.3995 58.287L94.3215 58.9635C94.0801 60.0062 93.8039 61.0405 93.4935 62.0647ZM94.9418 55.8135L91.98 55.3342C92.1405 54.3472 92.2695 53.3422 92.364 52.3477L95.3505 52.632C95.2484 53.6966 95.1121 54.7577 94.9418 55.8135ZM48 96V93C48.4755 93 48.9503 92.991 49.422 92.979L49.5037 95.9775C49.0042 95.991 48.5033 96 48 96Z" fill="#00C791"/>
<path d="M26.3984 52.633L40.1557 66.7015L70.3237 36.2568L63.4267 29.2923L40.2547 52.6803L33.3014 45.6618L26.3984 52.633Z" stroke="#00C791" stroke-width="3"/>
</g>
<defs>
<clipPath id="clip0_2903_81270">
<rect width="96" height="96" fill="white"/>
</clipPath>
</defs>
</svg>
