<svg width="60" height="60" viewBox="0 0 60 60" fill="none" xmlns="http://www.w3.org/2000/svg">
<path d="M17.9922 8.40845H45.6283V10.2834H17.9922V8.40845Z" fill="#F58A1F"/>
<path d="M14.934 49.4629H8.12402V42.6028H14.934V49.4629ZM9.99902 47.5879H13.059V44.4773H9.99902V47.5879Z" fill="#4C009F"/>
<path d="M60 22.9734H0V8.40845H8.91234V10.2834H1.875V21.0984H58.125V10.2834H54.3141V8.40845H60V22.9734ZM47.8008 29.5097H50.6784V31.3847H47.8008V29.5097ZM40.2727 29.5097H43.1517V31.3847H40.2727V29.5097ZM32.7445 29.5097H35.6231V31.3847H32.7445V29.5097ZM25.2169 29.5097H28.095V31.3847H25.2169V29.5097ZM17.6887 29.5097H20.5678V31.3847H17.6887V29.5097ZM10.1602 29.5097H13.0411V31.3847H10.1602V29.5097ZM47.8008 37.2478H50.6784V39.1228H47.8008V37.2478ZM40.2727 37.2478H43.1517V39.1228H40.2727V37.2478ZM25.2169 37.2478H28.095V39.1228H25.2169V37.2478ZM17.6887 37.2478H20.5678V39.1228H17.6887V37.2478Z" fill="#F58A1F"/>
<path d="M10.1602 37.2478H13.0411V39.1228H10.1602V37.2478Z" fill="#F58A1F"/>
<path d="M47.8015 45.0957H50.6791V46.9707H47.8015V45.0957ZM40.2734 45.0957H43.1524V46.9707H40.2734V45.0957ZM32.7452 45.0957H35.6238V46.9707H32.7452V45.0957ZM25.2176 45.0957H28.0957V46.9707H25.2176V45.0957ZM17.6895 45.0957H20.5685V46.9707H17.6895V45.0957Z" fill="#F58A1F"/>
<path d="M58.8174 56.5917H1.18555V25.6978H3.06055V54.7167H56.9424V25.6978H58.8174V56.5917Z" fill="#F58A1F"/>
<path d="M51.6648 16.3518H44.9041V3.4082H51.6648V16.3518ZM46.7791 14.4768H49.7898V5.2832H46.7791V14.4768ZM15.0963 16.3518H8.33594V3.4082H15.0963V16.3518ZM10.2109 14.4768H13.2212V5.2832H10.2109V14.4768Z" fill="#F58A1F"/>
<path d="M37.538 41.615H30.7285V34.7544H37.538V41.615ZM32.6035 39.74H35.663V36.6289H32.6035V39.74Z" fill="#4C009F"/>
</svg>
