<svg width="60" height="60" viewBox="0 0 60 60" fill="none" xmlns="http://www.w3.org/2000/svg">
<g clip-path="url(#clip0_3613_311096)">
<path d="M17.0684 32.2595H42.933V34.1345H17.0684V32.2595ZM17.0684 25.8652H42.933V27.7402H17.0684V25.8652Z" fill="#F58A1F"/>
<path d="M17.9583 43.164H9.96984V16.8362H17.9583V43.164ZM11.8448 41.289H16.0833V18.7112H11.8448V41.289ZM0 24.3568H1.875V35.6434H0V24.3568Z" fill="#F58A1F"/>
<path d="M11.9396 43.164H3.95117V16.8362H11.9396V43.164ZM5.82617 41.289H10.0646V18.7112H5.82617V41.289ZM50.0307 43.164H42.0427V16.8362H50.0307V43.164ZM43.9177 41.289H48.1557V18.7112H43.9177V41.289ZM58.126 24.3568H60.001V35.6434H58.126V24.3568Z" fill="#F58A1F"/>
<path d="M56.0495 43.164H48.0615V16.8362H56.0495V43.164ZM49.9365 41.289H54.1745V18.7112H49.9365V41.289Z" fill="#F58A1F"/>
<path d="M27.9807 6.01636H29.8557V12.5057H27.9807V6.01636ZM21.6141 7.23839L23.8341 13.3373L22.0721 13.9785L19.8525 7.87964L21.6141 7.23839ZM22.5994 46.2145L24.3614 46.8567L22.1396 52.9551L20.3775 52.3129L22.5994 46.2145ZM28.5446 47.4937H30.4196V53.9835H28.5446V47.4937ZM36.3305 46.0209L38.5477 52.1193L36.7852 52.7601L34.568 46.6617L36.3305 46.0209ZM36.2588 7.04526L38.0204 7.68745L35.7985 13.785L34.0374 13.1432L36.2588 7.04526Z" fill="#4C009F"/>
</g>
<defs>
<clipPath id="clip0_3613_311096">
<rect width="60" height="60" fill="white"/>
</clipPath>
</defs>
</svg>
