<svg width="21" height="17" viewBox="0 0 21 17" fill="none" xmlns="http://www.w3.org/2000/svg">
<path d="M18.1466 4.67161C18.898 4.10776 19.5745 3.43113 20.1004 2.64173C19.4241 2.94245 18.6351 3.168 17.8461 3.24318C18.6726 2.7545 19.2738 2.0027 19.5745 1.06294C18.8229 1.51402 17.9587 1.85233 17.0945 2.04028C16.3431 1.25089 15.3286 0.799805 14.2014 0.799805C12.0221 0.799805 10.2562 2.56655 10.2562 4.74679C10.2562 5.04751 10.2938 5.34824 10.3689 5.64896C7.10001 5.46101 4.16928 3.88222 2.21546 1.51402C1.8773 2.07788 1.68943 2.7545 1.68943 3.50631C1.68943 4.85956 2.36575 6.06245 3.45538 6.77667C2.81664 6.73908 2.17789 6.58872 1.65186 6.288V6.32558C1.65186 8.24269 3.00451 9.8215 4.80803 10.1974C4.50744 10.2726 4.13171 10.3478 3.79355 10.3478C3.53054 10.3478 3.30509 10.3102 3.04208 10.2726C3.53054 11.8514 4.9959 12.9791 6.72428 13.0166C5.37163 14.0692 3.68083 14.7083 1.83973 14.7083C1.50157 14.7083 1.20098 14.6706 0.900391 14.6331C2.62877 15.7607 4.69531 16.3998 6.94972 16.3998C14.2014 16.3998 18.1466 10.4229 18.1466 5.19788C18.1466 5.00993 18.1466 4.85956 18.1466 4.67161Z" fill="white"/>
</svg>
