<svg width="24" height="24" viewBox="0 0 24 24" fill="none" xmlns="http://www.w3.org/2000/svg">
<g opacity="0.9">
<path d="M21.5578 7.08976C22.4971 6.38494 23.3426 5.53915 24 4.55241C23.1546 4.92831 22.1684 5.21024 21.1821 5.30421C22.2153 4.69337 22.9668 3.75362 23.3426 2.57892C22.4031 3.14276 21.3229 3.56566 20.2427 3.8006C19.3033 2.81385 18.0353 2.25 16.6262 2.25C13.9021 2.25 11.6947 4.45843 11.6947 7.18373C11.6947 7.55964 11.7417 7.93554 11.8357 8.31144C7.74953 8.07651 4.08611 6.10301 1.64384 3.14276C1.22114 3.84759 0.986303 4.69337 0.986303 5.63314C0.986303 7.3247 1.8317 8.82831 3.19374 9.72108C2.39531 9.67409 1.59687 9.48615 0.939337 9.11024V9.15722C0.939337 11.5536 2.63014 13.5271 4.88455 13.997C4.50882 14.091 4.03915 14.1849 3.61645 14.1849C3.28768 14.1849 3.00588 14.138 2.67712 14.091C3.28768 16.0645 5.11938 17.4741 7.27986 17.521C5.58905 18.8367 3.47554 19.6356 1.17417 19.6356C0.751469 19.6356 0.375735 19.5885 0 19.5416C2.16048 20.9511 4.74365 21.75 7.56167 21.75C16.6262 21.75 21.5578 14.2789 21.5578 7.74759C21.5578 7.51266 21.5578 7.3247 21.5578 7.08976Z" fill="white"/>
</g>
</svg>
