<svg width="60" height="60" viewBox="0 0 60 60" fill="none" xmlns="http://www.w3.org/2000/svg">
<path d="M30.9547 53.0639C20.1397 53.0639 11.3408 44.1094 11.3408 33.1031C11.3408 22.0969 20.1397 13.1423 30.9547 13.1423C41.7697 13.1423 50.5686 22.0969 50.5686 33.1031C50.5686 44.1094 41.7697 53.0639 30.9547 53.0639ZM30.9547 15.0286C21.1794 15.0286 13.2271 23.137 13.2271 33.1036C13.2271 43.0701 21.1799 51.1786 30.9547 51.1786C40.7296 51.1786 48.6824 43.0701 48.6824 33.1036C48.6824 23.137 40.73 15.0286 30.9547 15.0286Z" fill="#F58A1F"/>
<path d="M30.9553 47.2965C23.2627 47.2965 17.0039 40.9294 17.0039 33.1032C17.0039 25.2769 23.2627 18.9099 30.9553 18.9099C38.648 18.9099 44.9072 25.2769 44.9072 33.1032C44.9072 40.9294 38.648 47.2965 30.9553 47.2965ZM30.9553 20.7957C24.3028 20.7957 18.8906 26.3166 18.8906 33.1032C18.8906 39.8893 24.3028 45.4107 30.9553 45.4107C37.6083 45.4107 43.0209 39.8893 43.0209 33.1032C43.0209 26.3171 37.6083 20.7957 30.9553 20.7957Z" fill="#F58A1F"/>
<path d="M5.59547 53.1506C3.87984 53.1506 2.48344 51.7364 2.48344 49.9983V25.32C0.937969 24.3361 0 22.6364 0 20.753V8.625H1.88578V20.753C1.88578 22.1166 2.63531 23.3306 3.84141 23.9222L4.36969 24.1814V49.9983C4.36969 50.6963 4.91953 51.2644 5.595 51.2644C6.27094 51.2644 6.82078 50.6963 6.82078 49.9983V23.9573L7.22906 23.6761C8.18344 23.0203 8.75297 21.9277 8.75297 20.7534V8.625H10.6388V20.7534C10.6404 21.5468 10.4683 22.331 10.1345 23.0508C9.80072 23.7705 9.31331 24.4085 8.70656 24.9197V49.9983C8.70703 51.7364 7.31109 53.1506 5.59547 53.1506Z" fill="#4C009F"/>
<path d="M23.419 33.103H21.5332C21.5332 27.8197 25.7604 23.5222 30.956 23.5222V25.408C26.8001 25.408 23.419 28.8599 23.419 33.103Z" fill="#F58A1F"/>
<path d="M4.37695 8.625H6.26273V17.3405H4.37695V8.625Z" fill="#4C009F"/>
<path d="M56.8873 53.1506C55.1716 53.1506 53.7752 51.7903 53.7752 50.1169V35.587C53.1823 32.7459 52.8691 29.5012 52.8691 26.1942C52.8691 16.9505 55.2368 9.28405 58.6273 7.55155L60.0002 6.84937V50.1169C60.0002 51.7898 58.6038 53.1506 56.8873 53.1506ZM58.114 10.5586C56.3023 13.1578 54.7559 18.893 54.7559 26.1937C54.7559 29.4094 55.062 32.5556 55.6418 35.2931L55.6624 35.4886V50.1164C55.6624 50.7492 56.2123 51.2639 56.8877 51.2639C57.5637 51.2639 58.114 50.7487 58.114 50.1164V10.5586Z" fill="#4C009F"/>
<path d="M54.9162 33.6858H59.8845V35.572H54.9162V33.6858Z" fill="#4C009F"/>
</svg>
