<svg width="40" height="40" viewBox="0 0 40 40" fill="none" xmlns="http://www.w3.org/2000/svg">
<path d="M24.1427 21.3694H22.8883V12.8588H24.9883L20.0005 2.98566L15.0124 12.86H17.1114V21.3694H15.8574V14.1141H12.9736L20.0005 0.204102L27.0268 14.1132H24.1427V21.3694Z" fill="#4C009F"/>
<path d="M17.1115 24.145H15.8574V30.1016H17.1115V24.145Z" fill="#4C009F"/>
<path d="M24.143 24.144H22.8887V30.1012H24.143V24.144Z" fill="#4C009F"/>
<path d="M17.1115 33.2618H15.8574V39.2184H17.1115V33.2618Z" fill="#4C009F"/>
<path d="M24.143 33.2612H22.8887V39.2184H24.143V33.2612Z" fill="#4C009F"/>
<path d="M0 39.7959L5.07688 29.7459L34.9234 29.7444L40 39.7944L0 39.7959ZM5.84844 30.9997L2.03844 38.5416L37.9613 38.54L34.1519 30.9981L5.84844 30.9997Z" fill="#F58A1F"/>
<path d="M4.44336 30.9997L9.52023 20.9497L30.4799 20.9491L35.5568 30.9982L4.44336 30.9997ZM10.2918 22.2041L6.4818 29.746L33.5184 29.7444L29.708 22.2035L10.2918 22.2041Z" fill="#F58A1F"/>
<path d="M0 39.796L12.4278 15.1948L13.5472 15.7601L2.03844 38.5417L37.9616 38.5401L26.4531 15.7592L27.5725 15.1938L40 39.7945L0 39.796Z" fill="#F58A1F"/>
</svg>
