<svg width="40" height="40" viewBox="0 0 40 40" fill="none" xmlns="http://www.w3.org/2000/svg">
<g clip-path="url(#clip0_3517_126106)">
<path fill-rule="evenodd" clip-rule="evenodd" d="M25.7143 14.2857H24.2857H1.42857H0V12.8571H1.42857H24.2857H25.7143V14.2857Z" fill="black"/>
<path d="M3.57143 7.14286C3.57143 6.55112 4.05112 6.07143 4.64286 6.07143H8.21428C8.80602 6.07143 9.28571 6.55112 9.28571 7.14286C9.28571 7.73459 8.80602 8.21429 8.21428 8.21429H4.64286C4.05112 8.21429 3.57143 7.73459 3.57143 7.14286Z" fill="black"/>
<path fill-rule="evenodd" clip-rule="evenodd" d="M4.64286 6.07143C4.05112 6.07143 3.57143 6.55112 3.57143 7.14286C3.57143 7.73459 4.05112 8.21429 4.64286 8.21429H8.21428C8.80602 8.21429 9.28571 7.73459 9.28571 7.14286C9.28571 6.55112 8.80602 6.07143 8.21428 6.07143H4.64286Z" fill="black"/>
<path d="M22.1429 7.14286C22.1429 7.73459 21.6632 8.21429 21.0714 8.21429C20.4797 8.21429 20 7.73459 20 7.14286C20 6.55112 20.4797 6.07143 21.0714 6.07143C21.6632 6.07143 22.1429 6.55112 22.1429 7.14286Z" fill="black"/>
<path d="M18.5714 7.14286C18.5714 7.73459 18.0917 8.21429 17.5 8.21429C16.9083 8.21429 16.4286 7.73459 16.4286 7.14286C16.4286 6.55112 16.9083 6.07143 17.5 6.07143C18.0917 6.07143 18.5714 6.55112 18.5714 7.14286Z" fill="black"/>
<path d="M15 7.14286C15 7.73459 14.5203 8.21429 13.9286 8.21429C13.3368 8.21429 12.8571 7.73459 12.8571 7.14286C12.8571 6.55112 13.3368 6.07143 13.9286 6.07143C14.5203 6.07143 15 6.55112 15 7.14286Z" fill="black"/>
<path d="M3.57143 20C3.57143 19.4083 4.05112 18.9286 4.64286 18.9286H8.21428C8.80602 18.9286 9.28571 19.4083 9.28571 20C9.28571 20.5917 8.80602 21.0714 8.21428 21.0714H4.64286C4.05112 21.0714 3.57143 20.5917 3.57143 20Z" fill="black"/>
<path fill-rule="evenodd" clip-rule="evenodd" d="M4.64286 18.9286C4.05112 18.9286 3.57143 19.4083 3.57143 20C3.57143 20.5917 4.05112 21.0714 4.64286 21.0714H8.21428C8.80602 21.0714 9.28571 20.5917 9.28571 20C9.28571 19.4083 8.80602 18.9286 8.21428 18.9286H4.64286Z" fill="black"/>
<path d="M22.1429 20C22.1429 20.5917 21.6632 21.0714 21.0714 21.0714C20.4797 21.0714 20 20.5917 20 20C20 19.4083 20.4797 18.9286 21.0714 18.9286C21.6632 18.9286 22.1429 19.4083 22.1429 20Z" fill="black"/>
<path d="M18.5714 20C18.5714 20.5917 18.0917 21.0714 17.5 21.0714C16.9083 21.0714 16.4286 20.5917 16.4286 20C16.4286 19.4083 16.9083 18.9286 17.5 18.9286C18.0917 18.9286 18.5714 19.4083 18.5714 20Z" fill="black"/>
<path d="M15 20C15 20.5917 14.5203 21.0714 13.9286 21.0714C13.3368 21.0714 12.8571 20.5917 12.8571 20C12.8571 19.4083 13.3368 18.9286 13.9286 18.9286C14.5203 18.9286 15 19.4083 15 20Z" fill="black"/>
<path d="M3.57143 32.8571C3.57143 32.2654 4.05112 31.7857 4.64286 31.7857H8.21428C8.80602 31.7857 9.28571 32.2654 9.28571 32.8571C9.28571 33.4489 8.80602 33.9286 8.21428 33.9286H4.64286C4.05112 33.9286 3.57143 33.4489 3.57143 32.8571Z" fill="black"/>
<path fill-rule="evenodd" clip-rule="evenodd" d="M4.64286 31.7857C4.05112 31.7857 3.57143 32.2654 3.57143 32.8571C3.57143 33.4489 4.05112 33.9286 4.64286 33.9286H8.21428C8.80602 33.9286 9.28571 33.4489 9.28571 32.8571C9.28571 32.2654 8.80602 31.7857 8.21428 31.7857H4.64286Z" fill="black"/>
<path d="M1.42857 25.7143V14.2857H0V25.7143H1.42857Z" fill="black"/>
<path d="M1.42857 27.1429H14.6429V25.7143H1.42857V27.1429Z" fill="black"/>
<path d="M0 27.1429V40H11.4286V38.5714H1.42857V27.1429H0Z" fill="black"/>
<path d="M0 25.7143V27.1429H1.42857V25.7143H0Z" fill="black"/>
<path d="M25.7143 20.3571V14.2857H24.2857V20.3571H25.7143Z" fill="black"/>
<path d="M1.42857 1.42857H24.2857V12.8571H25.7143V0H0V12.8571H1.42857V1.42857Z" fill="black"/>
<path fill-rule="evenodd" clip-rule="evenodd" d="M17.2774 30.1877L16.1858 30.4863C14.1664 31.0387 12.8573 32.6709 12.8573 34.4346C12.8573 36.5828 14.8396 38.5715 17.6063 38.5715H36.5252C37.6788 38.5715 38.5716 37.6588 38.5716 36.5849C38.5716 35.7914 38.0891 35.0891 37.3643 34.7721L36.5435 34.413L36.5094 33.5178C36.4258 31.3287 34.5847 29.5387 32.2781 29.5387C32.0032 29.5387 31.7356 29.5642 31.4774 29.6124L29.95 29.8974L29.794 28.3514C29.5133 25.5692 26.9091 23.2143 23.5265 23.2143C19.9322 23.2143 17.2331 25.8597 17.2331 28.8691C17.2331 28.9319 17.2342 28.9945 17.2365 29.0567L17.2774 30.1877ZM31.0144 27.131C30.1696 24.0593 27.1375 21.7858 23.5265 21.7858C19.2618 21.7858 15.8045 24.9571 15.8045 28.8691C15.8045 28.9492 15.806 29.0289 15.8088 29.1084C13.2737 29.8018 11.4287 31.9241 11.4287 34.4346C11.4287 37.5083 14.1945 40.0001 17.6063 40.0001H36.5252C38.4444 40.0001 40.0001 38.471 40.0001 36.5849C40.0001 35.1927 39.1526 33.9951 37.9369 33.4633C37.8233 30.488 35.3333 28.1102 32.2781 28.1102C32.2442 28.1102 32.2103 28.1105 32.1766 28.111C31.8486 28.1167 31.5274 28.1498 31.2153 28.208C31.1782 27.8402 31.1104 27.4804 31.0144 27.131Z" fill="black"/>
</g>
<defs>
<clipPath id="clip0_3517_126106">
<rect width="40" height="40" fill="white"/>
</clipPath>
</defs>
</svg>
