<svg width="178" height="28" viewBox="0 0 178 28" fill="none" xmlns="http://www.w3.org/2000/svg">
<path d="M76.548 25.398L68.7945 3.69472C68.6901 3.40604 68.5596 2.98615 68.5596 2.64498C68.5596 1.70022 69.3428 0.807942 70.4914 0.807942C71.4835 0.807942 72.1361 1.46403 72.4233 2.38255L78.8454 21.0679L85.3196 2.33006C85.6068 1.43778 86.2073 0.807942 87.1993 0.807942H87.4081C88.4524 0.807942 89.0789 1.46403 89.3922 2.33006L95.8143 21.0416L102.341 2.25133C102.602 1.46403 103.124 0.755455 104.168 0.755455C105.265 0.755455 106.048 1.59524 106.048 2.54001C106.048 2.88117 105.891 3.27482 105.813 3.58975L98.0072 25.3193C97.6156 26.4478 96.8324 27.0514 95.9187 27.0514H95.762C94.77 27.0514 94.0391 26.4478 93.6736 25.3193L87.3037 6.89642L80.8816 25.3193C80.5422 26.4478 79.7852 27.0514 78.8192 27.0514H78.7148C77.7228 27.1301 76.9396 26.5265 76.548 25.398ZM133.041 2.67123C133.041 1.62149 133.877 0.729212 134.921 0.729212C136.018 0.729212 136.853 1.569 136.853 2.67123V7.08012C138.733 2.80244 142.883 0.781699 145.651 0.781699C146.799 0.781699 147.53 1.62149 147.53 2.72371C147.53 3.77345 146.825 4.50827 145.833 4.66573C140.899 5.26932 136.827 8.99589 136.827 16.3965V25.1094C136.827 26.1591 136.044 27.0514 134.947 27.0514C133.851 27.0514 133.015 26.2116 133.015 25.1094L133.041 2.67123ZM159.748 27.2876C152.856 27.2876 147.243 21.9339 147.243 14.0609V13.9559C147.243 6.63398 152.334 0.729212 159.252 0.729212C166.666 0.729212 170.895 6.87017 170.895 13.6147C170.895 14.6382 170.06 15.3993 169.146 15.3993H151.028C151.551 20.9104 155.388 24.0071 159.852 24.0071C162.959 24.0071 165.23 22.7737 167.084 21.0416C167.371 20.8054 167.71 20.5955 168.154 20.5955C169.068 20.5955 169.799 21.3303 169.799 22.2226C169.799 22.6687 169.616 23.1149 169.224 23.456C166.823 25.7392 164.003 27.2876 159.748 27.2876ZM167.162 12.565C166.77 7.94615 164.16 3.90467 159.174 3.90467C154.814 3.90467 151.525 7.57875 151.028 12.565H167.162ZM106.022 19.3358V19.2308C106.022 13.8247 110.46 10.9641 116.908 10.9641C120.171 10.9641 122.469 11.4103 124.766 12.0664V11.1741C124.766 6.55525 121.946 4.19334 117.169 4.19334C114.611 4.19334 113.123 4.53451 111.243 5.3743C111.008 5.47927 110.747 5.53176 110.564 5.53176C109.677 5.53176 108.893 4.79694 108.893 3.90467C108.893 3.11736 109.233 2.61874 109.938 2.30382C112.444 1.20159 114.35 0.834186 117.587 0.834186C121.189 0.834186 123.957 1.77895 125.81 3.66848C127.533 5.40054 128.421 7.89367 128.421 11.1479V25.2931C128.421 26.369 127.638 27.1826 126.593 27.1826C125.523 27.1826 124.792 26.3953 124.792 25.398V22.9574C123.017 25.2931 120.041 27.3663 115.577 27.3663C110.825 27.3138 106.022 24.5845 106.022 19.3358ZM124.818 17.3413V14.8744C122.938 14.3233 120.432 13.7722 117.326 13.7722C112.548 13.7722 109.885 15.8454 109.885 19.0734V19.1783C109.885 22.4063 112.835 24.2958 116.307 24.2958C120.98 24.2958 124.818 21.409 124.818 17.3413ZM7.47149 2.46128C6.6361 0.624238 4.57372 -0.215551 2.64188 0.650482C0.710032 1.51651 0.00516942 3.66847 0.866668 5.50551L8.95953 23.1936C10.2387 25.9754 11.5701 27.4188 14.1024 27.4188C16.7913 27.4188 17.9661 25.8442 19.2453 23.1936C19.2453 23.1936 26.2939 7.73621 26.3722 7.57875C26.4506 7.42129 26.6594 6.92266 27.3904 6.92266C27.9908 6.92266 28.5129 7.42129 28.5129 8.07737V23.1936C28.5129 25.5292 29.7921 27.445 32.2722 27.445C34.7523 27.445 36.0837 25.5292 36.0837 23.1936V10.8329C36.0837 8.44478 37.7806 6.89642 40.104 6.89642C42.4275 6.89642 43.9677 8.49726 43.9677 10.8329V23.1936C43.9677 25.5292 45.2469 27.445 47.727 27.445C50.207 27.445 51.5385 25.5292 51.5385 23.1936V10.8329C51.5385 8.44478 53.2353 6.89642 55.5588 6.89642C57.8822 6.89642 59.4225 8.49726 59.4225 10.8329V23.1936C59.4225 25.5292 60.7017 27.445 63.1817 27.445C65.6618 27.445 66.9932 25.5292 66.9932 23.1936V9.12711C66.9932 3.95715 62.8685 0.33556 57.8822 0.33556C52.9221 0.33556 49.7894 3.79969 49.7894 3.79969C48.1447 1.62149 45.8473 0.309317 41.9837 0.309317C37.9111 0.309317 34.3346 3.77345 34.3346 3.77345C32.6899 1.62149 29.8705 0.309317 27.5209 0.309317C23.9183 0.33556 21.0466 1.93641 19.2975 5.95165L14.1285 18.2073L7.47149 2.46128ZM171.182 3.90467C171.182 2.14636 172.566 0.702968 174.341 0.702968C176.116 0.702968 177.5 2.12011 177.5 3.85218V3.87842C177.5 5.61049 176.116 7.08012 174.341 7.08012C172.566 7.08012 171.182 5.63673 171.182 3.90467ZM176.9 3.87842C176.9 2.43503 175.803 1.28032 174.341 1.28032C172.905 1.28032 171.783 2.46128 171.783 3.87842V3.90467C171.783 5.32181 172.879 6.50277 174.341 6.50277C175.777 6.50277 176.9 5.29557 176.9 3.87842Z" fill="#717073"/>
</svg>
