<svg width="40" height="40" viewBox="0 0 40 40" fill="none" xmlns="http://www.w3.org/2000/svg">
<path d="M40 38.5809H0V5.98718H40V38.5809ZM1.25 37.3309H38.75V7.23718H1.25V37.3309Z" fill="#F58A1F"/>
<path d="M35.785 13.2041V20.6388H4.21535V13.2041H35.785ZM37.0147 11.9738H2.98535V21.8684H37.0147V11.9738Z" fill="#4C009F"/>
<path d="M11.9185 24.9218V27.9878H4.21535V24.9218H11.9185ZM13.1485 23.6915H2.98535V29.2178H13.1485V23.6915Z" fill="#4C009F"/>
<path d="M13.1485 30.7452H2.98535V31.9952H13.1485V30.7452Z" fill="#F58A1F"/>
<path d="M13.1485 33.8878H2.98535V35.1378H13.1485V33.8878Z" fill="#F58A1F"/>
<path d="M25.0818 30.7452H14.9189V31.9952H25.0818V30.7452Z" fill="#F58A1F"/>
<path d="M27.9065 16.2482H12.0928V17.4982H27.9065V16.2482Z" fill="#F58A1F"/>
<path d="M25.0818 33.8878H14.9189V35.1378H25.0818V33.8878Z" fill="#F58A1F"/>
<path d="M37.0144 30.7452H26.8516V31.9952H37.0144V30.7452Z" fill="#F58A1F"/>
<path d="M37.0144 33.8878H26.8516V35.1378H37.0144V33.8878Z" fill="#F58A1F"/>
<path d="M23.8518 24.9218V27.9878H16.1489V24.9218H23.8518ZM25.0821 23.6915H14.9189V29.2178H25.0818V23.6915H25.0821Z" fill="#4C009F"/>
<path d="M35.7847 24.9218V27.9878H28.0816V24.9218H35.7847ZM37.0144 23.6915H26.8516V29.2178H37.0144V23.6915Z" fill="#4C009F"/>
<path d="M40 7.23719H0V1.41907H40V7.23719ZM1.25 5.98719H38.75V2.66907H1.25V5.98719Z" fill="#F58A1F"/>
<path d="M3.86582 3.67004H2.39551V4.92004H3.86582V3.67004Z" fill="#F58A1F"/>
<path d="M6.41266 3.67004H4.94141V4.92004H6.41266V3.67004Z" fill="#F58A1F"/>
<path d="M8.95855 3.67004H7.4873V4.92004H8.95855V3.67004Z" fill="#F58A1F"/>
<path d="M19.4141 9.21777H6.43164V10.4678H19.4141V9.21777Z" fill="#F58A1F"/>
<path d="M4.59441 9.21777H2.98535V10.4678H4.59441V9.21777Z" fill="#F58A1F"/>
</svg>
