<svg width="40" height="40" viewBox="0 0 40 40" fill="none" xmlns="http://www.w3.org/2000/svg">
<path d="M19.844 8.70436H19.8699C25.9921 8.71842 30.9605 13.7694 30.9465 19.9634C30.9337 26.1428 25.953 31.1703 19.8446 31.1703H19.8205C13.6993 31.1559 8.73054 26.1056 8.74492 19.9128C8.75742 13.7325 13.7368 8.70436 19.844 8.70436ZM19.844 7.47998C13.0612 7.47998 7.53492 13.0506 7.52054 19.91C7.50429 26.7784 13.0221 32.3784 19.8177 32.3947C19.8268 32.3947 19.8362 32.3947 19.8446 32.3947C26.629 32.3947 32.1562 26.825 32.1709 19.9662C32.1868 13.0978 26.6693 7.49561 19.8721 7.47998C19.863 7.47998 19.8527 7.47998 19.844 7.47998Z" fill="#4C009F"/>
<path d="M20.5875 28.9104L18.9181 25.0735L18.4825 22.5282L17.1965 22.4725L16.2646 20.8219L17.2893 17.9657L18.5993 17.6569L17.3671 17.4419L17.14 16.0822L18.5246 15.2754L17.925 14.3391L20.1896 12.2688L22.0506 12.9304L24.6275 12.1219C24.8668 11.9938 25.8984 11.4416 27.0353 10.8419L27.6187 11.9475C26.3237 12.6307 25.1659 13.2516 25.1659 13.2516L25.0575 13.2972L22.0259 14.2485L20.4787 13.6988L19.5453 14.5519L20.2806 15.6994L18.9831 16.4554L19.8812 16.6119L20.9668 17.9425L20.4046 19.3497L18.9409 18.8613L18.2368 19.0272L17.6346 20.7057L17.9443 21.2541L19.5446 21.3238L20.1246 24.7132L20.5621 25.7194L22.2375 21.6972L21.3793 21.3532L21.1015 18.9407L23.3087 19.3891L24.5409 17.8072L25.7115 19.9297L27.29 18.8594L28.09 20.4597L29.2168 18.1644L30.4881 16.25L31.5293 16.9413L30.2815 18.8213L28.1031 23.2819L26.8106 20.6954L25.2793 21.7335L24.3625 20.071L23.8193 20.7682L22.7253 20.546L23.8787 21.0082L20.5875 28.9104Z" fill="#4C009F"/>
<path d="M8.16367 21.7709L8.1543 20.5209L9.75898 20.5091L9.4843 19.4197C9.38211 19.1281 9.32836 18.6806 9.43617 18.4394L9.96961 18.0581L11.2187 17.9406L13.2102 16.1469L12.7374 15.5647C12.1671 16.2525 12.038 16.3128 11.749 16.2981L11.2527 16.0062C10.529 14.8662 10.3977 14.6419 10.5643 14.295L11.5293 11.9419L12.0284 10.5106L13.2087 10.9219L12.6924 12.4003L11.8177 14.5328C11.8362 14.5647 11.8565 14.5997 11.8784 14.6369C12.0009 14.4891 12.1309 14.3297 12.2496 14.1816L13.2224 14.1784L14.5552 15.8191L14.4874 16.6781L11.9009 19.0078L11.5412 19.1656L10.7284 19.2422L11.1655 20.975L10.5643 21.7528L8.16367 21.7709Z" fill="#4C009F"/>
<path d="M13.4185 29.9175L11.7825 27.8487L11.81 25.1991L10.7275 23.0653L12.2444 19.62L16.2822 23.3241L13.4185 29.9175ZM13.0369 27.4197L13.1038 27.5044L14.7807 23.6431L12.6854 21.7209L12.11 23.0278L12.9904 24.765C13.0435 24.8853 13.0669 25.0084 13.0604 25.1316L13.0369 27.4197Z" fill="#4C009F"/>
<path d="M15.5926 15.2656L13.7217 11.2988L14.2601 11.0228C16.1439 10.0581 17.4398 9.81344 18.0448 9.75375L18.9026 9.66907L18.1201 13.2094L15.5926 15.2656ZM15.3729 11.87L16.042 13.2884L16.9932 12.5144L17.292 11.1634C16.8076 11.2888 16.1629 11.5034 15.3729 11.87Z" fill="#4C009F"/>
<path d="M3.08207 30.6319C-1.80574 22.6844 -0.639803 12.505 5.91738 5.87719C9.66676 2.0875 14.6524 0.0003125 19.9555 0C25.2593 0 30.2452 2.08719 33.9958 5.87719L33.1071 6.75625C29.5933 3.20531 24.9227 1.25 19.9555 1.25C14.9886 1.25031 10.3186 3.20563 6.80582 6.75656C0.655197 12.9734 -0.438241 22.5222 4.14676 29.9772L3.08207 30.6319Z" fill="#F58A1F"/>
<path d="M34.111 7.26193L28.7275 7.26068L28.7282 6.01068L32.861 6.01162V1.82568H34.111V7.26193Z" fill="#F58A1F"/>
<path d="M20.0699 40C14.7665 40.0003 9.78023 37.9131 6.0293 34.1231L6.91773 33.2437C10.4321 36.7946 15.1027 38.7503 20.0699 38.75C25.0368 38.75 29.7068 36.7943 33.2205 33.2437C39.3277 27.0718 40.4102 17.249 35.7946 9.88745L36.8537 9.22339C39.2274 13.009 40.2784 17.5621 39.8137 22.0437C39.3421 26.5921 37.3162 30.8818 34.1093 34.1228C30.359 37.9128 25.373 40 20.0699 40Z" fill="#F58A1F"/>
<path d="M7.16504 38.1747H5.91504V32.7384L11.301 32.74L11.3007 33.99L7.16504 33.989V38.1747Z" fill="#F58A1F"/>
</svg>
