<svg width="24" height="24" viewBox="0 0 24 24" fill="none" xmlns="http://www.w3.org/2000/svg">
<g opacity="0.9">
<path d="M23.4735 6.25234C23.2101 5.19932 22.3766 4.36569 21.3674 4.10243C19.4808 3.57593 12.0219 3.57593 12.0219 3.57593C12.0219 3.57593 4.51918 3.57593 2.63253 4.10243C1.6234 4.36569 0.78976 5.19932 0.526506 6.25234C3.71938e-08 8.09511 0 12.0439 0 12.0439C0 12.0439 3.71938e-08 15.9489 0.526506 17.8355C0.78976 18.8885 1.6234 19.6782 2.63253 19.9415C4.51918 20.4242 12.0219 20.4242 12.0219 20.4242C12.0219 20.4242 19.4808 20.4242 21.3674 19.9415C22.3766 19.6782 23.2101 18.8885 23.4735 17.8355C24 15.9489 24 12.0439 24 12.0439C24 12.0439 24 8.09511 23.4735 6.25234ZM9.56488 15.5978V8.48999L15.7952 12.0439L9.56488 15.5978Z" fill="white"/>
</g>
</svg>
