<svg width="20" height="14" viewBox="0 0 20 14" fill="none" xmlns="http://www.w3.org/2000/svg">
<path d="M19.1787 2.40285C18.968 1.56043 18.3012 0.893525 17.4939 0.682924C15.9845 0.261719 10.0174 0.261719 10.0174 0.261719C10.0174 0.261719 4.01525 0.261719 2.50593 0.682924C1.69862 0.893525 1.03171 1.56043 0.821107 2.40285C0.399902 3.87706 0.399902 7.03611 0.399902 7.03611C0.399902 7.03611 0.399902 10.1601 0.821107 11.6694C1.03171 12.5118 1.69862 13.1435 2.50593 13.3542C4.01525 13.7403 10.0174 13.7403 10.0174 13.7403C10.0174 13.7403 15.9845 13.7403 17.4939 13.3542C18.3012 13.1435 18.968 12.5118 19.1787 11.6694C19.5999 10.1601 19.5999 7.03611 19.5999 7.03611C19.5999 7.03611 19.5999 3.87706 19.1787 2.40285ZM8.0518 9.87924V4.19297L13.036 7.03611L8.0518 9.87924Z" fill="white"/>
</svg>
