<svg width="104" height="62" viewBox="0 0 104 62" fill="none" xmlns="http://www.w3.org/2000/svg">
<g clip-path="url(#clip0_6376_4992)">
<path d="M29.6265 22.6023C29.6265 23.8528 29.7629 24.8667 30.0017 25.6102C30.2745 26.3537 30.6156 27.1648 31.0931 28.0435C31.2636 28.3139 31.3318 28.5843 31.3318 28.8209C31.3318 29.1588 31.1272 29.4968 30.6838 29.8347L28.5351 31.2542C28.2282 31.457 27.9212 31.5584 27.6484 31.5584C27.3073 31.5584 26.9662 31.3894 26.6252 31.0852C26.1477 30.5783 25.7384 30.0375 25.3974 29.4968C25.0563 28.9222 24.7152 28.2801 24.3401 27.5028C21.6798 30.6121 18.3374 32.1667 14.3129 32.1667C11.448 32.1667 9.16293 31.3556 7.49174 29.7334C5.82054 28.1111 4.9679 25.9482 4.9679 23.2444C4.9679 20.3717 5.99107 18.0398 8.07154 16.2824C10.152 14.5249 12.9146 13.6462 16.4275 13.6462C17.5871 13.6462 18.7808 13.7476 20.0427 13.9166C21.3047 14.0856 22.6007 14.356 23.9649 14.6601V12.193C23.9649 9.62446 23.4192 7.83324 22.3619 6.78555C21.2705 5.73786 19.4288 5.23091 16.8027 5.23091C15.609 5.23091 14.3811 5.3661 13.1192 5.67027C11.8573 5.97444 10.6295 6.3462 9.43578 6.81935C8.89008 7.05592 8.48081 7.19111 8.24207 7.2587C8.00333 7.32629 7.8328 7.36009 7.69637 7.36009C7.21889 7.36009 6.98015 7.02213 6.98015 6.3124V4.65637C6.98015 4.11563 7.04836 3.71007 7.21889 3.4735C7.38942 3.23692 7.69637 3.00035 8.17386 2.76377C9.36756 2.15543 10.8 1.64849 12.4712 1.24293C14.1424 0.803575 15.9159 0.600796 17.7917 0.600796C21.8503 0.600796 24.8176 1.5133 26.7275 3.33831C28.6033 5.16332 29.5583 7.93463 29.5583 11.6522V22.6023H29.6265ZM15.7795 27.7394C16.905 27.7394 18.0646 27.5366 19.2924 27.131C20.5202 26.7255 21.6116 25.982 22.5325 24.9681C23.0782 24.3259 23.4874 23.6162 23.6921 22.8051C23.8967 21.994 24.0331 21.0139 24.0331 19.8648V18.4453C23.0441 18.2088 21.9868 18.006 20.8954 17.8708C19.804 17.7356 18.7467 17.668 17.6894 17.668C15.4043 17.668 13.7331 18.1074 12.6076 19.0199C11.4821 19.9324 10.9364 21.2166 10.9364 22.9065C10.9364 24.4949 11.3457 25.6778 12.1984 26.4889C13.0169 27.3338 14.2106 27.7394 15.7795 27.7394ZM43.1666 31.3894C42.5527 31.3894 42.1434 31.288 41.8705 31.0514C41.5977 30.8486 41.359 30.3755 41.1543 29.7334L33.1394 3.60868C32.9348 2.93275 32.8325 2.4934 32.8325 2.25682C32.8325 1.71608 33.1053 1.41191 33.651 1.41191H36.9934C37.6414 1.41191 38.0848 1.5133 38.3235 1.74988C38.5964 1.95266 38.801 2.42581 39.0056 3.06794L44.7355 25.4412L50.056 3.06794C50.2265 2.39201 50.4311 1.95266 50.704 1.74988C50.9768 1.5471 51.4543 1.41191 52.0682 1.41191H54.7967C55.4447 1.41191 55.8881 1.5133 56.1609 1.74988C56.4338 1.95266 56.6725 2.42581 56.809 3.06794L62.1977 25.7116L68.098 3.06794C68.3027 2.39201 68.5414 1.95266 68.7802 1.74988C69.053 1.5471 69.4964 1.41191 70.1103 1.41191H73.2821C73.8278 1.41191 74.1348 1.68228 74.1348 2.25682C74.1348 2.42581 74.1007 2.59479 74.0666 2.79757C74.0325 3.00035 73.9643 3.27072 73.8278 3.64248L65.6083 29.7672C65.4037 30.4431 65.1649 30.8824 64.8921 31.0852C64.6192 31.288 64.1758 31.4232 63.5961 31.4232H60.6629C60.0149 31.4232 59.5715 31.3218 59.2987 31.0852C59.0258 30.8486 58.7871 30.4093 58.6507 29.7334L53.3643 7.93463L48.1119 29.6996C47.9414 30.3755 47.7368 30.8148 47.4639 31.0514C47.1911 31.288 46.7136 31.3894 46.0997 31.3894H43.1666ZM86.9927 32.3019C85.2192 32.3019 83.4457 32.0991 81.7404 31.6936C80.0351 31.288 78.705 30.8486 77.8182 30.3417C77.2725 30.0375 76.8974 29.6996 76.7609 29.3954C76.6245 29.0912 76.5563 28.7533 76.5563 28.4491V26.7255C76.5563 26.0157 76.8292 25.6778 77.3408 25.6778C77.5454 25.6778 77.75 25.7116 77.9547 25.7792C78.1593 25.8468 78.4662 25.9819 78.8073 26.1171C79.9669 26.6241 81.2288 27.0296 82.559 27.3C83.9232 27.5704 85.2533 27.7056 86.6176 27.7056C88.7663 27.7056 90.4374 27.3338 91.597 26.5903C92.7566 25.8468 93.3706 24.7653 93.3706 23.3796C93.3706 22.4333 93.0636 21.656 92.4497 21.0139C91.8358 20.3717 90.6762 19.7972 89.005 19.2565L84.0596 17.7356C81.5699 16.9583 79.7282 15.8092 78.6027 14.2884C77.4772 12.8013 76.8974 11.1453 76.8974 9.38788C76.8974 7.96843 77.2043 6.71796 77.8182 5.63647C78.4321 4.55498 79.2507 3.60868 80.2739 2.86516C81.297 2.08784 82.4566 1.5133 83.8209 1.10774C85.1851 0.702185 86.6176 0.533203 88.1182 0.533203C88.8686 0.533203 89.653 0.567 90.4033 0.668389C91.1878 0.769778 91.904 0.904964 92.6202 1.04015C93.3023 1.20913 93.9504 1.37812 94.5643 1.58089C95.1782 1.78367 95.6557 1.98645 95.9967 2.18923C96.4742 2.4596 96.8153 2.72997 97.0199 3.03414C97.2245 3.30451 97.3268 3.67628 97.3268 4.14943V5.73786C97.3268 6.44759 97.054 6.81935 96.5424 6.81935C96.2696 6.81935 95.8262 6.68416 95.2464 6.41379C93.3023 5.53508 91.1196 5.09573 88.698 5.09573C86.754 5.09573 85.2192 5.3999 84.1619 6.04203C83.1047 6.68416 82.559 7.66426 82.559 9.04992C82.559 9.99622 82.9 10.8073 83.5821 11.4495C84.2643 12.0916 85.5262 12.7337 87.3338 13.3083L92.1768 14.8291C94.6325 15.6064 96.406 16.6879 97.4633 18.0736C98.5206 19.4592 99.0321 21.0477 99.0321 22.8051C99.0321 24.2583 98.7252 25.5764 98.1454 26.7255C97.5315 27.8746 96.7129 28.8884 95.6557 29.6996C94.5984 30.5445 93.3364 31.1528 91.8699 31.5922C90.3351 32.0653 88.7321 32.3019 86.9927 32.3019Z" fill="#252F3E"/>
<path d="M93.4387 48.7266C82.2179 56.9391 65.9152 61.2989 51.8977 61.2989C32.2527 61.2989 14.5517 54.1002 1.18213 42.1363C0.124842 41.1899 1.07981 39.9057 2.34173 40.6492C16.8027 48.9631 34.6401 53.9988 53.0914 53.9988C65.5401 53.9988 79.2166 51.4303 91.8016 46.158C93.6775 45.3131 95.2805 47.3747 93.4387 48.7266ZM98.1113 43.4543C96.6788 41.6293 88.6298 42.5756 84.9805 43.015C83.8891 43.1501 83.7185 42.2038 84.7076 41.4941C91.1195 37.033 101.658 38.3172 102.886 39.8043C104.114 41.3251 102.545 51.7682 96.5424 56.7701C95.6215 57.5474 94.7348 57.1419 95.144 56.128C96.5083 52.7821 99.5437 45.2455 98.1113 43.4543Z" fill="#FF9900"/>
</g>
<defs>
<clipPath id="clip0_6376_4992">
<rect width="103" height="61" fill="white" transform="translate(0.5 0.5)"/>
</clipPath>
</defs>
</svg>
