<svg width="60" height="60" viewBox="0 0 60 60" fill="none" xmlns="http://www.w3.org/2000/svg">
<g clip-path="url(#clip0_3613_311111)">
<path d="M29.1783 15.2835L29.1221 7.24865L29.1985 7.23834C29.6302 3.91631 32.2543 0.876934 35.475 0.11709C35.961 0.000350926 36.4589 -0.0594263 36.9586 -0.0610352C40.0514 -0.0610352 42.3108 2.29818 42.3305 5.54896C42.3563 8.84334 40.0913 12.0937 37.0379 13.3302L37.0561 13.4104L36.1505 13.6335L29.1783 15.2835ZM31.0088 8.43365L31.0402 12.9126L35.6902 11.8035C38.3368 11.099 40.4724 8.29912 40.4513 5.56209C40.4382 3.35756 39.0014 1.81865 36.9582 1.81865C36.6169 1.81865 36.2635 1.86131 35.9068 1.94568C33.2654 2.56912 31.0721 5.32209 31.0158 8.0835L31.0088 8.43365Z" fill="#6600D5"/>
<path d="M30.8212 15.284L23.1272 13.4615V13.394C19.9945 12.2108 17.647 8.90381 17.6681 5.5485C17.6892 2.29818 19.95 -0.0610352 23.0428 -0.0610352C23.5289 -0.0610352 24.0281 -0.00103517 24.5264 0.11709C27.7425 0.876465 30.3633 3.90881 30.7987 7.22521L30.8672 7.23365L30.8723 8.07225L30.8212 15.284ZM24.5681 11.8724L28.9589 12.9121L28.9912 8.35162L28.9819 8.08256C28.928 5.32209 26.7351 2.56865 24.0942 1.94521C23.7499 1.86219 23.397 1.81956 23.0428 1.81818C20.9986 1.81818 19.5609 3.35709 19.5464 5.56068C19.5295 8.29912 21.6656 11.0994 24.308 11.803L24.5681 11.8724Z" fill="#6600D5"/>
<path d="M60 26.5337H0V14.1006H60V26.5337ZM1.87875 24.6554H58.1208V15.9793H1.87875V24.6554ZM58.3898 59.8075H1.60641V29.5862H3.48516V57.9282H56.5116V29.5862H58.3898V59.8075Z" fill="#F58A1F"/>
<path d="M29.0596 14.7412H30.9383V60.0609H29.0596V14.7412Z" fill="#F58A1F"/>
<path d="M41.3004 32.3525H39.4221C39.4221 22.9977 35.1068 15.0946 29.9988 15.0946C24.8908 15.0946 20.575 22.9977 20.575 32.3525H18.6963C18.6963 21.6214 23.6608 13.2158 29.9983 13.2158C36.3363 13.2154 41.3004 21.6214 41.3004 32.3525Z" fill="#6600D5"/>
</g>
<defs>
<clipPath id="clip0_3613_311111">
<rect width="60" height="60" fill="white"/>
</clipPath>
</defs>
</svg>
