<svg width="40" height="40" viewBox="0 0 40 40" fill="none" xmlns="http://www.w3.org/2000/svg">
<path d="M14.1548 28.1981C6.46328 28.1981 0.202657 21.875 0.199219 14.1025C0.198282 10.3553 1.64359 6.82219 4.26891 4.15344C6.90797 1.475 10.4177 0 14.1511 0C17.8858 0 21.3898 1.4675 24.0298 4.13188C26.6683 6.79469 28.122 10.3337 28.123 14.0966C28.123 17.8466 26.678 21.3781 24.0542 24.0406C21.4105 26.7216 17.8983 28.1981 14.1648 28.1981C14.1645 28.1981 14.1648 28.1981 14.1645 28.1981L14.1545 27.5731L14.1617 26.9481C17.5608 26.9481 20.7567 25.6041 23.1639 23.1634C25.5555 20.7362 26.8727 17.5163 26.8727 14.0969C26.8717 10.6656 25.5467 7.43906 23.1417 5.01188C20.7383 2.58594 17.5498 1.25 14.1639 1.25C10.7548 1.25 7.56141 2.5925 5.15984 5.03062C2.76641 7.46344 1.44828 10.6853 1.44922 14.1019C1.45266 21.1853 7.15203 26.9481 14.1548 26.9481V28.1981Z" fill="#F58A1F"/>
<path d="M24.1852 14.0963C24.1827 11.3907 23.1374 8.84725 21.2414 6.93475C19.3489 5.02037 16.8343 3.966 14.1605 3.966C14.1599 3.966 14.1599 3.966 14.1593 3.966C12.2446 3.96662 10.3883 4.51287 8.79082 5.54631L8.71488 5.596L8.0127 4.56256L8.11676 4.49412C9.91176 3.33287 12.003 2.71693 14.1593 2.71631C14.1596 2.71631 14.1599 2.71631 14.1605 2.71631C17.1714 2.71631 20.0011 3.90193 22.1299 6.05568C24.2586 8.20287 25.4327 11.0582 25.4352 14.0957L24.1852 14.0963Z" fill="#4C009F"/>
<path d="M35.1791 40L33.666 38.4697L38.2782 33.8081L38.7226 34.2562C39.021 34.5572 39.3204 34.86 39.6201 35.1631L39.8001 35.3456V35.6019C39.8007 38.0259 37.8451 39.9987 35.4404 40H35.1791ZM35.4241 38.47L35.691 38.7394C37.2088 38.6156 38.4229 37.3853 38.5407 35.8487C38.4535 35.7606 38.3663 35.6725 38.2791 35.584L35.4241 38.47Z" fill="#F58A1F"/>
<path d="M21.3447 14.115C21.3429 12.1753 20.5935 10.3518 19.2338 8.98089C17.8782 7.60871 16.0769 6.85371 14.1616 6.85371C14.1607 6.85371 14.1604 6.85371 14.1594 6.85371C12.7797 6.85433 11.5119 7.24402 10.1697 8.07996L9.50879 7.01902C11.0579 6.05402 12.5357 5.60402 14.1588 5.60339C14.1597 5.60339 14.1607 5.60339 14.1616 5.60339C16.4138 5.60339 18.5307 6.49027 20.1222 8.10121C21.7144 9.70683 22.5929 11.8421 22.5947 14.1134L21.3447 14.115Z" fill="#4C009F"/>
<path d="M33.9922 39.9156L22.5625 28.3656L28.2806 22.5887L39.7097 34.1375L33.9922 39.9156ZM24.3209 28.3656L33.9922 38.1384L37.9512 34.1375L28.2806 24.3656L24.3209 28.3656Z" fill="#F58A1F"/>
<path d="M35.8594 34.0842L30.0156 28.1772L29.127 29.0564L34.9708 34.9633L35.8594 34.0842Z" fill="#F58A1F"/>
<path d="M25.823 30.5444L23.1152 27.8075L27.7287 23.1466L30.4365 25.8825L25.823 30.5444ZM24.8737 27.8075L25.823 28.7669L28.678 25.8825L27.7287 24.9235L24.8737 27.8075Z" fill="#F58A1F"/>
<path d="M25.4237 26.5434L24.168 25.2748L23.2796 26.1542L24.5353 27.4228L25.4237 26.5434Z" fill="#F58A1F"/>
<path d="M26.8027 24.0322L24.7783 21.986L23.8897 22.8651L25.9141 24.9114L26.8027 24.0322Z" fill="#F58A1F"/>
<path d="M14.9902 4.01746H13.7402V5.85558H14.9902V4.01746Z" fill="#4C009F"/>
<path d="M10.873 6.50639L9.96289 4.91406L8.87764 5.53431L9.7877 7.12664L10.873 6.50639Z" fill="#4C009F"/>
<path d="M7.628 9.1471L6.05273 8.22864L5.42311 9.30851L6.99838 10.227L7.628 9.1471Z" fill="#F58A1F"/>
<path d="M6.11922 13.0728H4.30078V14.3228H6.11922V13.0728Z" fill="#F58A1F"/>
<path d="M7.38573 18.314L6.75586 17.2343L5.1797 18.1537L5.80957 19.2335L7.38573 18.314Z" fill="#F58A1F"/>
<path d="M10.4518 21.1335L9.36621 20.5139L8.45753 22.106L9.54316 22.7256L10.4518 21.1335Z" fill="#F58A1F"/>
<path d="M14.5059 22.0297H13.2559V23.8678H14.5059V22.0297Z" fill="#F58A1F"/>
<path d="M19.3664 22.3487L18.457 20.7572L17.3718 21.3773L18.2812 22.9688L19.3664 22.3487Z" fill="#F58A1F"/>
<path d="M22.821 18.5774L21.2451 17.6583L20.6154 18.7381L22.1913 19.6572L22.821 18.5774Z" fill="#F58A1F"/>
<path d="M23.9444 13.5625H22.126V14.8125H23.9444V13.5625Z" fill="#4C009F"/>
<path d="M23.0651 9.73196L22.4346 8.65259L20.86 9.57233L21.4905 10.6517L23.0651 9.73196Z" fill="#4C009F"/>
<path d="M19.4189 11.6211L18.7891 10.5414L15.1897 12.6411L15.8196 13.7208L19.4189 11.6211Z" fill="#F58A1F"/>
<path d="M19.7864 5.77833L18.7012 5.1582L17.7916 6.74999L18.8769 7.37012L19.7864 5.77833Z" fill="#4C009F"/>
<path d="M14.1639 16.2028H14.1623C13.0104 16.2028 12.0732 15.2585 12.0732 14.0978C12.0732 13.5381 12.2892 13.0113 12.6814 12.6141C13.0761 12.2131 13.6026 11.9916 14.1632 11.9916C14.7232 11.9916 15.2492 12.2119 15.6436 12.6116C16.0364 13.0078 16.2536 13.5353 16.2539 14.0963C16.2539 14.6556 16.0382 15.1825 15.6467 15.58C15.2511 15.9813 14.7245 16.2025 14.1639 16.2028ZM14.1636 13.2416C13.9404 13.2416 13.7304 13.3303 13.572 13.4913C13.4114 13.6541 13.3232 13.8688 13.3232 14.0975C13.3232 14.5691 13.6995 14.9525 14.1623 14.9525V15.5775L14.1629 14.9525C14.3901 14.9525 14.5954 14.8656 14.757 14.7019C14.9164 14.54 15.0042 14.325 15.0042 14.0963C15.0042 13.8675 14.9157 13.6519 14.7551 13.4903C14.5964 13.3297 14.3867 13.2416 14.1636 13.2416Z" fill="#F58A1F"/>
<path d="M24.9912 12.6553H21.9199V13.9053H24.9912V12.6553Z" fill="#4C009F"/>
</svg>
