<svg width="40" height="40" viewBox="0 0 40 40" fill="none" xmlns="http://www.w3.org/2000/svg">
<path d="M18.7392 27.9765C16.6111 27.9762 14.6092 27.1572 13.102 25.6693C11.5964 24.1784 10.7676 22.1968 10.7686 20.0887C10.7695 17.9825 11.5986 16.0037 13.1036 14.5165C14.6092 13.0303 16.6104 12.2122 18.7376 12.2122C20.8648 12.2122 22.8648 13.0306 24.3686 14.5162C25.8754 16.0068 26.7051 17.9881 26.7048 20.0959C26.7045 22.2028 25.8748 24.1828 24.3689 25.6709C22.8651 27.1578 20.8654 27.9765 18.7392 27.9765ZM18.7376 13.4656C16.9417 13.4656 15.2536 14.1553 13.9839 15.4084C12.7195 16.6578 12.0226 18.3206 12.0217 20.0893C12.0211 21.8606 12.7179 23.5256 13.9829 24.7787C15.2532 26.0328 16.9429 26.7237 18.7389 26.724C20.5332 26.724 22.2198 26.0337 23.4876 24.7803C24.7539 23.529 25.4507 21.8659 25.4511 20.0965C25.4514 18.3256 24.7545 16.6606 23.4876 15.4081C22.2201 14.1553 20.5329 13.4656 18.7376 13.4656Z" fill="#F58A1F"/>
<path d="M18.7372 24.0182C18.7369 24.0182 18.7369 24.0182 18.7366 24.0182C17.6794 24.0182 16.685 23.611 15.9356 22.8716C15.1856 22.1291 14.7728 21.1422 14.7734 20.0916C14.7738 19.0425 15.1869 18.0566 15.9363 17.3163C16.6853 16.5772 17.68 16.17 18.7369 16.17C19.7941 16.17 20.7878 16.5772 21.5359 17.3163C22.2866 18.0582 22.6997 19.0454 22.6994 20.096C22.6991 21.1454 22.2859 22.1313 21.5356 22.8716C20.7881 23.611 19.7941 24.0182 18.7372 24.0182ZM18.7369 17.4238C18.0116 17.4238 17.3297 17.7025 16.8169 18.2085C16.3075 18.7116 16.0269 19.3807 16.0266 20.0925C16.0263 20.8054 16.3069 21.476 16.8166 21.98C17.3294 22.4863 18.0113 22.7654 18.7369 22.7654C18.7369 22.7654 18.7369 22.7654 18.7372 22.7654C19.4619 22.7654 20.1428 22.4866 20.6547 21.98C21.1653 21.4766 21.4459 20.8075 21.4463 20.0957C21.4466 19.3832 21.1659 18.7125 20.655 18.2082C20.1431 17.7022 19.4619 17.4238 18.7369 17.4238Z" fill="#4C009F"/>
<path d="M29.5635 9.92906L28.2275 5.96781L34.2628 0L35.5988 3.96375L29.5635 9.92906ZM29.6647 6.30875L30.1097 7.62719L34.1616 3.6225L33.7163 2.3025L29.6647 6.30875Z" fill="#282D33"/>
<path d="M32.6752 10.3725L28.668 9.0525L34.7123 3.07812L38.7198 4.39719L32.6752 10.3725ZM31.0061 8.50375L32.3392 8.9425L36.3814 4.94656L35.0486 4.50812L31.0061 8.50375Z" fill="#282D33"/>
<path d="M29.5635 9.92906L28.2275 5.96781L34.2628 0L35.5988 3.96375L29.5635 9.92906ZM29.6647 6.30875L30.1097 7.62719L34.1616 3.6225L33.7163 2.3025L29.6647 6.30875Z" fill="#4C009F"/>
<path d="M32.6752 10.3725L28.668 9.0525L34.7123 3.07812L38.7198 4.39719L32.6752 10.3725ZM31.0061 8.50375L32.3392 8.9425L36.3814 4.94656L35.0486 4.50812L31.0061 8.50375Z" fill="#4C009F"/>
<path d="M28.2572 40H27.0038V28.3925L27.1897 28.2084C29.4141 26.0046 30.6397 23.0771 30.6397 19.965C30.6397 13.5278 25.3391 8.2909 18.8237 8.2909C12.3078 8.2909 7.00687 13.5281 7.00687 19.965C7.00687 20.1428 7.01344 20.3196 7.02063 20.4962L7.02781 20.6793L3.46438 26.7834H5.89V32.2662C5.89 33.7496 7.11344 34.9568 8.61781 34.9568H14.5588V40H13.3056V36.21H8.6175C6.4225 36.21 4.63656 34.4409 4.63656 32.2662V28.0368H1.28125L5.76156 20.3634C5.75688 20.2309 5.75375 20.0984 5.75375 19.9653C5.75375 12.8371 11.6172 7.03809 18.8241 7.03809C26.0303 7.03809 31.8928 12.8375 31.8928 19.9653C31.8928 23.3268 30.6038 26.4934 28.2572 28.9115V40Z" fill="#F58A1F"/>
<path d="M36.0842 3.51085L35.2031 2.61975L18.1245 19.5062L19.0056 20.3973L36.0842 3.51085Z" fill="#4C009F"/>
</svg>
