<svg width="60" height="60" viewBox="0 0 60 60" fill="none" xmlns="http://www.w3.org/2000/svg">
<path d="M26.2157 59.9999H24.3407V53.7946H16.6963C13.1919 53.7946 10.341 50.9671 10.341 47.4913V40.5754H4.97754L12.1588 28.2609C12.1503 28.0397 12.1457 27.8184 12.1452 27.5971C12.1452 16.1109 21.5807 6.76587 33.1794 6.76587V8.64087C22.6147 8.64087 14.0202 17.1445 14.0202 27.5971C14.0202 27.8845 14.0305 28.1704 14.0432 28.4559L14.0554 28.7306L8.24191 38.7004H12.216V47.4913C12.216 49.9331 14.226 51.9196 16.6963 51.9196H26.2157V59.9999ZM48.3402 59.9999H46.4652V41.2588L46.7427 40.9837C50.3497 37.4038 52.3368 32.6502 52.3368 27.5971C52.3368 25.0382 51.8305 22.5571 50.8325 20.2237L52.5566 19.4863C53.6541 22.0494 54.2173 24.8094 54.2118 27.5976C54.2118 33.0229 52.13 38.1346 48.3407 42.0351V59.9999H48.3402Z" fill="#F58A1F"/>
<path d="M47.8217 12.1991C45.3205 12.1991 43.2852 10.1798 43.2852 7.6982C43.2852 5.21664 45.3205 3.19727 47.8217 3.19727C50.323 3.19727 52.3583 5.21664 52.3583 7.6982C52.3583 10.1798 50.323 12.1991 47.8217 12.1991ZM47.8217 5.07227C46.3541 5.07227 45.1602 6.25023 45.1602 7.6982C45.1602 9.14617 46.3541 10.3241 47.8217 10.3241C49.2894 10.3241 50.4833 9.14617 50.4833 7.6982C50.4833 6.25023 49.2894 5.07227 47.8217 5.07227Z" fill="#F58A1F"/>
<path d="M46.8841 0H48.7591V3.36844H46.8841V0ZM46.8841 12.03H48.7591V15.398H46.8841V12.03ZM41.552 3.03469L44.4986 4.71984L43.5677 6.34781L40.6211 4.66266L41.552 3.03469ZM52.0722 9.04922L55.0192 10.7339L54.0887 12.3614L51.1417 10.6767L52.0722 9.04922Z" fill="#F58A1F"/>
<path d="M43.5677 9.04818L44.4991 10.6762L41.5525 12.3618L40.6211 10.7338L43.5677 9.04818ZM54.0916 3.03271L55.023 4.66068L52.0764 6.34631L51.145 4.71834L54.0916 3.03271Z" fill="#F58A1F"/>
<path fill-rule="evenodd" clip-rule="evenodd" d="M29.9753 15.4727C27.351 15.3916 24.8924 16.5606 23.0874 18.3701C19.5171 21.9491 18.7121 27.9353 23.4911 32.7468C25.885 35.1469 28.5199 36.0767 31.0005 35.97C33.4985 35.8626 35.9318 34.6991 37.8799 32.7461L37.8816 32.7443C40.0973 30.5346 41.2709 27.918 41.2819 25.4891H39.7959C39.466 27.6287 38.3021 29.4082 36.7808 30.8582C35.3536 32.2874 33.6568 33.2446 31.8329 33.5224C29.9915 33.8029 28.0953 33.3783 26.3274 32.1691L25.3781 31.5198L37.6701 19.6502C35.1035 16.6975 32.4035 15.5478 29.9753 15.4727ZM30.0332 13.5986C33.2857 13.6992 36.6806 15.3536 39.6812 19.1384L40.2094 19.8046L28.4055 31.2029C29.4705 31.6927 30.5332 31.8238 31.5506 31.6688C32.9065 31.4623 34.2564 30.7352 35.4615 29.5258L35.4704 29.517L35.4794 29.5084C36.9804 28.0803 37.9304 26.4332 38.0099 24.5128L38.0471 23.6141H43.0112L43.1026 24.4497C43.4689 27.7993 41.9777 31.307 39.2065 34.0711C36.9765 36.3064 34.1148 37.7128 31.081 37.8433C28.0295 37.9745 24.8953 36.8101 22.1628 34.0702L22.1615 34.0689C16.6071 28.4774 17.5088 21.3075 21.7599 17.0459C23.8656 14.9349 26.8053 13.4989 30.0332 13.5986ZM24.5787 19.8661C27.0322 17.3902 31.0449 16.5353 34.3265 19.4192L35.0949 20.0945L24.298 30.4109L23.6714 29.5187C22.4233 27.7413 22.0031 25.9387 22.253 24.237C22.5001 22.5542 23.3872 21.0684 24.5787 19.8661ZM32.2575 20.2123C30.0542 18.8666 27.5941 19.4869 25.9105 21.1858C24.9258 22.1796 24.2833 23.3164 24.1081 24.5094C23.9744 25.4198 24.1038 26.4218 24.6373 27.4934L32.2575 20.2123ZM44.9916 32.3328C43.9827 32.3328 43.1081 33.2039 43.1081 34.2133C43.1081 35.2226 43.9827 36.0938 44.9916 36.0938C46.0005 36.0938 46.8751 35.2226 46.8751 34.2133C46.8751 33.2039 46.0005 32.3328 44.9916 32.3328ZM41.2331 34.2133C41.2331 32.1635 42.9521 30.4578 44.9916 30.4578C47.0311 30.4578 48.7501 32.1635 48.7501 34.2133C48.7501 36.2631 47.0311 37.9688 44.9916 37.9688C42.9521 37.9688 41.2331 36.2631 41.2331 34.2133Z" fill="#6600D5"/>
</svg>
