<svg width="278" height="56" viewBox="0 0 278 56" fill="none" xmlns="http://www.w3.org/2000/svg">
<path d="M27.9422 56C43.3742 56 55.8844 43.464 55.8844 28C55.8844 12.536 43.3742 0 27.9422 0C12.5101 0 0 12.536 0 28C0 43.464 12.5101 56 27.9422 56Z" fill="#F58A1F"/>
<path d="M27.9941 1.55507C24.9277 1.55507 21.8914 2.16036 19.0585 3.33637C16.2256 4.51238 13.6516 6.23608 11.4835 8.40902C9.31547 10.582 7.59582 13.1616 6.42276 16.0006C5.2497 18.8396 4.64623 21.8823 4.6468 24.955C4.64763 26.1988 4.74619 27.4406 4.94156 28.6689C7.97593 20.7633 16.2121 15.0859 25.909 15.0859C34.0151 15.0859 41.0809 19.0475 44.9822 24.955H45.0516C47.3103 24.8975 49.5121 25.67 51.2417 27.1269C51.3067 26.4145 51.3414 25.6978 51.3414 24.955C51.3419 21.8823 50.7385 18.8396 49.5654 16.0006C48.3924 13.1616 46.6727 10.582 44.5046 8.40902C42.3366 6.23608 39.7626 4.51238 36.9297 3.33637C34.0968 2.16036 31.0605 1.55507 27.9941 1.55507Z" fill="#FFDD00"/>
<path d="M51.2417 27.1095C49.5121 25.6526 47.3104 24.8801 45.0516 24.9376H44.9822C38.1116 24.9767 30.8811 30.9581 28.8134 38.3339C27.7124 42.2433 28.2976 45.7965 30.1138 48.2464C29.4159 48.3115 28.705 48.3463 27.9898 48.3463C22.4413 48.3457 17.0743 46.365 12.8508 42.7592C8.62735 39.1535 5.82339 34.1583 4.94156 28.6689C4.12623 30.788 3.70747 33.0395 3.70618 35.3106C3.70618 41.0313 6.30706 46.1961 10.5118 49.8796C13.8267 52.526 17.6987 54.3824 21.835 55.3085C25.9712 56.2346 30.2635 56.2062 34.3871 55.2253C38.5108 54.2445 42.3579 52.3369 45.6376 49.6468C48.9173 46.9568 51.5436 43.5547 53.3181 39.6978C53.4871 39.2634 53.6345 38.7986 53.7516 38.3425C55.052 33.6339 53.9683 29.4986 51.22 27.1095" fill="#EC1B2E"/>
<path d="M69.2009 38.5554C61.667 31.0059 63.1322 21.3453 68.8108 15.6506C74.4894 9.95594 84.7369 7.8188 93.0467 18.283L75.4864 35.8796C80.09 39.0289 85.127 37.9516 88.959 34.1117C91.3691 31.6966 92.7476 28.7645 92.83 25.5718L97.3945 25.6587C97.867 30.0025 96.1894 34.8024 92.4008 38.5988C86.3321 44.6801 76.6481 46.018 69.2009 38.5554ZM85.3004 18.9693C81.165 15.3466 76.0889 16.4716 72.9028 19.6599C69.7168 22.8483 68.6417 27.7263 71.9102 32.3872L85.3004 18.9693Z" fill="black"/>
<path d="M126.091 43.92V38.247H125.909C124.756 40.749 120.737 43.92 114.955 43.92C107.464 43.92 99.6096 38.3686 99.6096 27.4527C99.6096 16.5368 107.464 10.9811 114.955 10.9811C120.737 10.9811 124.756 14.152 125.909 16.654H126.091V0H132.788V43.92H126.091ZM114.942 37.8387C120.057 37.8387 124.99 34.2985 124.99 27.4701C124.99 20.6416 120.074 17.0797 114.942 17.0797C109.809 17.0797 104.972 20.6199 104.972 27.4527C104.972 34.2854 109.892 37.8213 114.942 37.8213V37.8387Z" fill="black"/>
<path d="M142.537 53.9237V48.3723C143.998 49.3497 147.102 50.327 150.634 50.327C156.781 50.327 161.411 47.5209 161.411 41.5439V38.247H161.042C159.95 40.749 155.992 43.92 150.27 43.92C142.84 43.92 134.929 38.3686 134.929 27.4527C134.929 16.5368 142.84 10.9811 150.27 10.9811C155.992 10.9811 159.95 14.152 161.042 16.6541H161.411V10.9289H168.104V41.1747C168.104 52.9029 159.035 56 151.792 56C147.817 56 144.241 55.0835 142.537 53.9237ZM150.262 37.8213C155.372 37.8213 160.305 34.2811 160.305 27.4527C160.305 20.6243 155.372 17.0797 150.262 17.0797C145.151 17.0797 140.292 20.6199 140.292 27.4527C140.292 34.2854 145.216 37.8213 150.262 37.8213Z" fill="black"/>
<path d="M175.404 38.5554C167.87 31.0059 169.335 21.3453 175.014 15.6506C180.692 9.95594 190.94 7.8188 199.25 18.283L181.685 35.8796C186.293 39.0289 191.33 37.9516 195.157 34.1117C197.572 31.6966 198.946 28.7645 199.033 25.5718L203.597 25.6587C204.07 30.0025 202.392 34.8024 198.604 38.5988C192.535 44.6801 182.847 46.018 175.404 38.5554ZM191.499 18.9693C187.368 15.3466 182.287 16.4716 179.101 19.6599C175.915 22.8483 174.84 27.7263 178.113 32.3872L191.499 18.9693Z" fill="black"/>
<path d="M277.077 34.3463C274.042 34.3463 272.625 32.7782 272.625 29.7245V10.8985H263.27V24.8768C262.195 22.5637 260.483 20.6062 258.336 19.2347C256.188 17.8631 253.695 17.1345 251.148 17.1345C248.601 17.1345 246.108 17.8631 243.96 19.2347C241.813 20.6062 240.101 22.5637 239.026 24.8768V17.4142H229.793V30.5672C229.793 32.9389 228.548 34.5504 226.463 34.5504C224.378 34.5504 223.13 32.9389 223.13 30.5672V17.4142H213.78V30.6888C213.78 38.8117 218.756 43.92 226.463 43.92C232.649 43.92 237.066 40.4797 238.514 34.9066C239.418 37.521 241.107 39.7909 243.35 41.4048C245.593 43.0186 248.279 43.8973 251.04 43.9202C253.801 43.943 256.501 43.1089 258.77 41.5324C261.039 39.9558 262.766 37.7142 263.712 35.1151C265.087 41.0791 269.59 43.7201 275.633 43.7201H278V34.3463H277.077ZM251.15 34.5504C250.356 34.5504 249.58 34.3145 248.92 33.8725C248.26 33.4305 247.746 32.8023 247.442 32.0674C247.138 31.3324 247.058 30.5236 247.213 29.7434C247.368 28.9631 247.75 28.2464 248.312 27.6839C248.873 27.1213 249.588 26.7382 250.367 26.583C251.146 26.4278 251.953 26.5075 252.686 26.8119C253.42 27.1164 254.047 27.6319 254.488 28.2934C254.929 28.9549 255.164 29.7325 255.164 30.5281C255.162 31.5942 254.738 32.6159 253.986 33.3698C253.234 34.1236 252.214 34.5481 251.15 34.5504Z" fill="black"/>
<path d="M207.941 43.92C210.158 43.92 211.955 42.1191 211.955 39.8976C211.955 37.6761 210.158 35.8753 207.941 35.8753C205.724 35.8753 203.927 37.6761 203.927 39.8976C203.927 42.1191 205.724 43.92 207.941 43.92Z" fill="#F58A1F"/>
</svg>
