<svg width="60" height="60" viewBox="0 0 60 60" fill="none" xmlns="http://www.w3.org/2000/svg">
<g clip-path="url(#clip0_6126_1120)">
<path d="M53.8184 59.1609H26.6004V37.1465H13.0587V59.1609H6.18164V31.0598H8.05664V57.2859H11.1837V35.2715H28.4754V57.2859H51.9434V31.0598H53.8184V59.1609Z" fill="#F58A1F"/>
<path d="M13.0596 19.5309H11.1846V9.06372H19.375V12.7842H17.5V10.9387H13.0596V19.5309Z" fill="#4C009F"/>
<path d="M45.5797 36.8549V47.4425H33.6842V36.8549H45.5797ZM47.4284 35.0071H31.8359V49.2913H47.4284V35.0071Z" fill="#4C009F"/>
<path d="M3.84582 36.4321L-0.0419922 30.8301L29.9988 0.443359L60.0429 30.8296L56.1522 36.4312L29.9988 9.97961L3.84582 36.4321ZM29.9988 7.31242L55.8996 33.509L57.6138 31.0401L29.9988 3.11055L2.38613 31.0405L4.09895 33.509L29.9988 7.31242Z" fill="#F58A1F"/>
<path d="M24.9219 48.1121H21.7471V49.9871H24.9219V48.1121Z" fill="#4C009F"/>
<path d="M48.5426 47.0039H30.7217V48.8789H48.5426V47.0039Z" fill="#4C009F"/>
</g>
<defs>
<clipPath id="clip0_6126_1120">
<rect width="60" height="60" fill="white"/>
</clipPath>
</defs>
</svg>
