<svg width="40" height="40" viewBox="0 0 40 40" fill="none" xmlns="http://www.w3.org/2000/svg">
<path d="M35.5519 31.895H34.3019V12.8222C34.3019 12.6 34.125 12.4197 33.9069 12.4197H26.9531V11.1697H33.9069C34.8137 11.1697 35.5519 11.9109 35.5519 12.8222V31.895Z" fill="#140029"/>
<path d="M5.69727 31.895H4.44727V12.8222C4.44727 11.9109 5.18508 11.1697 6.09195 11.1697H12.7523V12.4197H6.09227C5.87477 12.4197 5.69758 12.6 5.69758 12.8222V31.895H5.69727Z" fill="#140029"/>
<path d="M33.1093 29.9397H6.88965V13.5388H11.4021V14.7888H8.13965V28.6897H31.8593V14.7888H28.665V13.5388H33.1093V29.9397Z" fill="#140029"/>
<path d="M37.0509 35.2784H2.94844C1.78875 35.2784 0.403125 34.2606 0.249062 34.1447L0 33.9572V31.1756H40V33.9572L39.7509 34.145C39.5966 34.2609 38.2103 35.2784 37.0509 35.2784ZM1.25 33.3203C1.74188 33.645 2.47625 34.0284 2.94844 34.0284H37.0509C37.5613 34.0284 38.3169 33.6041 38.7503 33.3194V32.4256H1.25V33.3203Z" fill="#140029"/>
<path d="M24.177 22.2053H15.8061L15.767 21.6222C15.7123 20.8056 15.5348 20.1581 15.2673 19.7994C12.3961 16.0756 12.3154 12.4931 12.3154 12.4581C12.3154 8.1925 15.7623 4.72188 19.9992 4.72188C24.2354 4.72188 27.682 8.19219 27.682 12.4581C27.682 12.4931 27.6014 16.0738 24.7229 19.8075C24.4598 20.1606 24.2786 20.8091 24.2195 21.6259L24.177 22.2053ZM16.9548 20.9553H23.0351C23.1523 20.1506 23.3842 19.5119 23.7279 19.0519C26.3401 15.6622 26.4317 12.4884 26.4323 12.4572C26.4323 8.88157 23.5467 5.97157 19.9995 5.97157C16.452 5.97157 13.5657 8.88157 13.5657 12.4578C13.5657 12.4884 13.6561 15.6622 16.2636 19.0438C16.6111 19.51 16.8417 20.1497 16.9548 20.9553Z" fill="#140029"/>
<path d="M19.1564 21.4726L18.0684 13.658L16.8304 13.8304L17.9184 21.6449L19.1564 21.4726Z" fill="#140029"/>
<path d="M23.1695 13.8312L21.9316 13.6591L20.8451 21.4748L22.0829 21.6469L23.1695 13.8312Z" fill="#140029"/>
<path d="M18.3198 15.5959L17.1123 14.7094L17.852 13.7019L18.3198 14.0453L19.1579 13.4306L19.997 14.0456L20.8357 13.4306L21.6754 14.0463L22.1473 13.7013L22.8851 14.71L21.6748 15.5953L20.8357 14.9806L19.997 15.5959L19.1582 14.9806L18.3198 15.5959Z" fill="#140029"/>
<path d="M24.2623 23.2885H15.7363V24.5385H24.2623V23.2885Z" fill="#140029"/>
<path d="M22.6646 25.5431H17.334V26.7931H22.6646V25.5431Z" fill="#140029"/>
<path d="M18.5479 21.76H17.2979V23.7272H18.5479V21.76Z" fill="#140029"/>
</svg>
