<svg width="60" height="60" viewBox="0 0 60 60" fill="none" xmlns="http://www.w3.org/2000/svg">
<g clip-path="url(#clip0_3613_311076)">
<path d="M35.1882 60L8.62223 33.113L6.99707 17.4867L7.75223 16.7231L8.78769 17.7469L8.91004 17.7342L8.92551 17.8833L9.08723 18.0431L8.95598 18.1758L10.4213 32.2627L35.1886 57.3296L57.113 35.1413L32.3321 10.0655L18.4332 8.58424L12.7533 14.3316L11.4183 13.0121L17.7338 6.62158L33.1964 8.26971L59.7521 35.1408L35.1882 60ZM18.1332 21.7763C17.6242 21.7774 17.1202 21.6767 16.6507 21.4802C16.1813 21.2837 15.7558 20.9954 15.3994 20.6321C13.9013 19.1147 13.9018 16.6472 15.3999 15.1313C15.7555 14.7684 16.1801 14.4803 16.6487 14.2838C17.1173 14.0873 17.6204 13.9864 18.1285 13.9871H18.1313C18.6401 13.9861 19.144 14.0867 19.6133 14.2832C20.0827 14.4796 20.5081 14.7677 20.8646 15.1308C22.3646 16.6486 22.3641 19.1161 20.865 20.6316C20.509 20.9949 20.0839 21.2834 19.6148 21.4799C19.1456 21.6765 18.6418 21.7773 18.1332 21.7763ZM18.1318 15.8639H18.1304C17.8706 15.8638 17.6133 15.9156 17.3739 16.0163C17.1344 16.117 16.9174 16.2646 16.7358 16.4503C16.361 16.8323 16.151 17.3461 16.1509 17.8813C16.1508 18.4165 16.3607 18.9304 16.7353 19.3125C16.9174 19.4985 17.1348 19.6463 17.3747 19.747C17.6147 19.8477 17.8724 19.8994 18.1327 19.8989C18.393 19.8992 18.6508 19.8475 18.8909 19.7467C19.1309 19.6459 19.3484 19.4981 19.5305 19.3121L19.531 19.3116C19.9057 18.9297 20.1156 18.4159 20.1155 17.8809C20.1154 17.3458 19.9054 16.8321 19.5305 16.4503C19.3481 16.2644 19.1305 16.1168 18.8903 16.0161C18.6501 15.9154 18.3922 15.8637 18.1318 15.8639Z" fill="#F58A1F"/>
<path d="M16.4873 19.537C13.8356 19.5375 9.78937 17.1773 6.17999 13.5248C1.90359 9.19641 -1.34016 3.28078 1.07109 0.841875C1.44984 0.458437 2.14874 0 3.32624 0H3.32718C5.97843 0 10.0237 2.35922 13.6331 6.01125C14.166 6.54915 14.679 7.1064 15.1711 7.68187L13.7442 8.90203C13.2813 8.36113 12.7991 7.83704 12.2986 7.33078C8.59452 3.58406 5.05171 1.87734 3.32718 1.87734H3.32671C2.90202 1.87734 2.59265 1.97297 2.40656 2.16094C1.42406 3.15469 2.9264 7.56094 7.51499 12.2048C11.2191 15.953 14.7623 17.6602 16.4869 17.6597C16.9125 17.6597 17.2223 17.5645 17.4084 17.3756C17.7286 17.0531 17.7811 16.3317 17.5542 15.397L19.3786 14.9531C19.8787 17.0119 19.3092 18.1247 18.7434 18.6956C18.3647 19.0791 17.6648 19.537 16.4873 19.537ZM37.4053 27.7078L38.7403 29.0278L29.1628 38.7145L27.8278 37.3941L37.4053 27.7078Z" fill="#4C009F"/>
<path d="M29.1616 27.7051L38.7354 37.3923L37.3995 38.7118L27.8262 29.0251L29.1616 27.7051Z" fill="#4C009F"/>
</g>
<defs>
<clipPath id="clip0_3613_311076">
<rect width="60" height="60" fill="white"/>
</clipPath>
</defs>
</svg>
