<svg width="60" height="60" viewBox="0 0 60 60" fill="none" xmlns="http://www.w3.org/2000/svg">
<path d="M17.9922 7.22192H45.6287V9.09692H17.9922V7.22192Z" fill="#F58A1F"/>
<path d="M60 21.7813H0V7.22192H9.01125V9.09692H1.875V19.9063H58.125V9.09692H54.412V7.22192H60V21.7813ZM58.8164 57.7761H1.18453V25.1024H3.05953V55.9011H56.9414V25.1024H58.8164V57.7761Z" fill="#F58A1F"/>
<path d="M15.0963 15.1628H8.33594V2.22388H15.0963V15.1628ZM10.2109 13.2878H13.2212V4.09888H10.2109V13.2878ZM51.6648 15.1628H44.9036V2.22388H51.6648V15.1628ZM46.7786 13.2878H49.7898V4.09888H46.7786V13.2878Z" fill="#F58A1F"/>
<path d="M35.0256 51.2279H24.9752V43.3951H17.2188V33.2645H24.9752V25.4316H35.0256V33.2645H42.782V43.3951H35.0256V51.2279ZM26.8502 49.3529H33.1506V41.5201H40.907V35.1395H33.1506V27.3066H26.8502V35.1395H19.0937V41.5201H26.8502V49.3529Z" fill="#4C009F"/>
</svg>
