<svg width="40" height="40" viewBox="0 0 40 40" fill="none" xmlns="http://www.w3.org/2000/svg">
<path d="M34.3379 9.45032H33.0879V18.6447H34.3379V9.45032Z" fill="#140029"/>
<path d="M31.1426 9.45032H29.8926V18.6447H31.1426V9.45032Z" fill="#140029"/>
<path d="M34.3379 26.1016H33.0879V35.2962H34.3379V26.1016Z" fill="#140029"/>
<path d="M31.1426 26.1016H29.8926V35.2962H31.1426V26.1016Z" fill="#140029"/>
<path d="M34.0295 26.9084H30.2013C29.5013 26.9084 28.9316 26.335 28.9316 25.6303V19.4928C28.9316 18.7891 29.501 18.2162 30.2013 18.2162H34.0295C34.7291 18.2162 35.2985 18.7891 35.2985 19.4928V25.6306C35.2982 26.335 34.7291 26.9084 34.0295 26.9084ZM30.2013 19.4662C30.192 19.4662 30.1816 19.4769 30.1816 19.4928V25.6306C30.1816 25.6475 30.1916 25.6587 30.2013 25.6587H34.0295C34.0373 25.6587 34.0485 25.6491 34.0485 25.6306V19.4928C34.0485 19.4769 34.0388 19.4662 34.0295 19.4662H30.2013Z" fill="#140029"/>
<path d="M32.7402 23.6966H31.4902V25.8772H32.7402V23.6966Z" fill="#140029"/>
<path d="M40 36.2053H0V8.7197H40V36.2053ZM1.25 34.9553H38.75V9.9697H1.25V34.9553Z" fill="#140029"/>
<path d="M25.6596 7.03282H24.4096V5.04469H15.5908V7.03282H14.3408V3.79469H25.6596V7.03282Z" fill="#140029"/>
<path d="M10.1074 9.45032H8.85742V18.6447H10.1074V9.45032Z" fill="#140029"/>
<path d="M6.91211 9.45032H5.66211V18.6447H6.91211V9.45032Z" fill="#140029"/>
<path d="M10.1074 26.1016H8.85742V35.2962H10.1074V26.1016Z" fill="#140029"/>
<path d="M6.91211 26.1016H5.66211V35.2962H6.91211V26.1016Z" fill="#140029"/>
<path d="M9.79805 26.9084H5.97086C5.27086 26.9084 4.70117 26.335 4.70117 25.6303V19.4928C4.70117 18.7891 5.27086 18.2162 5.97086 18.2162H9.79836C10.4984 18.2162 11.0677 18.7891 11.0677 19.4928V25.6306C11.0671 26.3353 10.4974 26.9084 9.79805 26.9084ZM5.97086 19.4662C5.96148 19.4662 5.95117 19.4766 5.95117 19.4928V25.6306C5.95117 25.6481 5.96148 25.6587 5.97086 25.6587H9.79805C9.80617 25.6587 9.81742 25.6491 9.81742 25.6306L9.81773 19.4928C9.81773 19.4753 9.80648 19.4662 9.79836 19.4662H5.97086Z" fill="#140029"/>
<path d="M8.50977 23.6966H7.25977V25.8772H8.50977V23.6966Z" fill="#140029"/>
<path d="M25.2327 31.3819L14.0596 29.5509L15.4008 21.1731L26.5743 23.0038L25.2327 31.3819ZM15.4908 28.5188L24.1971 29.9453L25.1427 24.0359L16.4368 22.6094L15.4908 28.5188Z" fill="#140029"/>
<path d="M22.8407 26.0731L17.6104 25.216L17.4082 26.4495L22.6386 27.3066L22.8407 26.0731Z" fill="#140029"/>
<path d="M25.6167 17.2525C24.4682 17.2525 23.5342 16.3106 23.5342 15.1528C23.5342 13.995 24.4682 13.0531 25.6167 13.0531C26.7648 13.0531 27.6986 13.995 27.6986 15.1528C27.6986 16.3106 26.7645 17.2525 25.6167 17.2525ZM25.6167 14.3034C25.1576 14.3034 24.7842 14.6847 24.7842 15.1531C24.7842 15.6216 25.1576 16.0028 25.6167 16.0028C26.0754 16.0028 26.4486 15.6216 26.4486 15.1531C26.4486 14.6847 26.0751 14.3034 25.6167 14.3034Z" fill="#140029"/>
<path d="M13.685 31.8706H12.1943V33.1206H13.685V31.8706Z" fill="#140029"/>
<path d="M22.2412 16.4243L22.0215 15.1938L13.5763 16.702L13.796 17.9325L22.2412 16.4243Z" fill="#140029"/>
</svg>
