<svg width="60" height="60" viewBox="0 0 60 60" fill="none" xmlns="http://www.w3.org/2000/svg">
<g clip-path="url(#clip0_3613_311106)">
<path d="M15.0838 60H12.9313C10.3794 60 8.30332 57.9412 8.30332 55.4109V52.3411H10.1783V55.4109C10.1783 56.9072 11.4135 58.125 12.9313 58.125H15.0838C16.6016 58.125 17.8368 56.9072 17.8368 55.4109L19.7118 55.3847V55.4109C19.7113 57.9412 17.6357 60 15.0838 60ZM47.0689 60H44.9155C42.3632 60 40.2875 57.9412 40.2875 55.4109V52.1386H42.1625V55.4109C42.1625 56.9072 43.3977 58.125 44.9155 58.125H47.0689C48.5868 58.125 49.8219 56.9072 49.8219 55.4109H51.6969L51.6814 55.7906C51.4855 58.1442 49.4914 60 47.0689 60ZM54.0032 43.0078H52.1282V4.58953C52.1282 3.09281 50.893 1.875 49.3752 1.875H10.625C9.10723 1.875 7.87207 3.09281 7.87207 4.58953V42.6028H5.99707V4.58953C5.9966 2.05875 8.07316 0 10.625 0H49.3752C51.9266 0 54.0032 2.05875 54.0032 4.58953V43.0078Z" fill="#F58A1F"/>
<path d="M54.0031 53.0005H5.99609V48.4864H7.87109V51.1255H52.1281V48.2835H54.0031V53.0005ZM54.0031 36.5675H5.99609V12.4771H54.0031V36.5675ZM7.87109 34.6925H52.1281V14.3521H7.87109V34.6925ZM11.24 7.55566H48.7602V9.43066H11.24V7.55566Z" fill="#F58A1F"/>
<path d="M54.9261 48.74H5.07406V42.1775H54.9261V48.74ZM6.94906 46.865H53.0511V44.0525H6.94906V46.865ZM29.0623 13.1104H30.9373V35.63H29.0623V13.1104ZM59.0778 26.196H57.2028V18.9168H52.6053V17.0418H59.0778V26.196ZM2.79688 26.196H0.921875V17.0418H7.39531V18.9168H2.79688V26.196ZM24.4456 20.1097H26.3206V32.2822H24.4456V20.1097Z" fill="#4C009F"/>
<path d="M24.7237 26.1384L26.0423 27.4716L17.4304 35.9916L16.1113 34.6584L24.7237 26.1384Z" fill="#4C009F"/>
<path d="M33.877 20.1099H35.752V32.2824H33.877V20.1099Z" fill="#4C009F"/>
<path d="M35.4719 26.1384L44.0833 34.6603L42.7643 35.993L34.1533 27.4711L35.4719 26.1384Z" fill="#4C009F"/>
<path d="M9.67383 38.4192H14.1841V40.2942H9.67383V38.4192Z" fill="#4C009F"/>
<path d="M45.1445 38.4192H49.6553V40.2942H45.1445V38.4192Z" fill="#4C009F"/>
</g>
<defs>
<clipPath id="clip0_3613_311106">
<rect width="60" height="60" fill="white"/>
</clipPath>
</defs>
</svg>
